{
copyright = "Copyright (C) 2014 by Nishant Vats. All rights reserved.";
customParameters = (
{
name = glyphOrder;
value = (
    ".notdef",
    glyph1,
    uni000D,
    space,
    asterisk,
    plus,
    uni00A0,
    uni2000,
    uni2001,
    uni2002,
    uni2003,
    uni2004,
    uni2005,
    uni2006,
    uni2007,
    uni2008,
    uni2009,
    uni200A,
    uni202F,
    uni205F,
    Euro,
    minus,
    uni25FC,
    uni2601,
    uni2709,
    uni270F,
    uniE001,
    uniE002,
    uniE003,
    uniE005,
    uniE006,
    uniE007,
    uniE008,
    uniE009,
    uniE010,
    uniE011,
    uniE012,
    uniE013,
    uniE014,
    uniE015,
    uniE016,
    uniE017,
    uniE018,
    uniE019,
    uniE020,
    uniE021,
    uniE022,
    uniE023,
    uniE024,
    uniE025,
    uniE026,
    uniE027,
    uniE028,
    uniE029,
    uniE030,
    uniE031,
    uniE032,
    uniE033,
    uniE034,
    uniE035,
    uniE036,
    uniE037,
    uniE038,
    uniE039,
    uniE040,
    uniE041,
    uniE042,
    uniE043,
    uniE044,
    uniE045,
    uniE046,
    uniE047,
    uniE048,
    uniE049,
    uniE050,
    uniE051,
    uniE052,
    uniE053,
    uniE054,
    uniE055,
    uniE056,
    uniE057,
    uniE058,
    uniE059,
    uniE060,
    uniE062,
    uniE063,
    uniE064,
    uniE065,
    uniE066,
    uniE067,
    uniE068,
    uniE069,
    uniE070,
    uniE071,
    uniE072,
    uniE073,
    uniE074,
    uniE075,
    uniE076,
    uniE077,
    uniE078,
    uniE079,
    uniE080,
    uniE081,
    uniE082,
    uniE083,
    uniE084,
    uniE085,
    uniE086,
    uniE087,
    uniE088,
    uniE089,
    uniE090,
    uniE091,
    uniE092,
    uniE093,
    uniE094,
    uniE095,
    uniE096,
    uniE097,
    uniE101,
    uniE102,
    uniE103,
    uniE104,
    uniE105,
    uniE106,
    uniE107,
    uniE108,
    uniE109,
    uniE110,
    uniE111,
    uniE112,
    uniE113,
    uniE114,
    uniE115,
    uniE116,
    uniE117,
    uniE118,
    uniE119,
    uniE120,
    uniE121,
    uniE122,
    uniE123,

glyphs = (
{
glyphname = .notdef;
layers = (
{
layerId = "9ECC7D36-9140-4F4B-A408-CD21EECD2CFD";
name = Regular;
paths = (
{
closed = 1;
nodes = (
"40 0 LINE",
"40 800 LINE",
"360 800 LINE",
"360 0 LINE"
);
},
{
closed = 1;
nodes = (
"80 40 LINE",
"320 40 LINE",
"320 760 LINE",
"80 760 LINE"
);
}
);
width = 440;
}
);
},
{
glyphname = asterisk;
layers = (
{
layerId = "9ECC7D36-9140-4F4B-A408-CD21EECD2CFD";
name = Regular;
paths = (
{
closed = 1;
nodes = (
"100 500 LINE",
"100 700 LINE",
"359 700 LINE",
"176 883 LINE",
"317 1024 LINE",
"500 841 LINE",
"500 1100 LINE",
"700 1100 LINE",
"700 841 LINE",
"883 1024 LINE",
"1024 883 LINE",
"841 700 LINE",
"1100 700 LINE",
"1100 500 LINE",
"841 500 LINE",
"1024 317 LINE",
"883 176 LINE",
"700 359 LINE",
"700 100 LINE",
"500 100 LINE",
"500 359 LINE",
"317 176 LINE",
"176 317 LINE",
"359 500 LINE"
);
}
);
width = 1200;
}
);
unicode = 002A;
},
{
glyphname = plus;
layers = (
{
layerId = "9ECC7D36-9140-4F4B-A408-CD21EECD2CFD";
name = Regular;
paths = (
{
closed = 1;
nodes = (
"0 400 LINE",
"0 700 LINE",
"400 700 LINE",
"400 1100 LINE",
"700 1100 LINE",
"700 700 LINE",
"1100 700 LINE",
"1100 400 LINE",
"700 400 LINE",
"700 0 LINE",
"400 0 LINE",
"400 400 LINE"
);
}
);
width = 1200;
}
);
unicode = 002B;
},
{
glyphname = uni2001;
lastChange = "2014-04-29 22:59:24 +0530";
layers = (
{
layerId = "9ECC7D36-9140-4F4B-A408-CD21EECD2CFD";
name = Regular;
paths = (
{
closed = 1;
nodes = (
"913 780 OFFCURVE",
"782 840 OFFCURVE",
"644 840 CURVE SMOOTH",
"526 840 OFFCURVE",
"415 798 OFFCURVE",
"327 719 CURVE SMOOTH",
"128 544 OFFCURVE",
"109 241 OFFCURVE",
"284 42 CURVE SMOOTH",
"376 -60 OFFCURVE",
"507 -120 OFFCURVE",
"644 -120 CURVE SMOOTH",
"762 -120 OFFCURVE",
"874 -78 OFFCURVE",
"962 1 CURVE SMOOTH",
"1058 85 OFFCURVE",
"1116 202 OFFCURVE",
"1124 331 CURVE SMOOTH",
"1131 458 OFFCURVE",
"1088 581 OFFCURVE",
"1003 678 CURVE SMOOTH"
);
},
{
closed = 1;
nodes = (
"789 241 LINE SMOOTH",
"789 223 OFFCURVE",
"780 211 OFFCURVE",
"764 203 CURVE SMOOTH",
"759 202 OFFCURVE",
"757 202 OFFCURVE",
"752 202 CURVE SMOOTH",
"739 202 OFFCURVE",
"728 205 OFFCURVE",
"721 214 CURVE SMOOTH",
"578 376 LINE",
"578 304 LINE SMOOTH",
"578 282 OFFCURVE",
"560 264 OFFCURVE",
"538 264 CURVE SMOOTH",
"358 264 LINE",
"349 289 OFFCURVE",
"344 318 OFFCURVE",
"344 343 CURVE",
"499 343 LINE",
"499 479 LINE SMOOTH",
"499 494 OFFCURVE",
"507 509 OFFCURVE",
"523 517 CURVE SMOOTH",
"540 522 OFFCURVE",
"558 517 OFFCURVE",
"567 504 CURVE SMOOTH",
"712 344 LINE",
"712 416 LINE SMOOTH",
"712 437 OFFCURVE",
"728 456 OFFCURVE",
"752 456 CURVE SMOOTH",
"931 456 LINE",
"938 431 OFFCURVE",
"943 402 OFFCURVE",
"945 376 CURVE",
"789 376 LINE"
);
}
);
width = 1304;
}
);
unicode = 2001;
},
{
glyphname = uni2002;
lastChange = "2014-04-29 23:01:28 +0530";
layers = (
{
layerId = "9ECC7D36-9140-4F4B-A408-CD21EECD2CFD";
name = Regular;
paths = (
{
closed = 1;
nodes = (
"882 746 OFFCURVE",
"775 794 OFFCURVE",
"663 794 CURVE SMOOTH",
"567 794 OFFCURVE",
"475 759 OFFCURVE",
"404 696 CURVE SMOOTH",
"255 564 OFFCURVE",
"230 343 OFFCURVE",
"340 183 CURVE",
"208 51 LINE SMOOTH",
"180 22 OFFCURVE",
"180 -25 OFFCURVE",
"208 -53 CURVE SMOOTH",
"222 -67 OFFCURVE",
"241 -74 OFFCURVE",
"259 -74 CURVE SMOOTH",
"278 -74 OFFCURVE",
"297 -67 OFFCURVE",
"311 -53 CURVE SMOOTH",
"443 80 LINE",
"507 36 OFFCURVE",
"584 12 OFFCURVE",
"663 12 CURVE SMOOTH",
"758 12 OFFCURVE",
"850 46 OFFCURVE",
"922 110 CURVE SMOOTH",
"1000 179 OFFCURVE",
"1047 274 OFFCURVE",
"1053 379 CURVE SMOOTH",
"1060 483 OFFCURVE",
"1025 584 OFFCURVE",
"956 662 CURVE SMOOTH"
);
},
{
closed = 1;
nodes = (
"904 322 OFFCURVE",
"875 262 OFFCURVE",
"826 219 CURVE SMOOTH",
"781 179 OFFCURVE",
"723 157 OFFCURVE",
"663 157 CURVE SMOOTH",
"592 157 OFFCURVE",
"525 187 OFFCURVE",
"479 240 CURVE SMOOTH",
"389 341 OFFCURVE",
"399 497 OFFCURVE",
"500 587 CURVE SMOOTH",
"545 627 OFFCURVE",
"603 648 OFFCURVE",
"663 648 CURVE SMOOTH",
"733 648 OFFCURVE",
"800 618 OFFCURVE",
"847 565 CURVE SMOOTH",
"890 516 OFFCURVE",
"912 453 OFFCURVE",
"908 388 CURVE SMOOTH"
);
}
);
width = 1240;
}
);
unicode = 2002;
},
{
glyphname = uni2003;
lastChange = "2014-05-01 07:34:35 +0530";
layers = (
{
layerId = "9ECC7D36-9140-4F4B-A408-CD21EECD2CFD";
name = Regular;
paths = (
{
closed = 1;
nodes = (
"960 28 LINE SMOOTH",
"960 -3 OFFCURVE",
"936 -28 OFFCURVE",
"905 -28 CURVE SMOOTH",
"296 -28 LINE SMOOTH",
"265 -28 OFFCURVE",
"240 -3 OFFCURVE",
"240 28 CURVE SMOOTH",
"240 581 LINE SMOOTH",
"240 612 OFFCURVE",
"265 637 OFFCURVE",
"296 637 CURVE SMOOTH",
"351 637 LINE",
"351 678 LINE SMOOTH",
"351 716 OFFCURVE",
"382 748 OFFCURVE",
"420 748 CURVE SMOOTH",
"448 748 LINE SMOOTH",
"486 748 OFFCURVE",
"517 716 OFFCURVE",
"517 678 CURVE SMOOTH",
"517 637 LINE",
"683 637 LINE",
"683 678 LINE SMOOTH",
"683 716 OFFCURVE",
"714 748 OFFCURVE",
"752 748 CURVE SMOOTH",
"780 748 LINE SMOOTH",
"818 748 OFFCURVE",
"849 716 OFFCURVE",
"849 678 CURVE SMOOTH",
"849 637 LINE",
"904 637 LINE SMOOTH",
"934 637 OFFCURVE",
"959 612 OFFCURVE",
"959 581 CURVE SMOOTH"
);
},
{
closed = 1;
nodes = (
"294 346 LINE",
"419 346 LINE",
"419 471 LINE",
"294 471 LINE"
);
},
{
closed = 1;
nodes = (
"294 180 LINE",
"419 180 LINE",
"419 319 LINE",
"294 319 LINE"
);
},
{
closed = 1;
nodes = (
"294 28 LINE",
"419 28 LINE",
"419 153 LINE",
"294 153 LINE"
);
},
{
closed = 1;
nodes = (
"462 685 OFFCURVE",
"456 693 OFFCURVE",
"448 692 CURVE",
"420 692 LINE SMOOTH",
"413 692 OFFCURVE",
"405 687 OFFCURVE",
"406 678 CURVE",
"406 554 LINE SMOOTH",
"406 547 OFFCURVE",
"411 539 OFFCURVE",
"420 540 CURVE",
"448 540 LINE SMOOTH",
"455 540 OFFCURVE",
"462 545 OFFCURVE",
"462 554 CURVE",
"462 678 LINE SMOOTH"
);
},
{
closed = 1;
nodes = (
"446 180 LINE",
"585 180 LINE",
"585 319 LINE",
"446 319 LINE"
);
},
{
closed = 1;
nodes = (
"446 28 LINE",
"585 28 LINE",
"585 153 LINE",
"446 153 LINE"
);
},
{
closed = 1;
nodes = (
"447 346 LINE",
"586 346 LINE",
"586 471 LINE",
"447 471 LINE"
);
},
{
closed = 1;
nodes = (
"613 28 LINE",
"752 28 LINE",
"752 152 LINE",
"613 152 LINE"
);
},
{
closed = 1;
nodes = (
"614 180 LINE",
"753 180 LINE",
"753 318 LINE",
"614 318 LINE"
);
},
{
closed = 1;
nodes = (
"614 346 LINE",
"753 346 LINE",
"753 471 LINE",
"614 471 LINE"
);
},
{
closed = 1;
nodes = (
"794 685 OFFCURVE",
"789 693 OFFCURVE",
"780 692 CURVE",
"753 692 LINE SMOOTH",
"746 692 OFFCURVE",
"738 687 OFFCURVE",
"739 678 CURVE",
"739 554 LINE SMOOTH",
"739 547 OFFCURVE",
"744 539 OFFCURVE",
"753 540 CURVE",
"780 540 LINE SMOOTH",
"787 540 OFFCURVE",
"795 545 OFFCURVE",
"794 554 CURVE",
"794 678 LINE SMOOTH"
);
},
{
closed = 1;
nodes = (
"780 28 LINE",
"905 28 LINE",
"905 152 LINE",
"780 152 LINE"
);
},
{
closed = 1;
nodes = (
"780 346 LINE",
"905 346 LINE",
"905 471 LINE",
"780 471 LINE"
);
},
{
closed = 1;
nodes = (
"780 180 LINE",
"905 180 LINE",
"905 318 LINE",
"780 318 LINE"
);
}
);
width = 1240;
}
);
unicode = 2003;
},
{
glyphname = uni2004;
lastChange = "2014-04-29 23:04:52 +0530";
layers = (
{
layerId = "9ECC7D36-9140-4F4B-A408-CD21EECD2CFD";
name = Regular;
paths = (
{
closed = 1;
nodes = (
"260 151 OFFCURVE",
"266 138 OFFCURVE",
"273 126 CURVE",
"463 126 LINE",
"452 134 OFFCURVE",
"442 143 OFFCURVE",
"433 154 CURVE SMOOTH",
"430 157 OFFCURVE",
"428 160 OFFCURVE",
"425 164 CURVE SMOOTH",
"405 189 OFFCURVE",
"390 217 OFFCURVE",
"381 247 CURVE SMOOTH",
"354 337 OFFCURVE",
"379 439 OFFCURVE",
"455 506 CURVE SMOOTH",
"500 546 OFFCURVE",
"559 568 OFFCURVE",
"620 568 CURVE SMOOTH",
"691 568 OFFCURVE",
"759 538 OFFCURVE",
"807 484 CURVE SMOOTH",
"851 434 OFFCURVE",
"873 370 OFFCURVE",
"869 304 CURVE SMOOTH",
"868 284 OFFCURVE",
"864 265 OFFCURVE",
"858 246 CURVE SMOOTH",
"849 216 OFFCURVE",
"834 188 OFFCURVE",
"815 163 CURVE SMOOTH",
"806 152 OFFCURVE",
"796 142 OFFCURVE",
"785 132 CURVE SMOOTH",
"782 130 OFFCURVE",
"779 128 OFFCURVE",
"776 126 CURVE",
"966 126 LINE",
"973 138 OFFCURVE",
"979 150 OFFCURVE",
"985 163 CURVE SMOOTH",
"996 190 OFFCURVE",
"1005 218 OFFCURVE",
"1010 246 CURVE SMOOTH",
"1013 262 OFFCURVE",
"1015 278 OFFCURVE",
"1016 295 CURVE SMOOTH",
"1023 400 OFFCURVE",
"988 502 OFFCURVE",
"917 582 CURVE SMOOTH",
"842 667 OFFCURVE",
"733 716 OFFCURVE",
"620 716 CURVE SMOOTH",
"523 716 OFFCURVE",
"429 681 OFFCURVE",
"357 616 CURVE SMOOTH",
"249 521 OFFCURVE",
"206 379 OFFCURVE",
"230 247 CURVE SMOOTH",
"235 218 OFFCURVE",
"243 191 OFFCURVE",
"255 164 CURVE SMOOTH"
);
},
{
closed = 1;
nodes = (
"1049 244 OFFCURVE",
"1049 242 OFFCURVE",
"1048 239 CURVE SMOOTH",
"1044 214 OFFCURVE",
"1036 188 OFFCURVE",
"1026 163 CURVE",
"1069 163 LINE",
"1023 87 LINE",
"990 87 LINE",
"989 87 LINE",
"941 87 LINE SMOOTH",
"942 87 OFFCURVE",
"942 87 OFFCURVE",
"942 87 CURVE",
"712 87 LINE",
"528 87 LINE",
"297 88 LINE SMOOTH",
"297 87 OFFCURVE",
"297 87 OFFCURVE",
"298 87 CURVE",
"250 87 LINE",
"250 88 LINE",
"171 88 LINE",
"215 160 LINE",
"205 185 OFFCURVE",
"197 212 OFFCURVE",
"191 240 CURVE SMOOTH",
"191 242 OFFCURVE",
"191 244 OFFCURVE",
"191 247 CURVE",
"166 247 LINE",
"20 5 LINE",
"378 5 LINE",
"862 4 LINE",
"1073 4 LINE",
"1220 246 LINE",
"1049 246 LINE"
);
},
{
closed = 1;
nodes = (
"431 226 OFFCURVE",
"441 206 OFFCURVE",
"455 188 CURVE",
"455 188 OFFCURVE",
"461 181 OFFCURVE",
"462 180 CURVE SMOOTH",
"467 174 OFFCURVE",
"472 169 OFFCURVE",
"479 164 CURVE",
"761 164 LINE",
"769 171 OFFCURVE",
"777 179 OFFCURVE",
"784 188 CURVE SMOOTH",
"798 205 OFFCURVE",
"809 225 OFFCURVE",
"816 246 CURVE",
"423 247 LINE"
);
}
);
width = 1240;
}
);
unicode = 2004;
},
{
glyphname = uni2005;
lastChange = "2014-04-29 23:05:49 +0530";
layers = (
{
layerId = "9ECC7D36-9140-4F4B-A408-CD21EECD2CFD";
name = Regular;
paths = (
{
closed = 1;
nodes = (
"756 686 LINE",
"700 714 OFFCURVE",
"637 729 OFFCURVE",
"573 729 CURVE SMOOTH",
"472 729 OFFCURVE",
"375 693 OFFCURVE",
"299 626 CURVE SMOOTH",
"129 475 OFFCURVE",
"113 214 OFFCURVE",
"264 43 CURVE SMOOTH",
"342 -46 OFFCURVE",
"455 -97 OFFCURVE",
"573 -97 CURVE SMOOTH",
"674 -97 OFFCURVE",
"771 -60 OFFCURVE",
"846 7 CURVE SMOOTH",
"929 80 OFFCURVE",
"978 181 OFFCURVE",
"985 291 CURVE SMOOTH",
"989 365 OFFCURVE",
"974 436 OFFCURVE",
"943 500 CURVE",
"1073 817 LINE"
);
},
{
closed = 1;
nodes = (
"828 232 OFFCURVE",
"797 168 OFFCURVE",
"745 122 CURVE SMOOTH",
"697 80 OFFCURVE",
"636 57 OFFCURVE",
"573 57 CURVE SMOOTH",
"499 57 OFFCURVE",
"428 89 OFFCURVE",
"379 145 CURVE SMOOTH",
"284 252 OFFCURVE",
"294 416 OFFCURVE",
"401 511 CURVE SMOOTH",
"449 553 OFFCURVE",
"510 576 OFFCURVE",
"573 576 CURVE SMOOTH",
"647 576 OFFCURVE",
"718 544 OFFCURVE",
"767 488 CURVE SMOOTH",
"813 437 OFFCURVE",
"836 370 OFFCURVE",
"832 301 CURVE SMOOTH"
);
}
);
width = 1233;
}
);
unicode = 2005;
},
{
glyphname = uni2006;
lastChange = "2014-05-24 20:01:00 +0530";
layers = (
{
layerId = "9ECC7D36-9140-4F4B-A408-CD21EECD2CFD";
name = Regular;
paths = (
{
closed = 1;
nodes = (
"1000 74 OFFCURVE",
"998 61 OFFCURVE",
"993 44 CURVE SMOOTH",
"989 28 OFFCURVE",
"985 15 OFFCURVE",
"981 6 CURVE SMOOTH",
"973 -13 OFFCURVE",
"950 -33 OFFCURVE",
"912 -54 CURVE SMOOTH",
"877 -73 OFFCURVE",
"841 -83 OFFCURVE",
"806 -83 CURVE SMOOTH",
"796 -83 OFFCURVE",
"786 -82 OFFCURVE",
"777 -81 CURVE SMOOTH",
"767 -80 OFFCURVE",
"756 -77 OFFCURVE",
"744 -74 CURVE SMOOTH",
"732 -70 OFFCURVE",
"723 -68 OFFCURVE",
"717 -66 CURVE SMOOTH",
"711 -64 OFFCURVE",
"700 -60 OFFCURVE",
"685 -54 CURVE SMOOTH",
"670 -49 OFFCURVE",
"661 -46 OFFCURVE",
"658 -44 CURVE",
"620 -31 OFFCURVE",
"587 -15 OFFCURVE",
"558 3 CURVE SMOOTH",
"510 32 OFFCURVE",
"459 73 OFFCURVE",
"407 125 CURVE SMOOTH",
"355 176 OFFCURVE",
"314 226 OFFCURVE",
"285 275 CURVE SMOOTH",
"267 304 OFFCURVE",
"251 338 OFFCURVE",
"238 375 CURVE",
"237 378 OFFCURVE",
"234 388 OFFCURVE",
"228 402 CURVE SMOOTH",
"223 417 OFFCURVE",
"219 428 OFFCURVE",
"217 434 CURVE SMOOTH",
"215 440 OFFCURVE",
"212 449 OFFCURVE",
"209 462 CURVE SMOOTH",
"205 474 OFFCURVE",
"203 485 OFFCURVE",
"202 494 CURVE SMOOTH",
"200 504 OFFCURVE",
"200 513 OFFCURVE",
"200 524 CURVE SMOOTH",
"200 558 OFFCURVE",
"209 593 OFFCURVE",
"228 629 CURVE SMOOTH",
"249 667 OFFCURVE",
"269 691 OFFCURVE",
"288 699 CURVE SMOOTH",
"298 703 OFFCURVE",
"311 707 OFFCURVE",
"327 711 CURVE SMOOTH",
"343 715 OFFCURVE",
"356 717 OFFCURVE",
"367 717 CURVE SMOOTH",
"372 717 OFFCURVE",
"376 716 OFFCURVE",
"379 715 CURVE",
"385 713 OFFCURVE",
"396 699 OFFCURVE",
"409 672 CURVE SMOOTH",
"413 665 OFFCURVE",
"419 655 OFFCURVE",
"427 642 CURVE SMOOTH",
"434 629 OFFCURVE",
"441 617 OFFCURVE",
"447 606 CURVE SMOOTH",
"453 595 OFFCURVE",
"459 585 OFFCURVE",
"464 576 CURVE",
"466 574 OFFCURVE",
"469 569 OFFCURVE",
"474 561 CURVE SMOOTH",
"480 553 OFFCURVE",
"484 546 OFFCURVE",
"487 541 CURVE SMOOTH",
"489 535 OFFCURVE",
"491 530 OFFCURVE",
"491 525 CURVE SMOOTH",
"491 517 OFFCURVE",
"485 508 OFFCURVE",
"474 496 CURVE SMOOTH",
"464 485 OFFCURVE",
"452 474 OFFCURVE",
"439 465 CURVE SMOOTH",
"426 455 OFFCURVE",
"414 445 OFFCURVE",
"403 434 CURVE SMOOTH",
"392 423 OFFCURVE",
"387 414 OFFCURVE",
"387 408 CURVE SMOOTH",
"387 404 OFFCURVE",
"388 400 OFFCURVE",
"390 394 CURVE SMOOTH",
"392 389 OFFCURVE",
"394 385 OFFCURVE",
"395 383 CURVE SMOOTH",
"396 381 OFFCURVE",
"399 377 OFFCURVE",
"403 370 CURVE SMOOTH",
"407 363 OFFCURVE",
"409 359 OFFCURVE",
"409 359 CURVE",
"438 307 OFFCURVE",
"471 263 OFFCURVE",
"508 225 CURVE SMOOTH",
"545 188 OFFCURVE",
"590 155 OFFCURVE",
"641 127 CURVE",
"642 126 OFFCURVE",
"646 124 OFFCURVE",
"652 121 CURVE SMOOTH",
"659 117 OFFCURVE",
"664 114 OFFCURVE",
"666 112 CURVE SMOOTH",
"668 110 OFFCURVE",
"671 109 OFFCURVE",
"677 107 CURVE SMOOTH",
"682 106 OFFCURVE",
"687 105 OFFCURVE",
"690 104 CURVE",
"697 104 OFFCURVE",
"706 110 OFFCURVE",
"717 121 CURVE SMOOTH",
"727 131 OFFCURVE",
"738 143 OFFCURVE",
"747 156 CURVE SMOOTH",
"757 169 OFFCURVE",
"767 181 OFFCURVE",
"779 192 CURVE SMOOTH",
"790 203 OFFCURVE",
"800 208 OFFCURVE",
"807 208 CURVE SMOOTH",
"813 208 OFFCURVE",
"818 207 OFFCURVE",
"824 204 CURVE SMOOTH",
"829 201 OFFCURVE",
"836 197 OFFCURVE",
"844 192 CURVE SMOOTH",
"852 186 OFFCURVE",
"857 183 OFFCURVE",
"858 182 CURVE",
"868 176 OFFCURVE",
"878 170 OFFCURVE",
"889 164 CURVE SMOOTH",
"899 158 OFFCURVE",
"911 151 OFFCURVE",
"924 144 CURVE SMOOTH",
"937 136 OFFCURVE",
"947 131 OFFCURVE",
"955 127 CURVE SMOOTH",
"981 113 OFFCURVE",
"996 103 OFFCURVE",
"998 96 CURVE",
"999 93 OFFCURVE",
"1000 89 OFFCURVE",
"1000 84 CURVE SMOOTH"
);
}
);
width = 1200;
}
);
unicode = 2006;
},
{
glyphname = uni2007;
lastChange = "2014-04-30 10:13:37 +0530";
layers = (
{
layerId = "9ECC7D36-9140-4F4B-A408-CD21EECD2CFD";
name = Regular;
paths = (
{
closed = 1;
nodes = (
"962 851 OFFCURVE",
"1036 777 OFFCURVE",
"1036 687 CURVE SMOOTH",
"1036 34 LINE SMOOTH",
"1036 -58 OFFCURVE",
"962 -131 OFFCURVE",
"872 -131 CURVE SMOOTH",
"328 -131 LINE SMOOTH",
"237 -131 OFFCURVE",
"164 -58 OFFCURVE",
"164 34 CURVE SMOOTH",
"164 687 LINE SMOOTH",
"164 777 OFFCURVE",
"237 851 OFFCURVE",
"328 851 CURVE SMOOTH",
"872 851 LINE SMOOTH"
);
},
{
closed = 1;
nodes = (
"925 687 LINE SMOOTH",
"925 716 OFFCURVE",
"901 742 OFFCURVE",
"872 742 CURVE SMOOTH",
"816 742 LINE",
"816 687 LINE SMOOTH",
"816 627 OFFCURVE",
"769 579 OFFCURVE",
"708 578 CURVE SMOOTH",
"489 578 LINE SMOOTH",
"430 578 OFFCURVE",
"382 628 OFFCURVE",
"381 687 CURVE",
"381 742 LINE",
"325 742 LINE SMOOTH",
"296 742 OFFCURVE",
"270 716 OFFCURVE",
"270 687 CURVE SMOOTH",
"270 34 LINE SMOOTH",
"270 5 OFFCURVE",
"296 -22 OFFCURVE",
"325 -22 CURVE SMOOTH",
"870 -22 LINE SMOOTH",
"899 -22 OFFCURVE",
"923 5 OFFCURVE",
"923 34 CURVE SMOOTH"
);
},
{
closed = 1;
nodes = (
"382 252 LINE SMOOTH",
"366 252 OFFCURVE",
"354 265 OFFCURVE",
"354 280 CURVE SMOOTH",
"354 298 OFFCURVE",
"363 306 OFFCURVE",
"381 306 CURVE SMOOTH",
"815 306 LINE SMOOTH",
"833 306 OFFCURVE",
"842 298 OFFCURVE",
"842 280 CURVE SMOOTH",
"842 265 OFFCURVE",
"830 252 OFFCURVE",
"814 252 CURVE SMOOTH"
);
},
{
closed = 1;
nodes = (
"382 415 LINE SMOOTH",
"364 415 OFFCURVE",
"355 423 OFFCURVE",
"355 441 CURVE SMOOTH",
"355 457 OFFCURVE",
"367 469 OFFCURVE",
"383 469 CURVE SMOOTH",
"817 469 LINE SMOOTH",
"833 469 OFFCURVE",
"846 457 OFFCURVE",
"846 441 CURVE SMOOTH",
"846 423 OFFCURVE",
"836 415 OFFCURVE",
"818 415 CURVE SMOOTH"
);
},
{
closed = 1;
nodes = (
"382 89 LINE SMOOTH",
"364 89 OFFCURVE",
"355 98 OFFCURVE",
"355 115 CURVE SMOOTH",
"355 131 OFFCURVE",
"367 144 OFFCURVE",
"383 144 CURVE SMOOTH",
"817 144 LINE SMOOTH",
"833 144 OFFCURVE",
"846 131 OFFCURVE",
"846 115 CURVE SMOOTH",
"846 98 OFFCURVE",
"836 89 OFFCURVE",
"818 89 CURVE SMOOTH"
);
},
{
closed = 1;
nodes = (
"435 742 LINE",
"435 687 LINE SMOOTH",
"435 657 OFFCURVE",
"461 631 OFFCURVE",
"490 631 CURVE SMOOTH",
"709 631 LINE SMOOTH",
"738 631 OFFCURVE",
"762 657 OFFCURVE",
"762 687 CURVE SMOOTH",
"762 742 LINE"
);
}
);
width = 1200;
}
);
unicode = 2007;
},
{
glyphname = uni2008;
lastChange = "2014-05-22 02:31:38 +0530";
layers = (
{
layerId = "9ECC7D36-9140-4F4B-A408-CD21EECD2CFD";
name = Regular;
paths = (
{
closed = 1;
nodes = (
"1200 960 LINE",
"1200 660 LINE",
"900 960 LINE"
);
}
);
width = 1200;
}
);
unicode = 2008;
},
{
glyphname = uni2009;
lastChange = "2014-05-24 19:45:06 +0530";
layers = (
{
layerId = "9ECC7D36-9140-4F4B-A408-CD21EECD2CFD";
name = Regular;
paths = (
{
closed = 1;
nodes = (
"596 694 LINE",
"552 716 OFFCURVE",
"502 728 OFFCURVE",
"451 728 CURVE SMOOTH",
"371 728 OFFCURVE",
"295 699 OFFCURVE",
"235 646 CURVE SMOOTH",
"110 536 OFFCURVE",
"90 351 OFFCURVE",
"181 217 CURVE",
"71 107 LINE SMOOTH",
"47 83 OFFCURVE",
"47 45 OFFCURVE",
"71 21 CURVE SMOOTH",
"83 9 OFFCURVE",
"99 3 OFFCURVE",
"114 3 CURVE SMOOTH",
"130 3 OFFCURVE",
"145 9 OFFCURVE",
"157 21 CURVE SMOOTH",
"267 132 LINE",
"321 95 OFFCURVE",
"385 74 OFFCURVE",
"451 74 CURVE SMOOTH",
"531 74 OFFCURVE",
"608 103 OFFCURVE",
"668 156 CURVE SMOOTH",
"733 214 OFFCURVE",
"772 294 OFFCURVE",
"778 381 CURVE SMOOTH",
"781 439 OFFCURVE",
"769 496 OFFCURVE",
"744 547 CURVE",
"847 797 LINE"
);
},
{
closed = 1;
nodes = (
"353 589 OFFCURVE",
"401 607 OFFCURVE",
"451 607 CURVE SMOOTH",
"510 607 OFFCURVE",
"566 582 OFFCURVE",
"605 537 CURVE SMOOTH",
"624 516 OFFCURVE",
"638 492 OFFCURVE",
"646 466 CURVE",
"524 466 LINE SMOOTH",
"509 466 OFFCURVE",
"497 454 OFFCURVE",
"497 439 CURVE SMOOTH",
"497 391 LINE",
"399 501 LINE SMOOTH",
"392 509 OFFCURVE",
"380 512 OFFCURVE",
"369 508 CURVE SMOOTH",
"359 504 OFFCURVE",
"352 494 OFFCURVE",
"352 483 CURVE SMOOTH",
"352 390 LINE",
"247 390 LINE",
"244 451 OFFCURVE",
"266 512 OFFCURVE",
"315 555 CURVE SMOOTH"
);
},
{
closed = 1;
nodes = (
"550 214 OFFCURVE",
"502 196 OFFCURVE",
"451 196 CURVE SMOOTH",
"393 196 OFFCURVE",
"336 221 OFFCURVE",
"297 265 CURVE SMOOTH",
"279 287 OFFCURVE",
"265 311 OFFCURVE",
"257 336 CURVE",
"379 336 LINE SMOOTH",
"394 336 OFFCURVE",
"406 348 OFFCURVE",
"406 363 CURVE SMOOTH",
"406 412 LINE",
"504 302 LINE SMOOTH",
"509 296 OFFCURVE",
"516 293 OFFCURVE",
"524 293 CURVE SMOOTH",
"527 293 OFFCURVE",
"530 294 OFFCURVE",
"534 295 CURVE SMOOTH",
"544 299 OFFCURVE",
"551 309 OFFCURVE",
"551 320 CURVE SMOOTH",
"551 412 LINE",
"656 412 LINE",
"656 405 OFFCURVE",
"657 397 OFFCURVE",
"656 389 CURVE SMOOTH",
"653 334 OFFCURVE",
"629 284 OFFCURVE",
"587 247 CURVE SMOOTH"
);
}
);
width = 900;
}
);
unicode = 2009;
},
{
glyphname = uni200A;
lastChange = "2014-05-28 09:57:23 +0530";
layers = (
{
layerId = "9ECC7D36-9140-4F4B-A408-CD21EECD2CFD";
name = Regular;
paths = (
{
closed = 1;
nodes = (
"507 -17 OFFCURVE",
"407 28 OFFCURVE",
"337 107 CURVE SMOOTH",
"202 259 OFFCURVE",
"217 492 OFFCURVE",
"369 626 CURVE SMOOTH",
"436 686 OFFCURVE",
"523 718 OFFCURVE",
"612 718 CURVE SMOOTH",
"718 718 OFFCURVE",
"818 673 OFFCURVE",
"888 594 CURVE SMOOTH",
"953 521 OFFCURVE",
"986 426 OFFCURVE",
"980 328 CURVE SMOOTH",
"974 230 OFFCURVE",
"930 140 OFFCURVE",
"856 75 CURVE SMOOTH",
"789 15 OFFCURVE",
"702 -17 OFFCURVE",
"613 -17 CURVE SMOOTH"
);
},
{
closed = 1;
nodes = (
"556 582 OFFCURVE",
"502 561 OFFCURVE",
"459 524 CURVE SMOOTH",
"364 439 OFFCURVE",
"355 293 OFFCURVE",
"439 197 CURVE SMOOTH",
"483 148 OFFCURVE",
"546 119 OFFCURVE",
"613 119 CURVE SMOOTH",
"669 119 OFFCURVE",
"723 140 OFFCURVE",
"766 177 CURVE SMOOTH",
"812 218 OFFCURVE",
"839 275 OFFCURVE",
"843 336 CURVE SMOOTH",
"847 398 OFFCURVE",
"827 457 OFFCURVE",
"786 504 CURVE SMOOTH",
"742 553 OFFCURVE",
"679 582 OFFCURVE",
"612 582 CURVE SMOOTH"
);
},
{
closed = 1;
nodes = (
"1058 796 LINE",
"911 440 LINE",
"702 650 LINE"
);
},
{
closed = 1;
nodes = (
"216 -97 OFFCURVE",
"198 -91 OFFCURVE",
"185 -77 CURVE SMOOTH",
"158 -50 OFFCURVE",
"158 -7 OFFCURVE",
"185 20 CURVE SMOOTH",
"352 187 LINE SMOOTH",
"379 214 OFFCURVE",
"422 214 OFFCURVE",
"449 187 CURVE SMOOTH",
"476 160 OFFCURVE",
"476 117 OFFCURVE",
"449 90 CURVE SMOOTH",
"281 -77 LINE SMOOTH",
"268 -91 OFFCURVE",
"251 -97 OFFCURVE",
"233 -97 CURVE SMOOTH"
);
}
);
width = 1200;
}
);
unicode = 200A;
},
{
glyphname = uni202F;
lastChange = "2014-05-24 20:24:29 +0530";
layers = (
{
layerId = "9ECC7D36-9140-4F4B-A408-CD21EECD2CFD";
name = Regular;
paths = (
{
closed = 1;
nodes = (
"601 905 OFFCURVE",
"600 905 OFFCURVE",
"599 905 CURVE SMOOTH",
"504 904 OFFCURVE",
"426 863 OFFCURVE",
"369 784 CURVE SMOOTH",
"320 717 OFFCURVE",
"303 639 OFFCURVE",
"310 555 CURVE SMOOTH",
"313 529 OFFCURVE",
"316 499 OFFCURVE",
"307 475 CURVE SMOOTH",
"292 436 OFFCURVE",
"269 400 OFFCURVE",
"247 364 CURVE SMOOTH",
"234 341 OFFCURVE",
"232 336 OFFCURVE",
"256 325 CURVE SMOOTH",
"291 309 OFFCURVE",
"327 293 OFFCURVE",
"364 281 CURVE SMOOTH",
"385 274 OFFCURVE",
"401 265 OFFCURVE",
"415 248 CURVE SMOOTH",
"426 235 OFFCURVE",
"438 224 OFFCURVE",
"449 213 CURVE SMOOTH",
"479 183 OFFCURVE",
"478 183 OFFCURVE",
"464 141 CURVE SMOOTH",
"455 113 OFFCURVE",
"441 92 OFFCURVE",
"415 80 CURVE SMOOTH",
"349 49 OFFCURVE",
"283 18 OFFCURVE",
"217 -13 CURVE SMOOTH",
"163 -38 OFFCURVE",
"107 -61 OFFCURVE",
"53 -88 CURVE SMOOTH",
"16 -106 OFFCURVE",
"0 -138 OFFCURVE",
"1 -182 CURVE SMOOTH",
"4 -265 OFFCURVE",
"3 -347 OFFCURVE",
"2 -430 CURVE SMOOTH",
"1 -449 OFFCURVE",
"6 -453 OFFCURVE",
"24 -453 CURVE",
"24 -453 OFFCURVE",
"24 -453 OFFCURVE",
"24 -453 CURVE SMOOTH",
"284 -453 OFFCURVE",
"544 -453 OFFCURVE",
"803 -453 CURVE SMOOTH",
"929 -453 OFFCURVE",
"1054 -453 OFFCURVE",
"1179 -453 CURVE SMOOTH",
"1185 -453 OFFCURVE",
"1190 -453 OFFCURVE",
"1199 -453 CURVE",
"1199 -444 OFFCURVE",
"1199 -438 OFFCURVE",
"1199 -431 CURVE SMOOTH",
"1199 -343 OFFCURVE",
"1198 -254 OFFCURVE",
"1200 -166 CURVE SMOOTH",
"1200 -136 OFFCURVE",
"1187 -116 OFFCURVE",
"1165 -100 CURVE SMOOTH",
"1155 -92 OFFCURVE",
"1144 -84 OFFCURVE",
"1132 -79 CURVE SMOOTH",
"1079 -57 OFFCURVE",
"1027 -34 OFFCURVE",
"973 -13 CURVE SMOOTH",
"904 15 OFFCURVE",
"834 41 OFFCURVE",
"772 84 CURVE SMOOTH",
"762 91 OFFCURVE",
"750 100 OFFCURVE",
"744 111 CURVE SMOOTH",
"733 133 OFFCURVE",
"726 157 OFFCURVE",
"721 170 CURVE",
"751 204 OFFCURVE",
"776 235 OFFCURVE",
"802 264 CURVE SMOOTH",
"809 272 OFFCURVE",
"819 277 OFFCURVE",
"828 281 CURVE SMOOTH",
"865 298 OFFCURVE",
"903 313 OFFCURVE",
"940 330 CURVE SMOOTH",
"956 336 OFFCURVE",
"954 346 OFFCURVE",
"946 360 CURVE SMOOTH",
"925 393 OFFCURVE",
"906 426 OFFCURVE",
"887 460 CURVE SMOOTH",
"883 465 OFFCURVE",
"882 473 OFFCURVE",
"882 479 CURVE SMOOTH",
"883 500 OFFCURVE",
"884 521 OFFCURVE",
"887 542 CURVE SMOOTH",
"893 596 OFFCURVE",
"888 649 OFFCURVE",
"871 701 CURVE SMOOTH",
"833 820 OFFCURVE",
"722 905 OFFCURVE",
"602 905 CURVE SMOOTH"
);
}
);
width = 1200;
}
);
unicode = 202F;
},
{
glyphname = Euro;
layers = (
{
layerId = "9ECC7D36-9140-4F4B-A408-CD21EECD2CFD";
name = Regular;
paths = (
{
closed = 1;
nodes = (
"100 500 LINE",
"200 600 LINE",
"313 600 LINE",
"313 631 OFFCURVE",
"315 665 OFFCURVE",
"318 700 CURVE",
"100 700 LINE",
"200 800 LINE",
"335 800 LINE",
"384 1023 OFFCURVE",
"504 1198 OFFCURVE",
"744 1198 CURVE SMOOTH",
"905 1198 OFFCURVE",
"1023 1135 OFFCURVE",
"1098 1009 CURVE SMOOTH",
"1138 940 OFFCURVE",
"1160 871 OFFCURVE",
"1164 800 CURVE",
"983 800 LINE",
"983 873 OFFCURVE",
"945 935 OFFCURVE",
"894 967 CURVE SMOOTH",
"843 999 OFFCURVE",
"792 1016 OFFCURVE",
"752 1016 CURVE SMOOTH",
"720 1016 OFFCURVE",
"682 1003 OFFCURVE",
"637 974 CURVE SMOOTH",
"592 945 OFFCURVE",
"546 883 OFFCURVE",
"521 800 CURVE",
"900 800 LINE",
"800 700 LINE",
"500 700 LINE",
"496 669 OFFCURVE",
"494 636 OFFCURVE",
"494 600 CURVE",
"900 600 LINE",
"800 500 LINE",
"500 500 LINE",
"512 401 OFFCURVE",
"548 321 OFFCURVE",
"586 277 CURVE SMOOTH",
"624 233 OFFCURVE",
"673 204 OFFCURVE",
"707 194 CURVE SMOOTH",
"724 189 OFFCURVE",
"739 186 OFFCURVE",
"753 186 CURVE SMOOTH",
"792 186 OFFCURVE",
"843 204 OFFCURVE",
"894 236 CURVE SMOOTH",
"945 268 OFFCURVE",
"983 329 OFFCURVE",
"983 400 CURVE",
"1157 400 LINE",
"1116 171 OFFCURVE",
"978 5 OFFCURVE",
"755 5 CURVE SMOOTH",
"618 5 OFFCURVE",
"510 58 OFFCURVE",
"431 163 CURVE SMOOTH",
"383 224 OFFCURVE",
"333 340 OFFCURVE",
"317 500 CURVE"
);
}
);
width = 1200;
}
);
unicode = 20AC;
},
{
glyphname = minus;
layers = (
{
layerId = "9ECC7D36-9140-4F4B-A408-CD21EECD2CFD";
name = Regular;
paths = (
{
closed = 1;
nodes = (
"200 400 LINE",
"1100 400 LINE",
"1100 700 LINE",
"200 700 LINE"
);
}
);
width = 1200;
}
);
unicode = 2212;
},
{
glyphname = uni2601;
layers = (
{
layerId = "9ECC7D36-9140-4F4B-A408-CD21EECD2CFD";
name = Regular;
paths = (
{
closed = 1;
nodes = (
"-14 387 OFFCURVE",
"73 300 OFFCURVE",
"178 300 CURVE SMOOTH",
"928 300 LINE SMOOTH",
"1088 300 OFFCURVE",
"1218 433 OFFCURVE",
"1218 594 CURVE SMOOTH",
"1218 755 OFFCURVE",
"1088 887 OFFCURVE",
"928 887 CURVE SMOOTH",
"897 887 OFFCURVE",
"867 882 OFFCURVE",
"838 873 CURVE",
"779 1002 OFFCURVE",
"650 1089 OFFCURVE",
"503 1089 CURVE SMOOTH",
"300 1089 OFFCURVE",
"135 925 OFFCURVE",
"135 721 CURVE SMOOTH",
"135 704 OFFCURVE",
"136 692 OFFCURVE",
"137 684 CURVE",
"49 665 OFFCURVE",
"-14 586 OFFCURVE",
"-14 494 CURVE SMOOTH"
);
}
);
width = 1200;
}
);
unicode = 2601;
},
{
glyphname = uni2709;
layers = (
{
layerId = "9ECC7D36-9140-4F4B-A408-CD21EECD2CFD";
name = Regular;
paths = (
{
closed = 1;
nodes = (
"0 100 LINE",
"400 500 LINE",
"600 300 LINE",
"800 500 LINE",
"1200 100 LINE"
);
},
{
closed = 1;
nodes = (
"0 300 LINE",
"0 900 LINE",
"300 600 LINE"
);
},
{
closed = 1;
nodes = (
"0 1100 LINE",
"600 497 LINE",
"1200 1100 LINE"
);
},
{
closed = 1;
nodes = (
"900 600 LINE",
"1200 900 LINE",
"1200 300 LINE"
);
}
);
width = 1200;
}
);
unicode = 2709;
},
{
glyphname = uni270F;
layers = (
{
layerId = "9ECC7D36-9140-4F4B-A408-CD21EECD2CFD";
name = Regular;
paths = (
{
closed = 1;
nodes = (
"-13 -13 LINE",
"320 99 LINE",
"97 322 LINE"
);
},
{
closed = 1;
nodes = (
"187 403 LINE",
"401 189 LINE",
"1015 803 LINE",
"801 1017 LINE"
);
},
{
closed = 1;
nodes = (
"887 1103 LINE",
"1101 889 LINE",
"1200 981 LINE",
"1209 990 OFFCURVE",
"1213 1001 OFFCURVE",
"1213 1014 CURVE SMOOTH",
"1213 1027 OFFCURVE",
"1209 1038 OFFCURVE",
"1200 1047 CURVE SMOOTH",
"1047 1200 LINE",
"1037 1209 OFFCURVE",
"1026 1213 OFFCURVE",
"1014 1213 CURVE SMOOTH",
"1002 1213 OFFCURVE",
"991 1209 OFFCURVE",
"981 1200 CURVE"
);
}
);
width = 1200;
}
);
unicode = 270F;
},
{
glyphname = uniE001;
layers = (
{
layerId = "9ECC7D36-9140-4F4B-A408-CD21EECD2CFD";
name = Regular;
paths = (
{
closed = 1;
nodes = (
"0 1200 LINE",
"1200 1200 LINE",
"700 650 LINE",
"700 100 LINE",
"1000 100 LINE",
"1000 0 LINE",
"200 0 LINE",
"200 100 LINE",
"500 100 LINE",
"500 650 LINE"
);
}
);
width = 1200;
}
);
unicode = E001;
},
{
glyphname = uniE002;
layers = (
{
layerId = "9ECC7D36-9140-4F4B-A408-CD21EECD2CFD";
name = Regular;
paths = (
{
closed = 1;
nodes = (
"-18 120 OFFCURVE",
"9 36 OFFCURVE",
"100 9 CURVE SMOOTH",
"191 -19 OFFCURVE",
"297 19 OFFCURVE",
"356 83 CURVE SMOOTH",
"385 115 OFFCURVE",
"400 145 OFFCURVE",
"400 173 CURVE SMOOTH",
"400 779 LINE",
"1000 934 LINE",
"1000 413 LINE",
"915 434 OFFCURVE",
"798 399 OFFCURVE",
"740 323 CURVE SMOOTH",
"682 247 OFFCURVE",
"709 164 OFFCURVE",
"800 137 CURVE SMOOTH",
"891 109 OFFCURVE",
"1003 151 OFFCURVE",
"1059 205 CURVE SMOOTH",
"1086 232 OFFCURVE",
"1100 263 OFFCURVE",
"1100 300 CURVE SMOOTH",
"1100 1181 LINE SMOOTH",
"1100 1194 OFFCURVE",
"1089 1203 OFFCURVE",
"1076 1199 CURVE",
"324 1006 LINE",
"311 1002 OFFCURVE",
"300 987 OFFCURVE",
"300 974 CURVE SMOOTH",
"300 285 LINE",
"215 308 OFFCURVE",
"98 272 OFFCURVE",
"40 196 CURVE SMOOTH"
);
}
);
width = 1200;
}
);
unicode = E002;
},
{
glyphname = uniE003;
layers = (
{
layerId = "9ECC7D36-9140-4F4B-A408-CD21EECD2CFD";
name = Regular;
paths = (
{
closed = 1;
nodes = (
"70 446 OFFCURVE",
"23 560 OFFCURVE",
"23 693 CURVE SMOOTH",
"23 960 OFFCURVE",
"240 1177 OFFCURVE",
"507 1177 CURVE SMOOTH",
"774 1177 OFFCURVE",
"991 960 OFFCURVE",
"991 693 CURVE SMOOTH",
"991 598 OFFCURVE",
"965 511 OFFCURVE",
"913 432 CURVE",
"1213 132 LINE SMOOTH",
"1218 127 OFFCURVE",
"1220 121 OFFCURVE",
"1220 114 CURVE SMOOTH",
"1220 107 OFFCURVE",
"1218 101 OFFCURVE",
"1213 96 CURVE SMOOTH",
"1104 -13 LINE SMOOTH",
"1099 -18 OFFCURVE",
"1093 -20 OFFCURVE",
"1086 -20 CURVE SMOOTH",
"1079 -20 OFFCURVE",
"1073 -18 OFFCURVE",
"1068 -13 CURVE SMOOTH",
"768 287 LINE",
"689 235 OFFCURVE",
"602 209 OFFCURVE",
"507 209 CURVE SMOOTH",
"374 209 OFFCURVE",
"260 256 OFFCURVE",
"165 351 CURVE SMOOTH"
);
},
{
closed = 1;
nodes = (
"208 861 OFFCURVE",
"176 784 OFFCURVE",
"176 693 CURVE SMOOTH",
"176 512 OFFCURVE",
"324 363 OFFCURVE",
"507 363 CURVE SMOOTH",
"690 363 OFFCURVE",
"837 510 OFFCURVE",
"837 693 CURVE SMOOTH",
"837 876 OFFCURVE",
"690 1023 OFFCURVE",
"507 1023 CURVE SMOOTH",
"416 1023 OFFCURVE",
"338 991 OFFCURVE",
"273 926 CURVE SMOOTH"
);
}
);
width = 1200;
}
);
unicode = E003;
},
{
glyphname = uniE005;
layers = (
{
layerId = "9ECC7D36-9140-4F4B-A408-CD21EECD2CFD";
name = Regular;
paths = (
{
closed = 1;
nodes = (
"100 869 OFFCURVE",
"141 952 OFFCURVE",
"201 1008 CURVE SMOOTH",
"261 1063 OFFCURVE",
"345 1095 OFFCURVE",
"425 1092 CURVE SMOOTH",
"504 1089 OFFCURVE",
"590 1040 OFFCURVE",
"649 949 CURVE",
"713 1041 OFFCURVE",
"800 1089 OFFCURVE",
"880 1092 CURVE SMOOTH",
"960 1095 OFFCURVE",
"1042 1063 OFFCURVE",
"1101 1008 CURVE SMOOTH",
"1160 952 OFFCURVE",
"1199 869 OFFCURVE",
"1199 784 CURVE SMOOTH",
"1199 708 OFFCURVE",
"1152 627 OFFCURVE",
"1072 542 CURVE SMOOTH",
"1031 499 OFFCURVE",
"989 457 OFFCURVE",
"945 415 CURVE SMOOTH",
"857 330 OFFCURVE",
"732 201 OFFCURVE",
"649 88 CURVE",
"566 201 OFFCURVE",
"442 330 OFFCURVE",
"354 415 CURVE SMOOTH",
"266 499 OFFCURVE",
"178 586 OFFCURVE",
"134 667 CURVE SMOOTH",
"111 707 OFFCURVE",
"100 746 OFFCURVE",
"100 784 CURVE SMOOTH"
);
}
);
width = 1200;
}
);
unicode = E005;
},
{
glyphname = uniE006;
layers = (
{
layerId = "9ECC7D36-9140-4F4B-A408-CD21EECD2CFD";
name = Regular;
paths = (
{
closed = 1;
nodes = (
"-72 800 LINE",
"407 800 LINE",
"553 1200 LINE",
"555 1200 LINE",
"701 800 LINE",
"1173 800 LINE",
"791 522 LINE",
"936 73 LINE",
"552 348 LINE",
"170 73 LINE",
"316 520 LINE"
);
},
{
closed = 1;
nodes = (
"168 71 LINE",
"170 72 LINE"
);
}
);
width = 1200;
}
);
unicode = E006;
},
{
glyphname = uniE007;
layers = (
{
layerId = "9ECC7D36-9140-4F4B-A408-CD21EECD2CFD";
name = Regular;
paths = (
{
closed = 1;
nodes = (
"-72 800 LINE",
"407 800 LINE",
"553 1200 LINE",
"555 1200 LINE",
"701 800 LINE",
"1173 800 LINE",
"791 522 LINE",
"936 73 LINE",
"552 348 LINE",
"170 73 LINE",
"316 520 LINE"
);
},
{
closed = 1;
nodes = (
"168 71 LINE",
"170 72 LINE"
);
},
{
closed = 1;
nodes = (
"237 700 LINE",
"433 558 LINE",
"360 332 LINE",
"552 472 LINE",
"747 331 LINE",
"673 560 LINE",
"866 700 LINE",
"631 700 LINE",
"554 911 LINE",
"476 700 LINE"
);
}
);
width = 1200;
}
);
unicode = E007;
},
{
glyphname = uniE008;
lastChange = "2014-05-24 20:23:26 +0530";
layers = (
{
layerId = "9ECC7D36-9140-4F4B-A408-CD21EECD2CFD";
name = Regular;
paths = (
{
closed = 1;
nodes = (
"584 882 OFFCURVE",
"568 882 OFFCURVE",
"552 874 CURVE SMOOTH",
"424 850 OFFCURVE",
"336 738 OFFCURVE",
"336 602 CURVE SMOOTH",
"336 578 OFFCURVE",
"336 562 OFFCURVE",
"336 546 CURVE",
"320 530 OFFCURVE",
"304 522 OFFCURVE",
"304 514 CURVE SMOOTH",
"296 498 OFFCURVE",
"296 474 OFFCURVE",
"296 458 CURVE SMOOTH",
"296 402 OFFCURVE",
"304 354 OFFCURVE",
"352 314 CURVE SMOOTH",
"360 314 OFFCURVE",
"360 306 OFFCURVE",
"360 306 CURVE SMOOTH",
"376 274 OFFCURVE",
"384 250 OFFCURVE",
"400 226 CURVE SMOOTH",
"416 202 OFFCURVE",
"440 178 OFFCURVE",
"464 154 CURVE",
"440 106 OFFCURVE",
"416 66 OFFCURVE",
"368 42 CURVE SMOOTH",
"328 26 OFFCURVE",
"280 10 OFFCURVE",
"240 -14 CURVE SMOOTH",
"184 -38 OFFCURVE",
"120 -62 OFFCURVE",
"56 -94 CURVE SMOOTH",
"16 -110 OFFCURVE",
"0 -150 OFFCURVE",
"0 -198 CURVE SMOOTH",
"0 -286 OFFCURVE",
"0 -366 OFFCURVE",
"0 -454 CURVE SMOOTH",
"0 -478 OFFCURVE",
"8 -478 OFFCURVE",
"24 -478 CURVE",
"24 -478 OFFCURVE",
"24 -478 OFFCURVE",
"24 -478 CURVE SMOOTH",
"280 -478 OFFCURVE",
"544 -478 OFFCURVE",
"800 -478 CURVE SMOOTH",
"928 -478 OFFCURVE",
"1056 -478 OFFCURVE",
"1176 -478 CURVE SMOOTH",
"1184 -478 OFFCURVE",
"1192 -478 OFFCURVE",
"1200 -478 CURVE",
"1200 -470 OFFCURVE",
"1200 -462 OFFCURVE",
"1200 -462 CURVE SMOOTH",
"1200 -366 OFFCURVE",
"1200 -270 OFFCURVE",
"1200 -174 CURVE SMOOTH",
"1200 -150 OFFCURVE",
"1192 -134 OFFCURVE",
"1176 -126 CURVE SMOOTH",
"1152 -102 OFFCURVE",
"1120 -86 OFFCURVE",
"1088 -70 CURVE SMOOTH",
"1016 -38 OFFCURVE",
"936 -6 OFFCURVE",
"856 26 CURVE SMOOTH",
"800 50 OFFCURVE",
"760 90 OFFCURVE",
"736 146 CURVE",
"736 154 OFFCURVE",
"736 154 OFFCURVE",
"736 154 CURVE SMOOTH",
"784 194 OFFCURVE",
"832 250 OFFCURVE",
"848 314 CURVE SMOOTH",
"848 314 OFFCURVE",
"848 322 OFFCURVE",
"856 322 CURVE SMOOTH",
"896 362 OFFCURVE",
"912 418 OFFCURVE",
"904 474 CURVE SMOOTH",
"904 506 OFFCURVE",
"896 530 OFFCURVE",
"864 538 CURVE",
"864 578 OFFCURVE",
"864 610 OFFCURVE",
"856 650 CURVE SMOOTH",
"840 794 OFFCURVE",
"728 882 OFFCURVE",
"600 882 CURVE SMOOTH"
);
}
);
width = 1200;
}
);
unicode = E008;
},
{
glyphname = uniE009;
layers = (
{
layerId = "9ECC7D36-9140-4F4B-A408-CD21EECD2CFD";
name = Regular;
paths = (
{
closed = 1;
nodes = (
"0 0 LINE",
"0 1100 LINE",
"1200 1100 LINE",
"1200 0 LINE"
);
},
{
closed = 1;
nodes = (
"100 100 LINE",
"200 100 LINE",
"200 200 LINE",
"100 200 LINE"
);
},
{
closed = 1;
nodes = (
"100 300 LINE",
"200 300 LINE",
"200 400 LINE",
"100 400 LINE"
);
},
{
closed = 1;
nodes = (
"100 500 LINE",
"200 500 LINE",
"200 600 LINE",
"100 600 LINE"
);
},
{
closed = 1;
nodes = (
"100 700 LINE",
"200 700 LINE",
"200 800 LINE",
"100 800 LINE"
);
},
{
closed = 1;
nodes = (
"100 900 LINE",
"200 900 LINE",
"200 1000 LINE",
"100 1000 LINE"
);
},
{
closed = 1;
nodes = (
"300 100 LINE",
"900 100 LINE",
"900 500 LINE",
"300 500 LINE"
);
},
{
closed = 1;
nodes = (
"300 600 LINE",
"900 600 LINE",
"900 1000 LINE",
"300 1000 LINE"
);
},
{
closed = 1;
nodes = (
"1000 100 LINE",
"1100 100 LINE",
"1100 200 LINE",
"1000 200 LINE"
);
},
{
closed = 1;
nodes = (
"1000 300 LINE",
"1100 300 LINE",
"1100 400 LINE",
"1000 400 LINE"
);
},
{
closed = 1;
nodes = (
"1000 500 LINE",
"1100 500 LINE",
"1100 600 LINE",
"1000 600 LINE"
);
},
{
closed = 1;
nodes = (
"1000 700 LINE",
"1100 700 LINE",
"1100 800 LINE",
"1000 800 LINE"
);
},
{
closed = 1;
nodes = (
"1000 900 LINE",
"1100 900 LINE",
"1100 1000 LINE",
"1000 1000 LINE"
);
}
);
width = 1200;
}
);
unicode = E009;
},
{
glyphname = uniE010;
layers = (
{
layerId = "9ECC7D36-9140-4F4B-A408-CD21EECD2CFD";
name = Regular;
paths = (
{
closed = 1;
nodes = (
"0 450 LINE SMOOTH",
"0 478 OFFCURVE",
"22 500 OFFCURVE",
"50 500 CURVE SMOOTH",
"450 500 LINE SMOOTH",
"478 500 OFFCURVE",
"500 478 OFFCURVE",
"500 450 CURVE SMOOTH",
"500 50 LINE SMOOTH",
"500 22 OFFCURVE",
"478 0 OFFCURVE",
"450 0 CURVE SMOOTH",
"50 0 LINE SMOOTH",
"22 0 OFFCURVE",
"0 22 OFFCURVE",
"0 50 CURVE SMOOTH"
);
},
{
closed = 1;
nodes = (
"0 1050 LINE SMOOTH",
"0 1078 OFFCURVE",
"22 1100 OFFCURVE",
"50 1100 CURVE SMOOTH",
"450 1100 LINE SMOOTH",
"478 1100 OFFCURVE",
"500 1078 OFFCURVE",
"500 1050 CURVE SMOOTH",
"500 650 LINE SMOOTH",
"500 622 OFFCURVE",
"478 600 OFFCURVE",
"450 600 CURVE SMOOTH",
"50 600 LINE SMOOTH",
"22 600 OFFCURVE",
"0 622 OFFCURVE",
"0 650 CURVE SMOOTH"
);
},
{
closed = 1;
nodes = (
"600 450 LINE SMOOTH",
"600 478 OFFCURVE",
"622 500 OFFCURVE",
"650 500 CURVE SMOOTH",
"1050 500 LINE SMOOTH",
"1078 500 OFFCURVE",
"1100 478 OFFCURVE",
"1100 450 CURVE SMOOTH",
"1100 50 LINE SMOOTH",
"1100 22 OFFCURVE",
"1078 0 OFFCURVE",
"1050 0 CURVE SMOOTH",
"650 0 LINE SMOOTH",
"622 0 OFFCURVE",
"600 22 OFFCURVE",
"600 50 CURVE SMOOTH"
);
},
{
closed = 1;
nodes = (
"600 1050 LINE SMOOTH",
"600 1078 OFFCURVE",
"622 1100 OFFCURVE",
"650 1100 CURVE SMOOTH",
"1050 1100 LINE SMOOTH",
"1078 1100 OFFCURVE",
"1100 1078 OFFCURVE",
"1100 1050 CURVE SMOOTH",
"1100 650 LINE SMOOTH",
"1100 622 OFFCURVE",
"1078 600 OFFCURVE",
"1050 600 CURVE SMOOTH",
"650 600 LINE SMOOTH",
"622 600 OFFCURVE",
"600 622 OFFCURVE",
"600 650 CURVE SMOOTH"
);
}
);
width = 1200;
}
);
unicode = E010;
},
{
glyphname = uniE011;
layers = (
{
layerId = "9ECC7D36-9140-4F4B-A408-CD21EECD2CFD";
name = Regular;
paths = (
{
closed = 1;
nodes = (
"0 250 LINE SMOOTH",
"0 278 OFFCURVE",
"22 300 OFFCURVE",
"50 300 CURVE SMOOTH",
"250 300 LINE SMOOTH",
"278 300 OFFCURVE",
"300 278 OFFCURVE",
"300 250 CURVE SMOOTH",
"300 50 LINE SMOOTH",
"300 22 OFFCURVE",
"278 0 OFFCURVE",
"250 0 CURVE SMOOTH",
"50 0 LINE SMOOTH",
"22 0 OFFCURVE",
"0 22 OFFCURVE",
"0 50 CURVE SMOOTH"
);
},
{
closed = 1;
nodes = (
"0 650 LINE SMOOTH",
"0 678 OFFCURVE",
"22 700 OFFCURVE",
"50 700 CURVE SMOOTH",
"250 700 LINE SMOOTH",
"278 700 OFFCURVE",
"300 678 OFFCURVE",
"300 650 CURVE SMOOTH",
"300 450 LINE SMOOTH",
"300 422 OFFCURVE",
"278 400 OFFCURVE",
"250 400 CURVE SMOOTH",
"50 400 LINE SMOOTH",
"22 400 OFFCURVE",
"0 422 OFFCURVE",
"0 450 CURVE SMOOTH"
);
},
{
closed = 1;
nodes = (
"0 1050 LINE SMOOTH",
"0 1078 OFFCURVE",
"22 1100 OFFCURVE",
"50 1100 CURVE SMOOTH",
"250 1100 LINE SMOOTH",
"278 1100 OFFCURVE",
"300 1078 OFFCURVE",
"300 1050 CURVE SMOOTH",
"300 850 LINE SMOOTH",
"300 822 OFFCURVE",
"278 800 OFFCURVE",
"250 800 CURVE SMOOTH",
"50 800 LINE SMOOTH",
"22 800 OFFCURVE",
"0 822 OFFCURVE",
"0 850 CURVE SMOOTH"
);
},
{
closed = 1;
nodes = (
"400 250 LINE SMOOTH",
"400 278 OFFCURVE",
"422 300 OFFCURVE",
"450 300 CURVE SMOOTH",
"650 300 LINE SMOOTH",
"678 300 OFFCURVE",
"700 278 OFFCURVE",
"700 250 CURVE SMOOTH",
"700 50 LINE SMOOTH",
"700 22 OFFCURVE",
"678 0 OFFCURVE",
"650 0 CURVE SMOOTH",
"450 0 LINE SMOOTH",
"422 0 OFFCURVE",
"400 22 OFFCURVE",
"400 50 CURVE SMOOTH"
);
},
{
closed = 1;
nodes = (
"400 650 LINE SMOOTH",
"400 678 OFFCURVE",
"422 700 OFFCURVE",
"450 700 CURVE SMOOTH",
"650 700 LINE SMOOTH",
"678 700 OFFCURVE",
"700 678 OFFCURVE",
"700 650 CURVE SMOOTH",
"700 450 LINE SMOOTH",
"700 422 OFFCURVE",
"678 400 OFFCURVE",
"650 400 CURVE SMOOTH",
"450 400 LINE SMOOTH",
"422 400 OFFCURVE",
"400 422 OFFCURVE",
"400 450 CURVE SMOOTH"
);
},
{
closed = 1;
nodes = (
"400 1050 LINE SMOOTH",
"400 1078 OFFCURVE",
"422 1100 OFFCURVE",
"450 1100 CURVE SMOOTH",
"650 1100 LINE SMOOTH",
"678 1100 OFFCURVE",
"700 1078 OFFCURVE",
"700 1050 CURVE SMOOTH",
"700 850 LINE SMOOTH",
"700 822 OFFCURVE",
"678 800 OFFCURVE",
"650 800 CURVE SMOOTH",
"450 800 LINE SMOOTH",
"422 800 OFFCURVE",
"400 822 OFFCURVE",
"400 850 CURVE SMOOTH"
);
},
{
closed = 1;
nodes = (
"800 250 LINE SMOOTH",
"800 278 OFFCURVE",
"822 300 OFFCURVE",
"850 300 CURVE SMOOTH",
"1050 300 LINE SMOOTH",
"1078 300 OFFCURVE",
"1100 278 OFFCURVE",
"1100 250 CURVE SMOOTH",
"1100 50 LINE SMOOTH",
"1100 22 OFFCURVE",
"1078 0 OFFCURVE",
"1050 0 CURVE SMOOTH",
"850 0 LINE SMOOTH",
"822 0 OFFCURVE",
"800 22 OFFCURVE",
"800 50 CURVE SMOOTH"
);
},
{
closed = 1;
nodes = (
"800 650 LINE SMOOTH",
"800 678 OFFCURVE",
"822 700 OFFCURVE",
"850 700 CURVE SMOOTH",
"1050 700 LINE SMOOTH",
"1078 700 OFFCURVE",
"1100 678 OFFCURVE",
"1100 650 CURVE SMOOTH",
"1100 450 LINE SMOOTH",
"1100 422 OFFCURVE",
"1078 400 OFFCURVE",
"1050 400 CURVE SMOOTH",
"850 400 LINE SMOOTH",
"822 400 OFFCURVE",
"800 422 OFFCURVE",
"800 450 CURVE SMOOTH"
);
},
{
closed = 1;
nodes = (
"800 1050 LINE SMOOTH",
"800 1078 OFFCURVE",
"822 1100 OFFCURVE",
"850 1100 CURVE SMOOTH",
"1050 1100 LINE SMOOTH",
"1078 1100 OFFCURVE",
"1100 1078 OFFCURVE",
"1100 1050 CURVE SMOOTH",
"1100 850 LINE SMOOTH",
"1100 822 OFFCURVE",
"1078 800 OFFCURVE",
"1050 800 CURVE SMOOTH",
"850 800 LINE SMOOTH",
"822 800 OFFCURVE",
"800 822 OFFCURVE",
"800 850 CURVE SMOOTH"
);
}
);
width = 1200;
}
);
unicode = E011;
},
{
glyphname = uniE012;
layers = (
{
layerId = "9ECC7D36-9140-4F4B-A408-CD21EECD2CFD";
name = Regular;
paths = (
{
closed = 1;
nodes = (
"0 250 LINE SMOOTH",
"0 278 OFFCURVE",
"22 300 OFFCURVE",
"50 300 CURVE SMOOTH",
"250 300 LINE SMOOTH",
"278 300 OFFCURVE",
"300 278 OFFCURVE",
"300 250 CURVE SMOOTH",
"300 50 LINE SMOOTH",
"300 22 OFFCURVE",
"278 0 OFFCURVE",
"250 0 CURVE SMOOTH",
"50 0 LINE SMOOTH",
"22 0 OFFCURVE",
"0 22 OFFCURVE",
"0 50 CURVE SMOOTH"
);
},
{
closed = 1;
nodes = (
"0 450 LINE SMOOTH",
"0 422 OFFCURVE",
"22 400 OFFCURVE",
"50 400 CURVE SMOOTH",
"250 400 LINE SMOOTH",
"278 400 OFFCURVE",
"300 422 OFFCURVE",
"300 450 CURVE SMOOTH",
"300 650 LINE SMOOTH",
"300 678 OFFCURVE",
"278 700 OFFCURVE",
"250 700 CURVE SMOOTH",
"50 700 LINE SMOOTH",
"22 700 OFFCURVE",
"0 678 OFFCURVE",
"0 650 CURVE SMOOTH"
);
},
{
closed = 1;
nodes = (
"0 1050 LINE SMOOTH",
"0 1078 OFFCURVE",
"22 1100 OFFCURVE",
"50 1100 CURVE SMOOTH",
"250 1100 LINE SMOOTH",
"278 1100 OFFCURVE",
"300 1078 OFFCURVE",
"300 1050 CURVE SMOOTH",
"300 850 LINE SMOOTH",
"300 822 OFFCURVE",
"278 800 OFFCURVE",
"250 800 CURVE SMOOTH",
"50 800 LINE SMOOTH",
"22 800 OFFCURVE",
"0 822 OFFCURVE",
"0 850 CURVE SMOOTH"
);
},
{
closed = 1;
nodes = (
"400 250 LINE SMOOTH",
"400 278 OFFCURVE",
"422 300 OFFCURVE",
"450 300 CURVE SMOOTH",
"1150 300 LINE SMOOTH",
"1178 300 OFFCURVE",
"1200 278 OFFCURVE",
"1200 250 CURVE SMOOTH",
"1200 50 LINE SMOOTH",
"1200 22 OFFCURVE",
"1178 0 OFFCURVE",
"1150 0 CURVE SMOOTH",
"450 0 LINE SMOOTH",
"422 0 OFFCURVE",
"400 22 OFFCURVE",
"400 50 CURVE SMOOTH"
);
},
{
closed = 1;
nodes = (
"400 650 LINE SMOOTH",
"400 678 OFFCURVE",
"422 700 OFFCURVE",
"450 700 CURVE SMOOTH",
"1150 700 LINE SMOOTH",
"1178 700 OFFCURVE",
"1200 678 OFFCURVE",
"1200 650 CURVE SMOOTH",
"1200 450 LINE SMOOTH",
"1200 422 OFFCURVE",
"1178 400 OFFCURVE",
"1150 400 CURVE SMOOTH",
"450 400 LINE SMOOTH",
"422 400 OFFCURVE",
"400 422 OFFCURVE",
"400 450 CURVE SMOOTH"
);
},
{
closed = 1;
nodes = (
"400 1050 LINE SMOOTH",
"400 1078 OFFCURVE",
"422 1100 OFFCURVE",
"450 1100 CURVE SMOOTH",
"1150 1100 LINE SMOOTH",
"1178 1100 OFFCURVE",
"1200 1078 OFFCURVE",
"1200 1050 CURVE SMOOTH",
"1200 850 LINE SMOOTH",
"1200 822 OFFCURVE",
"1178 800 OFFCURVE",
"1150 800 CURVE SMOOTH",
"450 800 LINE SMOOTH",
"422 800 OFFCURVE",
"400 822 OFFCURVE",
"400 850 CURVE SMOOTH"
);
}
);
width = 1200;
}
);
unicode = E012;
},
{
glyphname = uniE013;
layers = (
{
layerId = "9ECC7D36-9140-4F4B-A408-CD21EECD2CFD";
name = Regular;
paths = (
{
closed = 1;
nodes = (
"29 454 LINE",
"448 34 LINE",
"1266 854 LINE",
"1054 1066 LINE",
"447 459 LINE",
"241 666 LINE"
);
}
);
width = 1200;
}
);
unicode = E013;
},
{
glyphname = uniE014;
lastChange = "2014-04-30 09:49:21 +0530";
layers = (
{
layerId = "9ECC7D36-9140-4F4B-A408-CD21EECD2CFD";
name = Regular;
paths = (
{
closed = 1;
nodes = (
"106 69 LINE",
"388 351 LINE",
"106 633 LINE",
"318 845 LINE",
"600 563 LINE",
"882 845 LINE",
"1094 633 LINE",
"812 351 LINE",
"1094 69 LINE",
"882 -143 LINE",
"600 139 LINE",
"318 -143 LINE"
);
}
);
width = 1200;
}
);
unicode = E014;
},
{
glyphname = uniE015;
layers = (
{
layerId = "9ECC7D36-9140-4F4B-A408-CD21EECD2CFD";
name = Regular;
paths = (
{
closed = 1;
nodes = (
"70 446 OFFCURVE",
"23 560 OFFCURVE",
"23 693 CURVE SMOOTH",
"23 960 OFFCURVE",
"240 1177 OFFCURVE",
"507 1177 CURVE SMOOTH",
"774 1177 OFFCURVE",
"991 960 OFFCURVE",
"991 693 CURVE SMOOTH",
"991 598 OFFCURVE",
"965 511 OFFCURVE",
"913 432 CURVE",
"1213 132 LINE SMOOTH",
"1218 127 OFFCURVE",
"1220 121 OFFCURVE",
"1220 114 CURVE SMOOTH",
"1220 107 OFFCURVE",
"1218 101 OFFCURVE",
"1213 96 CURVE SMOOTH",
"1104 -13 LINE SMOOTH",
"1099 -18 OFFCURVE",
"1093 -20 OFFCURVE",
"1086 -20 CURVE SMOOTH",
"1079 -20 OFFCURVE",
"1073 -18 OFFCURVE",
"1068 -13 CURVE SMOOTH",
"768 287 LINE",
"689 235 OFFCURVE",
"602 209 OFFCURVE",
"507 209 CURVE SMOOTH",
"374 209 OFFCURVE",
"260 256 OFFCURVE",
"165 351 CURVE SMOOTH"
);
},
{
closed = 1;
nodes = (
"208 861 OFFCURVE",
"176 784 OFFCURVE",
"176 693 CURVE SMOOTH",
"176 512 OFFCURVE",
"324 363 OFFCURVE",
"507 363 CURVE SMOOTH",
"690 363 OFFCURVE",
"837 510 OFFCURVE",
"837 693 CURVE SMOOTH",
"837 876 OFFCURVE",
"690 1023 OFFCURVE",
"507 1023 CURVE SMOOTH",
"416 1023 OFFCURVE",
"338 991 OFFCURVE",
"273 926 CURVE SMOOTH"
);
},
{
closed = 1;
nodes = (
"300 600 LINE",
"300 800 LINE",
"400 800 LINE",
"400 900 LINE",
"600 900 LINE",
"600 800 LINE",
"700 800 LINE",
"700 600 LINE",
"600 600 LINE",
"600 500 LINE",
"400 500 LINE",
"400 600 LINE"
);
}
);
width = 1200;
}
);
unicode = E015;
},
{
glyphname = uniE016;
layers = (
{
layerId = "9ECC7D36-9140-4F4B-A408-CD21EECD2CFD";
name = Regular;
paths = (
{
closed = 1;
nodes = (
"70 447 OFFCURVE",
"23 561 OFFCURVE",
"23 694 CURVE SMOOTH",
"23 961 OFFCURVE",
"240 1178 OFFCURVE",
"507 1178 CURVE SMOOTH",
"774 1178 OFFCURVE",
"991 961 OFFCURVE",
"991 694 CURVE SMOOTH",
"991 600 OFFCURVE",
"965 513 OFFCURVE",
"913 432 CURVE",
"1213 133 LINE SMOOTH",
"1218 128 OFFCURVE",
"1220 122 OFFCURVE",
"1220 115 CURVE SMOOTH",
"1220 108 OFFCURVE",
"1218 102 OFFCURVE",
"1213 97 CURVE SMOOTH",
"1104 -12 LINE SMOOTH",
"1099 -17 OFFCURVE",
"1093 -20 OFFCURVE",
"1086 -20 CURVE SMOOTH",
"1079 -20 OFFCURVE",
"1073 -17 OFFCURVE",
"1068 -12 CURVE SMOOTH",
"768 288 LINE",
"689 236 OFFCURVE",
"602 210 OFFCURVE",
"507 210 CURVE SMOOTH",
"374 210 OFFCURVE",
"260 257 OFFCURVE",
"165 352 CURVE SMOOTH"
);
},
{
closed = 1;
nodes = (
"208 862 OFFCURVE",
"176 785 OFFCURVE",
"176 694 CURVE SMOOTH",
"176 513 OFFCURVE",
"324 364 OFFCURVE",
"507 364 CURVE SMOOTH",
"690 364 OFFCURVE",
"837 513 OFFCURVE",
"837 694 CURVE SMOOTH",
"837 875 OFFCURVE",
"690 1024 OFFCURVE",
"507 1024 CURVE SMOOTH",
"416 1024 OFFCURVE",
"338 992 OFFCURVE",
"273 927 CURVE SMOOTH"
);
},
{
closed = 1;
nodes = (
"300 601 LINE",
"700 601 LINE",
"700 801 LINE",
"300 801 LINE"
);
}
);
width = 1200;
}
);
unicode = E016;
},
{
glyphname = uniE017;
layers = (
{
layerId = "9ECC7D36-9140-4F4B-A408-CD21EECD2CFD";
name = Regular;
paths = (
{
closed = 1;
nodes = (
"23 844 OFFCURVE",
"177 1058 OFFCURVE",
"400 1141 CURVE",
"400 975 LINE",
"263 902 OFFCURVE",
"173 760 OFFCURVE",
"173 600 CURVE SMOOTH",
"173 364 OFFCURVE",
"364 173 OFFCURVE",
"600 173 CURVE SMOOTH",
"836 173 OFFCURVE",
"1027 364 OFFCURVE",
"1027 600 CURVE SMOOTH",
"1027 760 OFFCURVE",
"937 902 OFFCURVE",
"800 975 CURVE",
"800 1141 LINE",
"1023 1058 OFFCURVE",
"1177 844 OFFCURVE",
"1177 600 CURVE SMOOTH",
"1177 443 OFFCURVE",
"1112 295 OFFCURVE",
"1009 192 CURVE SMOOTH",
"905 88 OFFCURVE",
"757 23 OFFCURVE",
"600 23 CURVE SMOOTH",
"443 23 OFFCURVE",
"295 88 OFFCURVE",
"192 192 CURVE SMOOTH",
"88 295 OFFCURVE",
"23 443 OFFCURVE",
"23 600 CURVE SMOOTH"
);
},
{
closed = 1;
nodes = (
"500 750 LINE SMOOTH",
"500 722 OFFCURVE",
"522 700 OFFCURVE",
"550 700 CURVE SMOOTH",
"650 700 LINE SMOOTH",
"678 700 OFFCURVE",
"700 722 OFFCURVE",
"700 750 CURVE SMOOTH",
"700 1150 LINE SMOOTH",
"700 1178 OFFCURVE",
"678 1200 OFFCURVE",
"650 1200 CURVE SMOOTH",
"550 1200 LINE SMOOTH",
"522 1200 OFFCURVE",
"500 1178 OFFCURVE",
"500 1150 CURVE SMOOTH"
);
}
);
width = 1200;
}
);
unicode = E017;
},
{
glyphname = uniE018;
layers = (
{
layerId = "9ECC7D36-9140-4F4B-A408-CD21EECD2CFD";
name = Regular;
paths = (
{
closed = 1;
nodes = (
"100 1 LINE",
"300 1 LINE",
"300 301 LINE",
"100 301 LINE"
);
},
{
closed = 1;
nodes = (
"400 1 LINE",
"400 501 LINE",
"600 501 LINE",
"600 1 LINE"
);
},
{
closed = 1;
nodes = (
"700 1 LINE",
"700 801 LINE",
"900 801 LINE",
"900 1 LINE"
);
},
{
closed = 1;
nodes = (
"1000 1 LINE",
"1000 1201 LINE",
"1200 1201 LINE",
"1200 1 LINE"
);
}
);
width = 1200;
}
);
unicode = E018;
},
{
glyphname = uniE019;
layers = (
{
layerId = "9ECC7D36-9140-4F4B-A408-CD21EECD2CFD";
name = Regular;
paths = (
{
closed = 1;
nodes = (
"26 579 OFFCURVE",
"28 554 OFFCURVE",
"32 527 CURVE",
"183 489 LINE",
"185 483 LINE",
"194 450 OFFCURVE",
"207 419 OFFCURVE",
"223 390 CURVE",
"226 385 LINE",
"146 251 LINE",
"176 212 OFFCURVE",
"211 177 OFFCURVE",
"251 146 CURVE",
"384 227 LINE",
"389 224 LINE SMOOTH",
"419 207 OFFCURVE",
"450 194 OFFCURVE",
"483 185 CURVE",
"488 183 LINE",
"526 32 LINE",
"553 29 OFFCURVE",
"577 27 OFFCURVE",
"600 27 CURVE SMOOTH",
"618 27 OFFCURVE",
"643 29 OFFCURVE",
"674 32 CURVE",
"712 183 LINE",
"718 185 LINE",
"749 194 OFFCURVE",
"780 207 OFFCURVE",
"811 224 CURVE",
"816 227 LINE",
"950 146 LINE",
"987 175 OFFCURVE",
"1022 210 OFFCURVE",
"1054 251 CURVE",
"974 385 LINE",
"977 390 LINE",
"993 419 OFFCURVE",
"1006 450 OFFCURVE",
"1016 483 CURVE",
"1017 489 LINE",
"1169 527 LINE",
"1172 554 OFFCURVE",
"1174 578 OFFCURVE",
"1174 601 CURVE SMOOTH",
"1174 620 OFFCURVE",
"1172 644 OFFCURVE",
"1169 674 CURVE",
"1017 712 LINE",
"1016 718 LINE",
"1005 752 OFFCURVE",
"992 783 OFFCURVE",
"977 811 CURVE",
"974 816 LINE",
"1054 950 LINE",
"1025 989 OFFCURVE",
"990 1024 OFFCURVE",
"950 1055 CURVE",
"816 974 LINE",
"811 977 LINE SMOOTH",
"781 994 OFFCURVE",
"750 1007 OFFCURVE",
"718 1016 CURVE",
"712 1017 LINE",
"674 1169 LINE",
"647 1172 OFFCURVE",
"623 1174 OFFCURVE",
"600 1174 CURVE SMOOTH",
"582 1174 OFFCURVE",
"557 1172 OFFCURVE",
"526 1169 CURVE",
"488 1017 LINE",
"483 1016 LINE",
"450 1007 OFFCURVE",
"418 994 OFFCURVE",
"389 977 CURVE SMOOTH",
"384 974 LINE",
"251 1055 LINE",
"212 1024 OFFCURVE",
"177 989 OFFCURVE",
"146 950 CURVE",
"226 816 LINE",
"223 811 LINE",
"206 780 OFFCURVE",
"194 749 OFFCURVE",
"185 718 CURVE",
"183 712 LINE",
"32 674 LINE",
"28 642 OFFCURVE",
"26 618 OFFCURVE",
"26 601 CURVE SMOOTH"
);
},
{
closed = 1;
nodes = (
"385 718 OFFCURVE",
"481 815 OFFCURVE",
"600 815 CURVE SMOOTH",
"719 815 OFFCURVE",
"815 718 OFFCURVE",
"815 601 CURVE SMOOTH",
"815 482 OFFCURVE",
"719 386 OFFCURVE",
"600 386 CURVE SMOOTH",
"481 386 OFFCURVE",
"385 482 OFFCURVE",
"385 601 CURVE SMOOTH"
);
}
);
width = 1200;
}
);
unicode = E019;
},
{
glyphname = uniE020;
layers = (
{
layerId = "9ECC7D36-9140-4F4B-A408-CD21EECD2CFD";
name = Regular;
paths = (
{
closed = 1;
nodes = (
"100 1075 LINE SMOOTH",
"100 1088 OFFCURVE",
"112 1100 OFFCURVE",
"125 1100 CURVE SMOOTH",
"400 1100 LINE",
"400 1200 LINE SMOOTH",
"400 1255 OFFCURVE",
"445 1300 OFFCURVE",
"500 1300 CURVE SMOOTH",
"800 1300 LINE SMOOTH",
"855 1300 OFFCURVE",
"900 1255 OFFCURVE",
"900 1200 CURVE SMOOTH",
"900 1100 LINE",
"1175 1100 LINE SMOOTH",
"1188 1100 OFFCURVE",
"1200 1088 OFFCURVE",
"1200 1075 CURVE SMOOTH",
"1200 1025 LINE SMOOTH",
"1200 1010 OFFCURVE",
"1190 1000 OFFCURVE",
"1175 1000 CURVE SMOOTH",
"125 1000 LINE SMOOTH",
"110 1000 OFFCURVE",
"100 1010 OFFCURVE",
"100 1025 CURVE SMOOTH"
);
},
{
closed = 1;
nodes = (
"200 900 LINE",
"1100 900 LINE",
"1100 100 LINE SMOOTH",
"1100 45 OFFCURVE",
"1055 -1 OFFCURVE",
"1000 -1 CURVE SMOOTH",
"300 -1 LINE SMOOTH",
"245 -1 OFFCURVE",
"200 45 OFFCURVE",
"200 100 CURVE SMOOTH"
);
},
{
closed = 1;
nodes = (
"300 100 LINE",
"400 100 LINE",
"400 800 LINE",
"300 800 LINE"
);
},
{
closed = 1;
nodes = (
"500 100 LINE",
"600 100 LINE",
"600 800 LINE",
"500 800 LINE"
);
},
{
closed = 1;
nodes = (
"500 1100 LINE",
"800 1100 LINE",
"800 1200 LINE",
"500 1200 LINE"
);
},
{
closed = 1;
nodes = (
"700 100 LINE",
"800 100 LINE",
"800 800 LINE",
"700 800 LINE"
);
},
{
closed = 1;
nodes = (
"900 100 LINE",
"1000 100 LINE",
"1000 800 LINE",
"900 800 LINE"
);
}
);
width = 1200;
}
);
unicode = E020;
},
{
glyphname = uniE021;
layers = (
{
layerId = "9ECC7D36-9140-4F4B-A408-CD21EECD2CFD";
name = Regular;
paths = (
{
closed = 1;
nodes = (
"1 601 LINE",
"657 1245 LINE",
"1301 601 LINE",
"1101 601 LINE",
"1101 1 LINE",
"801 1 LINE",
"801 401 LINE",
"501 401 LINE",
"501 1 LINE",
"201 1 LINE",
"201 601 LINE"
);
}
);
width = 1200;
}
);
unicode = E021;
},
{
glyphname = uniE022;
layers = (
{
layerId = "9ECC7D36-9140-4F4B-A408-CD21EECD2CFD";
name = Regular;
paths = (
{
closed = 1;
nodes = (
"100 1175 LINE SMOOTH",
"100 1190 OFFCURVE",
"110 1200 OFFCURVE",
"125 1200 CURVE SMOOTH",
"600 1200 LINE",
"600 700 LINE",
"1000 700 LINE",
"1000 25 LINE SMOOTH",
"1000 10 OFFCURVE",
"990 0 OFFCURVE",
"975 0 CURVE SMOOTH",
"125 0 LINE SMOOTH",
"110 0 OFFCURVE",
"100 10 OFFCURVE",
"100 25 CURVE SMOOTH"
);
},
{
closed = 1;
nodes = (
"700 800 LINE",
"700 1100 LINE",
"1000 800 LINE"
);
}
);
width = 1200;
}
);
unicode = E022;
},
{
glyphname = uniE023;
layers = (
{
layerId = "9ECC7D36-9140-4F4B-A408-CD21EECD2CFD";
name = Regular;
paths = (
{
closed = 1;
nodes = (
"31 392 OFFCURVE",
"4 492 OFFCURVE",
"4 600 CURVE SMOOTH",
"4 816 OFFCURVE",
"118 1009 OFFCURVE",
"301 1116 CURVE SMOOTH",
"392 1169 OFFCURVE",
"492 1196 OFFCURVE",
"600 1196 CURVE SMOOTH",
"816 1196 OFFCURVE",
"1009 1082 OFFCURVE",
"1116 899 CURVE SMOOTH",
"1169 808 OFFCURVE",
"1196 708 OFFCURVE",
"1196 600 CURVE SMOOTH",
"1196 384 OFFCURVE",
"1082 191 OFFCURVE",
"899 84 CURVE SMOOTH",
"808 31 OFFCURVE",
"708 4 OFFCURVE",
"600 4 CURVE SMOOTH",
"384 4 OFFCURVE",
"191 118 OFFCURVE",
"84 301 CURVE SMOOTH"
);
},
{
closed = 1;
nodes = (
"227 812 OFFCURVE",
"186 714 OFFCURVE",
"186 600 CURVE SMOOTH",
"186 372 OFFCURVE",
"372 186 OFFCURVE",
"600 186 CURVE SMOOTH",
"828 186 OFFCURVE",
"1014 372 OFFCURVE",
"1014 600 CURVE SMOOTH",
"1014 828 OFFCURVE",
"828 1014 OFFCURVE",
"600 1014 CURVE SMOOTH",
"486 1014 OFFCURVE",
"389 974 OFFCURVE",
"308 893 CURVE SMOOTH"
);
},
{
closed = 1;
nodes = (
"500 500 LINE",
"500 900 LINE",
"600 900 LINE",
"600 600 LINE",
"800 600 LINE",
"800 500 LINE"
);
}
);
width = 1200;
}
);
unicode = E023;
},
{
glyphname = uniE024;
layers = (
{
layerId = "9ECC7D36-9140-4F4B-A408-CD21EECD2CFD";
name = Regular;
paths = (
{
closed = 1;
nodes = (
"-100 0 LINE",
"331 1200 LINE",
"540 1200 LINE",
"519 900 LINE",
"681 900 LINE",
"661 1200 LINE",
"869 1200 LINE",
"1300 0 LINE",
"762 0 LINE",
"721 400 LINE",
"479 400 LINE",
"439 0 LINE"
);
},
{
closed = 1;
nodes = (
"488 500 LINE",
"712 500 LINE",
"685 800 LINE",
"515 800 LINE"
);
}
);
width = 1200;
}
);
unicode = E024;
},
{
glyphname = uniE025;
layers = (
{
layerId = "9ECC7D36-9140-4F4B-A408-CD21EECD2CFD";
name = Regular;
paths = (
{
closed = 1;
nodes = (
"0 0 LINE",
"0 400 LINE",
"490 400 LINE",
"200 700 LINE",
"400 700 LINE",
"400 1200 LINE",
"700 1200 LINE",
"700 700 LINE",
"900 700 LINE",
"610 400 LINE",
"1100 400 LINE",
"1100 0 LINE"
);
},
{
closed = 1;
nodes = (
"813 200 LINE",
"988 200 LINE",
"988 300 LINE",
"813 300 LINE"
);
}
);
width = 1200;
}
);
unicode = E025;
},
{
glyphname = uniE026;
layers = (
{
layerId = "9ECC7D36-9140-4F4B-A408-CD21EECD2CFD";
name = Regular;
paths = (
{
closed = 1;
nodes = (
"17 441 OFFCURVE",
"1 519 OFFCURVE",
"1 600 CURVE SMOOTH",
"1 763 OFFCURVE",
"69 917 OFFCURVE",
"176 1024 CURVE SMOOTH",
"283 1131 OFFCURVE",
"437 1199 OFFCURVE",
"600 1199 CURVE SMOOTH",
"763 1199 OFFCURVE",
"917 1131 OFFCURVE",
"1024 1024 CURVE SMOOTH",
"1131 917 OFFCURVE",
"1199 763 OFFCURVE",
"1199 600 CURVE SMOOTH",
"1199 437 OFFCURVE",
"1131 283 OFFCURVE",
"1024 176 CURVE SMOOTH",
"917 69 OFFCURVE",
"763 1 OFFCURVE",
"600 1 CURVE SMOOTH",
"437 1 OFFCURVE",
"283 69 OFFCURVE",
"176 176 CURVE SMOOTH",
"123 229 OFFCURVE",
"80 293 OFFCURVE",
"49 367 CURVE SMOOTH"
);
},
{
closed = 1;
nodes = (
"228 810 OFFCURVE",
"188 713 OFFCURVE",
"188 600 CURVE SMOOTH",
"188 373 OFFCURVE",
"373 188 OFFCURVE",
"600 188 CURVE SMOOTH",
"827 188 OFFCURVE",
"1012 373 OFFCURVE",
"1012 600 CURVE SMOOTH",
"1012 827 OFFCURVE",
"827 1012 OFFCURVE",
"600 1012 CURVE SMOOTH",
"487 1012 OFFCURVE",
"390 972 OFFCURVE",
"309 891 CURVE SMOOTH"
);
},
{
closed = 1;
nodes = (
"350 600 LINE",
"500 600 LINE",
"500 900 LINE",
"700 900 LINE",
"700 600 LINE",
"850 600 LINE",
"600 300 LINE"
);
}
);
width = 1200;
}
);
unicode = E026;
},
{
glyphname = uniE027;
layers = (
{
layerId = "9ECC7D36-9140-4F4B-A408-CD21EECD2CFD";
name = Regular;
paths = (
{
closed = 1;
nodes = (
"31 392 OFFCURVE",
"4 492 OFFCURVE",
"4 600 CURVE SMOOTH",
"4 816 OFFCURVE",
"118 1009 OFFCURVE",
"301 1116 CURVE SMOOTH",
"392 1169 OFFCURVE",
"492 1196 OFFCURVE",
"600 1196 CURVE SMOOTH",
"816 1196 OFFCURVE",
"1009 1082 OFFCURVE",
"1116 899 CURVE SMOOTH",
"1169 808 OFFCURVE",
"1196 708 OFFCURVE",
"1196 600 CURVE SMOOTH",
"1196 384 OFFCURVE",
"1082 191 OFFCURVE",
"899 84 CURVE SMOOTH",
"808 31 OFFCURVE",
"708 4 OFFCURVE",
"600 4 CURVE SMOOTH",
"384 4 OFFCURVE",
"191 118 OFFCURVE",
"84 301 CURVE SMOOTH"
);
},
{
closed = 1;
nodes = (
"227 812 OFFCURVE",
"186 714 OFFCURVE",
"186 600 CURVE SMOOTH",
"186 372 OFFCURVE",
"372 186 OFFCURVE",
"600 186 CURVE SMOOTH",
"828 186 OFFCURVE",
"1014 372 OFFCURVE",
"1014 600 CURVE SMOOTH",
"1014 828 OFFCURVE",
"828 1014 OFFCURVE",
"600 1014 CURVE SMOOTH",
"486 1014 OFFCURVE",
"389 974 OFFCURVE",
"308 893 CURVE SMOOTH"
);
},
{
closed = 1;
nodes = (
"350 600 LINE",
"600 900 LINE",
"850 600 LINE",
"700 600 LINE",
"700 300 LINE",
"500 300 LINE",
"500 600 LINE"
);
}
);
width = 1200;
}
);
unicode = E027;
},
{
glyphname = uniE028;
layers = (
{
layerId = "9ECC7D36-9140-4F4B-A408-CD21EECD2CFD";
name = Regular;
paths = (
{
closed = 1;
nodes = (
"0 500 LINE",
"200 1200 LINE",
"1000 1200 LINE",
"1199 500 LINE",
"1200 25 LINE SMOOTH",
"1200 10 OFFCURVE",
"1190 0 OFFCURVE",
"1175 0 CURVE SMOOTH",
"25 0 LINE SMOOTH",
"10 0 OFFCURVE",
"0 10 OFFCURVE",
"0 25 CURVE SMOOTH"
);
},
{
closed = 1;
nodes = (
"200 500 LINE",
"400 500 LINE",
"450 300 LINE",
"750 300 LINE",
"800 500 LINE",
"1000 500 LINE",
"903 1000 LINE",
"297 1000 LINE"
);
}
);
width = 1200;
}
);
unicode = E028;
},
{
glyphname = uniE029;
layers = (
{
layerId = "9ECC7D36-9140-4F4B-A408-CD21EECD2CFD";
name = Regular;
paths = (
{
closed = 1;
nodes = (
"31 392 OFFCURVE",
"4 492 OFFCURVE",
"4 600 CURVE SMOOTH",
"4 816 OFFCURVE",
"118 1009 OFFCURVE",
"301 1116 CURVE SMOOTH",
"392 1169 OFFCURVE",
"492 1196 OFFCURVE",
"600 1196 CURVE SMOOTH",
"816 1196 OFFCURVE",
"1009 1082 OFFCURVE",
"1116 899 CURVE SMOOTH",
"1169 808 OFFCURVE",
"1196 708 OFFCURVE",
"1196 600 CURVE SMOOTH",
"1196 384 OFFCURVE",
"1082 191 OFFCURVE",
"899 84 CURVE SMOOTH",
"808 31 OFFCURVE",
"708 4 OFFCURVE",
"600 4 CURVE SMOOTH",
"384 4 OFFCURVE",
"191 118 OFFCURVE",
"84 301 CURVE SMOOTH"
);
},
{
closed = 1;
nodes = (
"186 371 OFFCURVE",
"372 186 OFFCURVE",
"600 186 CURVE SMOOTH",
"828 186 OFFCURVE",
"1014 371 OFFCURVE",
"1014 600 CURVE SMOOTH",
"1014 828 OFFCURVE",
"828 1014 OFFCURVE",
"600 1014 CURVE SMOOTH",
"372 1014 OFFCURVE",
"186 828 OFFCURVE",
"186 600 CURVE SMOOTH"
);
},
{
closed = 1;
nodes = (
"500 397 LINE",
"500 798 LINE",
"797 598 LINE"
);
}
);
width = 1200;
}
);
unicode = E029;
},
{
glyphname = uniE030;
layers = (
{
layerId = "9ECC7D36-9140-4F4B-A408-CD21EECD2CFD";
name = Regular;
paths = (
{
closed = 1;
nodes = (
"38 754 OFFCURVE",
"23 679 OFFCURVE",
"23 600 CURVE SMOOTH",
"23 443 OFFCURVE",
"88 295 OFFCURVE",
"192 192 CURVE SMOOTH",
"295 88 OFFCURVE",
"443 23 OFFCURVE",
"600 23 CURVE SMOOTH",
"757 23 OFFCURVE",
"905 88 OFFCURVE",
"1009 192 CURVE SMOOTH",
"1112 295 OFFCURVE",
"1177 443 OFFCURVE",
"1177 600 CURVE",
"1027 600 LINE",
"1027 364 OFFCURVE",
"836 173 OFFCURVE",
"600 173 CURVE SMOOTH",
"364 173 OFFCURVE",
"173 364 OFFCURVE",
"173 600 CURVE SMOOTH",
"173 836 OFFCURVE",
"364 1027 OFFCURVE",
"600 1027 CURVE SMOOTH",
"691 1027 OFFCURVE",
"773 1000 OFFCURVE",
"846 946 CURVE",
"700 800 LINE",
"1100 800 LINE",
"1100 1200 LINE",
"955 1055 LINE",
"850 1136 OFFCURVE",
"732 1177 OFFCURVE",
"600 1177 CURVE SMOOTH",
"443 1177 OFFCURVE",
"295 1112 OFFCURVE",
"192 1009 CURVE SMOOTH",
"140 957 OFFCURVE",
"99 896 OFFCURVE",
"69 825 CURVE SMOOTH"
);
}
);
width = 1200;
}
);
unicode = E030;
},
{
glyphname = uniE031;
layers = (
{
layerId = "9ECC7D36-9140-4F4B-A408-CD21EECD2CFD";
name = Regular;
paths = (
{
closed = 1;
nodes = (
"23 600 LINE",
"23 757 OFFCURVE",
"88 905 OFFCURVE",
"192 1009 CURVE SMOOTH",
"295 1112 OFFCURVE",
"443 1177 OFFCURVE",
"600 1177 CURVE SMOOTH",
"732 1177 OFFCURVE",
"850 1136 OFFCURVE",
"955 1055 CURVE",
"1100 1200 LINE",
"1100 800 LINE",
"700 800 LINE",
"847 947 LINE",
"772 1000 OFFCURVE",
"690 1027 OFFCURVE",
"600 1027 CURVE SMOOTH",
"364 1027 OFFCURVE",
"173 836 OFFCURVE",
"173 600 CURVE"
);
},
{
closed = 1;
nodes = (
"100 0 LINE",
"100 400 LINE",
"500 400 LINE",
"353 253 LINE",
"428 200 OFFCURVE",
"510 173 OFFCURVE",
"600 173 CURVE SMOOTH",
"836 173 OFFCURVE",
"1027 364 OFFCURVE",
"1027 600 CURVE",
"1177 600 LINE",
"1177 443 OFFCURVE",
"1112 295 OFFCURVE",
"1009 192 CURVE SMOOTH",
"905 88 OFFCURVE",
"757 23 OFFCURVE",
"600 23 CURVE SMOOTH",
"468 23 OFFCURVE",
"350 64 OFFCURVE",
"245 145 CURVE"
);
}
);
width = 1200;
}
);
unicode = E031;
},
{
glyphname = uniE032;
layers = (
{
layerId = "9ECC7D36-9140-4F4B-A408-CD21EECD2CFD";
name = Regular;
paths = (
{
closed = 1;
nodes = (
"100 0 LINE",
"1200 0 LINE",
"1200 1200 LINE",
"100 1200 LINE"
);
},
{
closed = 1;
nodes = (
"200 100 LINE",
"200 1000 LINE",
"1100 1000 LINE",
"1100 100 LINE"
);
},
{
closed = 1;
nodes = (
"300 200 LINE",
"300 300 LINE",
"400 300 LINE",
"400 200 LINE"
);
},
{
closed = 1;
nodes = (
"300 400 LINE",
"300 500 LINE",
"400 500 LINE",
"400 400 LINE"
);
},
{
closed = 1;
nodes = (
"300 600 LINE",
"300 700 LINE",
"400 700 LINE",
"400 600 LINE"
);
},
{
closed = 1;
nodes = (
"300 800 LINE",
"300 900 LINE",
"400 900 LINE",
"400 800 LINE"
);
},
{
closed = 1;
nodes = (
"500 200 LINE",
"1000 200 LINE",
"1000 300 LINE",
"500 300 LINE"
);
},
{
closed = 1;
nodes = (
"500 400 LINE",
"500 500 LINE",
"1000 500 LINE",
"1000 400 LINE"
);
},
{
closed = 1;
nodes = (
"500 600 LINE",
"500 700 LINE",
"1000 700 LINE",
"1000 600 LINE"
);
},
{
closed = 1;
nodes = (
"500 800 LINE",
"500 900 LINE",
"1000 900 LINE",
"1000 800 LINE"
);
}
);
width = 1200;
}
);
unicode = E032;
},
{
glyphname = uniE033;
layers = (
{
layerId = "9ECC7D36-9140-4F4B-A408-CD21EECD2CFD";
name = Regular;
paths = (
{
closed = 1;
nodes = (
"0 700 LINE SMOOTH",
"0 755 OFFCURVE",
"45 800 OFFCURVE",
"100 800 CURVE SMOOTH",
"200 800 LINE",
"200 1000 LINE SMOOTH",
"200 1109 OFFCURVE",
"291 1200 OFFCURVE",
"400 1200 CURVE SMOOTH",
"700 1200 LINE SMOOTH",
"809 1200 OFFCURVE",
"900 1109 OFFCURVE",
"900 1000 CURVE SMOOTH",
"900 800 LINE",
"1000 800 LINE SMOOTH",
"1055 800 OFFCURVE",
"1100 755 OFFCURVE",
"1100 700 CURVE SMOOTH",
"1100 100 LINE SMOOTH",
"1100 45 OFFCURVE",
"1055 0 OFFCURVE",
"1000 0 CURVE SMOOTH",
"100 0 LINE SMOOTH",
"45 0 OFFCURVE",
"0 45 OFFCURVE",
"0 100 CURVE SMOOTH"
);
},
{
closed = 1;
nodes = (
"400 800 LINE",
"700 800 LINE",
"700 950 LINE SMOOTH",
"700 978 OFFCURVE",
"678 1000 OFFCURVE",
"650 1000 CURVE SMOOTH",
"450 1000 LINE SMOOTH",
"422 1000 OFFCURVE",
"400 978 OFFCURVE",
"400 950 CURVE SMOOTH"
);
}
);
width = 1200;
}
);
unicode = E033;
},
{
glyphname = uniE034;
layers = (
{
layerId = "9ECC7D36-9140-4F4B-A408-CD21EECD2CFD";
name = Regular;
paths = (
{
closed = 1;
nodes = (
"100 0 LINE",
"100 1100 LINE",
"200 1100 LINE",
"200 0 LINE"
);
},
{
closed = 1;
nodes = (
"300 400 LINE",
"380 480 OFFCURVE",
"475 510 OFFCURVE",
"555 502 CURVE SMOOTH",
"595 497 OFFCURVE",
"636 490 OFFCURVE",
"677 479 CURVE SMOOTH",
"760 457 OFFCURVE",
"835 434 OFFCURVE",
"906 438 CURVE SMOOTH",
"977 441 OFFCURVE",
"1045 492 OFFCURVE",
"1100 600 CURVE",
"1100 1100 LINE",
"1047 992 OFFCURVE",
"959 948 OFFCURVE",
"871 955 CURVE SMOOTH",
"783 962 OFFCURVE",
"684 993 OFFCURVE",
"594 1020 CURVE SMOOTH",
"504 1047 OFFCURVE",
"425 1062 OFFCURVE",
"365 1016 CURVE SMOOTH",
"335 993 OFFCURVE",
"313 954 OFFCURVE",
"300 900 CURVE"
);
}
);
width = 1200;
}
);
unicode = E034;
},
{
glyphname = uniE035;
layers = (
{
layerId = "9ECC7D36-9140-4F4B-A408-CD21EECD2CFD";
name = Regular;
paths = (
{
closed = 1;
nodes = (
"0 275 LINE SMOOTH",
"0 260 OFFCURVE",
"10 250 OFFCURVE",
"25 250 CURVE SMOOTH",
"75 250 LINE SMOOTH",
"90 250 OFFCURVE",
"100 260 OFFCURVE",
"100 275 CURVE SMOOTH",
"100 575 LINE SMOOTH",
"100 744 OFFCURVE",
"203 892 OFFCURVE",
"355 968 CURVE SMOOTH",
"431 1006 OFFCURVE",
"513 1025 OFFCURVE",
"600 1025 CURVE SMOOTH",
"775 1025 OFFCURVE",
"936 946 OFFCURVE",
"1030 807 CURVE SMOOTH",
"1077 737 OFFCURVE",
"1100 660 OFFCURVE",
"1100 575 CURVE SMOOTH",
"1100 275 LINE SMOOTH",
"1100 260 OFFCURVE",
"1110 250 OFFCURVE",
"1125 250 CURVE SMOOTH",
"1175 250 LINE SMOOTH",
"1190 250 OFFCURVE",
"1200 260 OFFCURVE",
"1200 275 CURVE SMOOTH",
"1200 575 LINE SMOOTH",
"1200 730 OFFCURVE",
"1128 886 OFFCURVE",
"1020 995 CURVE SMOOTH",
"911 1103 OFFCURVE",
"755 1175 OFFCURVE",
"600 1175 CURVE SMOOTH",
"445 1175 OFFCURVE",
"289 1103 OFFCURVE",
"181 995 CURVE SMOOTH",
"72 886 OFFCURVE",
"0 730 OFFCURVE",
"0 575 CURVE SMOOTH"
);
},
{
closed = 1;
nodes = (
"200 480 LINE SMOOTH",
"200 491 OFFCURVE",
"209 500 OFFCURVE",
"220 500 CURVE SMOOTH",
"380 500 LINE SMOOTH",
"391 500 OFFCURVE",
"400 491 OFFCURVE",
"400 480 CURVE SMOOTH",
"400 20 LINE SMOOTH",
"400 9 OFFCURVE",
"391 0 OFFCURVE",
"380 0 CURVE SMOOTH",
"220 0 LINE SMOOTH",
"209 0 OFFCURVE",
"200 9 OFFCURVE",
"200 20 CURVE SMOOTH"
);
},
{
closed = 1;
nodes = (
"800 480 LINE SMOOTH",
"800 491 OFFCURVE",
"809 500 OFFCURVE",
"820 500 CURVE SMOOTH",
"980 500 LINE SMOOTH",
"991 500 OFFCURVE",
"1000 491 OFFCURVE",
"1000 480 CURVE SMOOTH",
"1000 20 LINE SMOOTH",
"1000 9 OFFCURVE",
"991 0 OFFCURVE",
"980 0 CURVE SMOOTH",
"820 0 LINE SMOOTH",
"809 0 OFFCURVE",
"800 9 OFFCURVE",
"800 20 CURVE SMOOTH"
);
}
);
width = 1200;
}
);
unicode = E035;
},
{
glyphname = uniE036;
layers = (
{
layerId = "9ECC7D36-9140-4F4B-A408-CD21EECD2CFD";
name = Regular;
paths = (
{
closed = 1;
nodes = (
"0 400 LINE",
"300 400 LINE",
"600 200 LINE",
"600 1000 LINE",
"300 800 LINE",
"0 800 LINE"
);
},
{
closed = 1;
nodes = (
"688 459 LINE",
"829 600 LINE",
"688 741 LINE",
"759 812 LINE",
"900 671 LINE",
"1041 812 LINE",
"1112 741 LINE",
"971 600 LINE",
"1112 459 LINE",
"1041 388 LINE",
"900 529 LINE",
"759 388 LINE"
);
}
);
width = 1200;
}
);
unicode = E036;
},
{
glyphname = uniE037;
layers = (
{
layerId = "9ECC7D36-9140-4F4B-A408-CD21EECD2CFD";
name = Regular;
paths = (
{
closed = 1;
nodes = (
"0 400 LINE",
"300 400 LINE",
"600 200 LINE",
"600 1000 LINE",
"300 800 LINE",
"0 800 LINE"
);
},
{
closed = 1;
nodes = (
"769 910 LINE",
"843 820 OFFCURVE",
"880 717 OFFCURVE",
"880 600 CURVE SMOOTH",
"880 487 OFFCURVE",
"845 387 OFFCURVE",
"774 298 CURVE",
"707 352 LINE",
"764 425 OFFCURVE",
"793 508 OFFCURVE",
"793 600 CURVE SMOOTH",
"793 697 OFFCURVE",
"762 783 OFFCURVE",
"700 857 CURVE"
);
}
);
width = 1200;
}
);
unicode = E037;
},
{
glyphname = uniE038;
layers = (
{
layerId = "9ECC7D36-9140-4F4B-A408-CD21EECD2CFD";
name = Regular;
paths = (
{
closed = 1;
nodes = (
"0 401 LINE",
"0 801 LINE",
"300 801 LINE",
"600 1001 LINE",
"600 201 LINE",
"300 401 LINE"
);
},
{
closed = 1;
nodes = (
"771 911 LINE",
"845 821 OFFCURVE",
"882 718 OFFCURVE",
"882 601 CURVE SMOOTH",
"882 488 OFFCURVE",
"847 387 OFFCURVE",
"776 298 CURVE",
"709 353 LINE",
"766 426 OFFCURVE",
"795 509 OFFCURVE",
"795 601 CURVE SMOOTH",
"795 698 OFFCURVE",
"764 783 OFFCURVE",
"702 858 CURVE"
);
},
{
closed = 1;
nodes = (
"889 951 LINE",
"896 943 LINE",
"978 842 OFFCURVE",
"1019 728 OFFCURVE",
"1019 599 CURVE SMOOTH",
"1019 473 OFFCURVE",
"979 360 OFFCURVE",
"900 260 CURVE",
"893 252 LINE",
"974 186 LINE",
"980 194 LINE SMOOTH",
"1075 313 OFFCURVE",
"1122 448 OFFCURVE",
"1122 599 CURVE SMOOTH",
"1122 752 OFFCURVE",
"1074 888 OFFCURVE",
"978 1007 CURVE",
"972 1015 LINE"
);
}
);
width = 1200;
}
);
unicode = E038;
},
{
glyphname = uniE039;
layers = (
{
layerId = "9ECC7D36-9140-4F4B-A408-CD21EECD2CFD";
name = Regular;
paths = (
{
closed = 1;
nodes = (
"0 0 LINE",
"500 0 LINE",
"500 500 LINE",
"300 500 LINE",
"300 600 LINE",
"200 600 LINE",
"200 500 LINE",
"0 500 LINE"
);
},
{
closed = 1;
nodes = (
"0 600 LINE",
"100 600 LINE",
"100 700 LINE",
"500 700 LINE",
"500 800 LINE",
"600 800 LINE",
"600 900 LINE",
"500 900 LINE",
"500 1200 LINE",
"0 1200 LINE"
);
},
{
closed = 1;
nodes = (
"100 100 LINE",
"100 400 LINE",
"400 400 LINE",
"400 100 LINE"
);
},
{
closed = 1;
nodes = (
"100 800 LINE",
"100 1100 LINE",
"400 1100 LINE",
"400 800 LINE"
);
},
{
closed = 1;
nodes = (
"200 200 LINE",
"200 300 LINE",
"300 300 LINE",
"300 200 LINE"
);
},
{
closed = 1;
nodes = (
"200 900 LINE",
"300 900 LINE",
"300 1000 LINE",
"200 1000 LINE"
);
},
{
closed = 1;
nodes = (
"500 500 LINE",
"500 600 LINE",
"800 600 LINE",
"800 300 LINE",
"1000 300 LINE",
"1000 200 LINE",
"900 200 LINE",
"900 100 LINE",
"700 100 LINE",
"700 200 LINE",
"600 200 LINE",
"600 300 LINE",
"700 300 LINE",
"700 500 LINE"
);
},
{
closed = 1;
nodes = (
"600 0 LINE",
"600 100 LINE",
"700 100 LINE",
"700 0 LINE"
);
},
{
closed = 1;
nodes = (
"600 1000 LINE",
"700 1000 LINE",
"700 700 LINE",
"900 700 LINE",
"900 400 LINE",
"1200 400 LINE",
"1200 600 LINE",
"1000 600 LINE",
"1000 700 LINE",
"1200 700 LINE",
"1200 1200 LINE",
"600 1200 LINE"
);
},
{
closed = 1;
nodes = (
"800 800 LINE",
"800 1100 LINE",
"1100 1100 LINE",
"1100 800 LINE"
);
},
{
closed = 1;
nodes = (
"900 0 LINE",
"900 100 LINE",
"1200 100 LINE",
"1200 0 LINE"
);
},
{
closed = 1;
nodes = (
"900 900 LINE",
"900 1000 LINE",
"1000 1000 LINE",
"1000 900 LINE"
);
},
{
closed = 1;
nodes = (
"1100 200 LINE",
"1100 300 LINE",
"1200 300 LINE",
"1200 200 LINE"
);
}
);
width = 1200;
}
);
unicode = E039;
},
{
glyphname = uniE040;
layers = (
{
layerId = "9ECC7D36-9140-4F4B-A408-CD21EECD2CFD";
name = Regular;
paths = (
{
closed = 1;
nodes = (
"0 200 LINE",
"100 200 LINE",
"100 1200 LINE",
"0 1200 LINE"
);
},
{
closed = 1;
nodes = (
"100 0 LINE",
"100 100 LINE",
"400 100 LINE",
"400 0 LINE"
);
},
{
closed = 1;
nodes = (
"200 200 LINE",
"200 1200 LINE",
"300 1200 LINE",
"300 200 LINE"
);
},
{
closed = 1;
nodes = (
"500 0 LINE",
"500 91 LINE",
"600 91 LINE",
"600 0 LINE"
);
},
{
closed = 1;
nodes = (
"500 200 LINE",
"500 1200 LINE",
"700 1200 LINE",
"700 200 LINE"
);
},
{
closed = 1;
nodes = (
"700 0 LINE",
"700 91 LINE",
"800 91 LINE",
"800 0 LINE"
);
},
{
closed = 1;
nodes = (
"800 200 LINE",
"800 1200 LINE",
"900 1200 LINE",
"900 200 LINE"
);
},
{
closed = 1;
nodes = (
"900 0 LINE",
"900 91 LINE",
"1100 91 LINE",
"1100 0 LINE"
);
},
{
closed = 1;
nodes = (
"1000 200 LINE",
"1000 1200 LINE",
"1200 1200 LINE",
"1200 200 LINE"
);
}
);
width = 1200;
}
);
unicode = E040;
},
{
glyphname = uniE041;
layers = (
{
layerId = "9ECC7D36-9140-4F4B-A408-CD21EECD2CFD";
name = Regular;
paths = (
{
closed = 1;
nodes = (
"0 700 LINE",
"1 1175 LINE SMOOTH",
"1 1188 OFFCURVE",
"13 1200 OFFCURVE",
"26 1200 CURVE SMOOTH",
"500 1200 LINE",
"1200 500 LINE",
"700 0 LINE"
);
},
{
closed = 1;
nodes = (
"158 1005 OFFCURVE",
"148 981 OFFCURVE",
"148 953 CURVE SMOOTH",
"148 897 OFFCURVE",
"193 852 OFFCURVE",
"249 852 CURVE SMOOTH",
"304 852 OFFCURVE",
"349 897 OFFCURVE",
"349 953 CURVE SMOOTH",
"349 1009 OFFCURVE",
"304 1054 OFFCURVE",
"249 1054 CURVE SMOOTH",
"221 1054 OFFCURVE",
"197 1044 OFFCURVE",
"177 1024 CURVE SMOOTH"
);
}
);
width = 1200;
}
);
unicode = E041;
},
{
glyphname = uniE042;
layers = (
{
layerId = "9ECC7D36-9140-4F4B-A408-CD21EECD2CFD";
name = Regular;
paths = (
{
closed = 1;
nodes = (
"1 700 LINE",
"2 1175 LINE SMOOTH",
"2 1190 OFFCURVE",
"12 1200 OFFCURVE",
"27 1200 CURVE SMOOTH",
"501 1200 LINE",
"1201 500 LINE",
"701 0 LINE"
);
},
{
closed = 1;
nodes = (
"158 1005 OFFCURVE",
"148 981 OFFCURVE",
"148 953 CURVE SMOOTH",
"148 897 OFFCURVE",
"193 852 OFFCURVE",
"249 852 CURVE SMOOTH",
"305 852 OFFCURVE",
"350 897 OFFCURVE",
"350 953 CURVE SMOOTH",
"350 1009 OFFCURVE",
"305 1054 OFFCURVE",
"249 1054 CURVE SMOOTH",
"221 1054 OFFCURVE",
"197 1044 OFFCURVE",
"178 1024 CURVE"
);
},
{
closed = 1;
nodes = (
"701 1200 LINE",
"801 1200 LINE",
"1501 500 LINE",
"1001 0 LINE",
"951 50 LINE",
"1401 500 LINE"
);
}
);
width = 1200;
}
);
unicode = E042;
},
{
glyphname = uniE043;
layers = (
{
layerId = "9ECC7D36-9140-4F4B-A408-CD21EECD2CFD";
name = Regular;
paths = (
{
closed = 1;
nodes = (
"100 0 LINE",
"100 1025 LINE",
"275 1200 LINE",
"1200 1200 LINE",
"1200 200 LINE",
"1100 100 LINE",
"1100 1100 LINE",
"350 1100 LINE",
"250 1000 LINE",
"1000 1000 LINE",
"1000 0 LINE"
);
}
);
width = 1200;
}
);
unicode = E043;
},
{
glyphname = uniE044;
layers = (
{
layerId = "9ECC7D36-9140-4F4B-A408-CD21EECD2CFD";
name = Regular;
paths = (
{
closed = 1;
nodes = (
"200 0 LINE",
"650 444 LINE",
"1100 1 LINE",
"1100 1151 LINE SMOOTH",
"1100 1178 OFFCURVE",
"1078 1201 OFFCURVE",
"1050 1201 CURVE SMOOTH",
"250 1201 LINE SMOOTH",
"222 1201 OFFCURVE",
"200 1178 OFFCURVE",
"200 1151 CURVE SMOOTH"
);
}
);
width = 1200;
}
);
unicode = E044;
},
{
glyphname = uniE045;
layers = (
{
layerId = "9ECC7D36-9140-4F4B-A408-CD21EECD2CFD";
name = Regular;
paths = (
{
closed = 1;
nodes = (
"0 100 LINE",
"0 800 LINE",
"200 800 LINE",
"300 600 LINE",
"900 600 LINE",
"1000 800 LINE",
"1200 800 LINE",
"1200 100 LINE",
"1000 100 LINE",
"1000 300 LINE",
"200 300 LINE",
"200 100 LINE"
);
},
{
closed = 1;
nodes = (
"253 829 LINE",
"293 705 LINE",
"885 705 LINE",
"947 829 LINE",
"853 1175 LINE",
"850 1190 OFFCURVE",
"838 1200 OFFCURVE",
"825 1200 CURVE SMOOTH",
"375 1200 LINE SMOOTH",
"362 1200 OFFCURVE",
"350 1190 OFFCURVE",
"347 1175 CURVE"
);
},
{
closed = 1;
nodes = (
"319 176 LINE SMOOTH",
"322 189 OFFCURVE",
"337 200 OFFCURVE",
"350 200 CURVE SMOOTH",
"850 200 LINE SMOOTH",
"863 200 OFFCURVE",
"878 189 OFFCURVE",
"881 176 CURVE SMOOTH",
"919 24 LINE SMOOTH",
"922 11 OFFCURVE",
"913 0 OFFCURVE",
"900 0 CURVE SMOOTH",
"300 0 LINE SMOOTH",
"287 0 OFFCURVE",
"278 11 OFFCURVE",
"281 24 CURVE SMOOTH"
);
}
);
width = 1200;
}
);
unicode = E045;
},
{
glyphname = uniE046;
layers = (
{
layerId = "9ECC7D36-9140-4F4B-A408-CD21EECD2CFD";
name = Regular;
paths = (
{
closed = 1;
nodes = (
"0 200 LINE SMOOTH",
"0 145 OFFCURVE",
"45 100 OFFCURVE",
"100 100 CURVE SMOOTH",
"1100 100 LINE SMOOTH",
"1155 100 OFFCURVE",
"1200 145 OFFCURVE",
"1200 200 CURVE SMOOTH",
"1200 800 LINE SMOOTH",
"1200 855 OFFCURVE",
"1155 900 OFFCURVE",
"1100 900 CURVE SMOOTH",
"950 900 LINE",
"947 905 OFFCURVE",
"944 913 OFFCURVE",
"939 922 CURVE SMOOTH",
"929 940 OFFCURVE",
"889 995 OFFCURVE",
"853 1031 CURVE SMOOTH",
"816 1066 OFFCURVE",
"756 1100 OFFCURVE",
"700 1100 CURVE SMOOTH",
"500 1100 LINE SMOOTH",
"445 1100 OFFCURVE",
"387 1069 OFFCURVE",
"348 1030 CURVE SMOOTH",
"309 990 OFFCURVE",
"277 948 OFFCURVE",
"262 920 CURVE",
"250 900 LINE",
"100 900 LINE SMOOTH",
"45 900 OFFCURVE",
"0 855 OFFCURVE",
"0 800 CURVE SMOOTH"
);
},
{
closed = 1;
nodes = (
"380 376 OFFCURVE",
"356 433 OFFCURVE",
"356 500 CURVE SMOOTH",
"356 633 OFFCURVE",
"467 744 OFFCURVE",
"600 744 CURVE SMOOTH",
"733 744 OFFCURVE",
"844 633 OFFCURVE",
"844 500 CURVE SMOOTH",
"844 367 OFFCURVE",
"733 256 OFFCURVE",
"600 256 CURVE SMOOTH",
"533 256 OFFCURVE",
"476 280 OFFCURVE",
"428 328 CURVE SMOOTH"
);
},
{
closed = 1;
nodes = (
"504 554 OFFCURVE",
"494 529 OFFCURVE",
"494 500 CURVE SMOOTH",
"494 441 OFFCURVE",
"541 394 OFFCURVE",
"600 394 CURVE SMOOTH",
"659 394 OFFCURVE",
"706 441 OFFCURVE",
"706 500 CURVE SMOOTH",
"706 559 OFFCURVE",
"659 606 OFFCURVE",
"600 606 CURVE SMOOTH",
"571 606 OFFCURVE",
"546 596 OFFCURVE",
"525 575 CURVE SMOOTH"
);
},
{
closed = 1;
nodes = (
"900 700 LINE",
"900 800 LINE",
"1000 800 LINE",
"1000 700 LINE"
);
}
);
width = 1200;
}
);
unicode = E046;
},
{
glyphname = uniE047;
layers = (
{
layerId = "9ECC7D36-9140-4F4B-A408-CD21EECD2CFD";
name = Regular;
paths = (
{
closed = 1;
nodes = (
"53 0 LINE",
"418 0 LINE",
"418 66 LINE",
"363 66 OFFCURVE",
"321 79 OFFCURVE",
"297 115 CURVE SMOOTH",
"285 133 OFFCURVE",
"285 157 OFFCURVE",
"298 186 CURVE",
"390 420 LINE",
"781 420 LINE",
"863 198 LINE SMOOTH",
"884 138 OFFCURVE",
"854 66 OFFCURVE",
"783 66 CURVE",
"783 0 LINE",
"1200 0 LINE",
"1200 66 LINE",
"1155 67 OFFCURVE",
"1113 120 OFFCURVE",
"1093 151 CURVE SMOOTH",
"1083 166 OFFCURVE",
"1076 179 OFFCURVE",
"1072 188 CURVE SMOOTH",
"1066 201 LINE",
"681 1199 LINE",
"588 1199 LINE",
"189 193 LINE",
"173 161 OFFCURVE",
"156 136 OFFCURVE",
"137 118 CURVE SMOOTH",
"121 102 OFFCURVE",
"88 82 OFFCURVE",
"68 73 CURVE SMOOTH",
"53 66 LINE"
);
},
{
closed = 1;
nodes = (
"416 521 LINE",
"594 978 LINE",
"640 838 LINE",
"756 521 LINE"
);
}
);
width = 1200;
}
);
unicode = E047;
},
{
glyphname = uniE048;
layers = (
{
layerId = "9ECC7D36-9140-4F4B-A408-CD21EECD2CFD";
name = Regular;
paths = (
{
closed = 1;
nodes = (
"100 0 LINE",
"100 89 LINE",
"155 98 OFFCURVE",
"200 134 OFFCURVE",
"200 187 CURVE SMOOTH",
"200 1014 LINE SMOOTH",
"200 1051 OFFCURVE",
"200 1060 OFFCURVE",
"194 1080 CURVE SMOOTH",
"188 1099 OFFCURVE",
"173 1105 OFFCURVE",
"149 1115 CURVE SMOOTH",
"137 1120 OFFCURVE",
"121 1124 OFFCURVE",
"100 1129 CURVE",
"100 1200 LINE",
"571 1199 LINE SMOOTH",
"731 1199 OFFCURVE",
"877 1070 OFFCURVE",
"877 883 CURVE SMOOTH",
"877 810 OFFCURVE",
"860 744 OFFCURVE",
"838 708 CURVE SMOOTH",
"816 671 OFFCURVE",
"791 643 OFFCURVE",
"776 632 CURVE",
"764 625 LINE",
"769 623 OFFCURVE",
"777 620 OFFCURVE",
"786 616 CURVE SMOOTH",
"804 608 OFFCURVE",
"859 570 OFFCURVE",
"894 527 CURVE SMOOTH",
"929 483 OFFCURVE",
"963 399 OFFCURVE",
"963 306 CURVE SMOOTH",
"963 194 OFFCURVE",
"873 90 OFFCURVE",
"762 39 CURVE SMOOTH",
"707 13 OFFCURVE",
"653 0 OFFCURVE",
"600 0 CURVE SMOOTH"
);
},
{
closed = 1;
nodes = (
"400 200 LINE",
"561 200 LINE SMOOTH",
"680 200 OFFCURVE",
"778 269 OFFCURVE",
"778 381 CURVE SMOOTH",
"778 501 OFFCURVE",
"684 600 OFFCURVE",
"559 600 CURVE SMOOTH",
"400 600 LINE"
);
},
{
closed = 1;
nodes = (
"400 700 LINE",
"539 700 LINE SMOOTH",
"640 700 OFFCURVE",
"723 797 OFFCURVE",
"723 900 CURVE SMOOTH",
"723 1009 OFFCURVE",
"607 1079 OFFCURVE",
"400 1079 CURVE"
);
}
);
width = 1200;
}
);
unicode = E048;
},
{
glyphname = uniE049;
layers = (
{
layerId = "9ECC7D36-9140-4F4B-A408-CD21EECD2CFD";
name = Regular;
paths = (
{
closed = 1;
nodes = (
"200 0 LINE",
"200 57 LINE",
"303 66 OFFCURVE",
"389 115 OFFCURVE",
"400 178 CURVE SMOOTH",
"573 1027 LINE SMOOTH",
"586 1102 OFFCURVE",
"567 1113 OFFCURVE",
"472 1138 CURVE SMOOTH",
"468 1139 OFFCURVE",
"465 1140 OFFCURVE",
"462 1141 CURVE SMOOTH",
"459 1142 OFFCURVE",
"455 1142 OFFCURVE",
"452 1143 CURVE",
"452 1200 LINE",
"877 1200 LINE",
"879 1143 LINE",
"835 1132 OFFCURVE",
"794 1107 OFFCURVE",
"771 1081 CURVE SMOOTH",
"748 1055 OFFCURVE",
"731 1028 OFFCURVE",
"724 1012 CURVE SMOOTH",
"719 1000 LINE",
"591 175 LINE SMOOTH",
"578 106 OFFCURVE",
"605 65 OFFCURVE",
"700 57 CURVE",
"700 0 LINE"
);
}
);
width = 1200;
}
);
unicode = E049;
},
{
glyphname = uniE050;
layers = (
{
layerId = "9ECC7D36-9140-4F4B-A408-CD21EECD2CFD";
name = Regular;
paths = (
{
closed = 1;
nodes = (
"-75 200 LINE",
"0 200 LINE",
"0 1000 LINE",
"-75 1000 LINE",
"50 1167 LINE",
"175 1000 LINE",
"100 1000 LINE",
"100 200 LINE",
"175 200 LINE",
"50 33 LINE"
);
},
{
closed = 1;
nodes = (
"300 900 LINE",
"300 1200 LINE",
"450 1200 LINE",
"1150 1200 LINE",
"1300 1200 LINE",
"1300 900 LINE",
"1250 900 LINE",
"1250 939 OFFCURVE",
"1238 965 OFFCURVE",
"1224 979 CURVE SMOOTH",
"1210 993 OFFCURVE",
"1173 998 OFFCURVE",
"1151 999 CURVE",
"1140 1000 OFFCURVE",
"1123 1000 OFFCURVE",
"1100 1000 CURVE SMOOTH",
"900 1000 LINE",
"900 150 LINE",
"1000 100 LINE",
"1000 0 LINE",
"600 0 LINE",
"600 100 LINE",
"700 150 LINE",
"700 1000 LINE",
"500 1000 LINE SMOOTH",
"455 1000 OFFCURVE",
"441 1000 OFFCURVE",
"410 994 CURVE SMOOTH",
"378 988 OFFCURVE",
"369 975 OFFCURVE",
"358 949 CURVE SMOOTH",
"352 936 OFFCURVE",
"349 919 OFFCURVE",
"349 900 CURVE"
);
}
);
width = 1200;
}
);
unicode = E050;
},
{
glyphname = uniE051;
layers = (
{
layerId = "9ECC7D36-9140-4F4B-A408-CD21EECD2CFD";
name = Regular;
paths = (
{
closed = 1;
nodes = (
"33 51 LINE",
"200 176 LINE",
"200 101 LINE",
"1000 101 LINE",
"1000 176 LINE",
"1167 51 LINE",
"1000 -74 LINE",
"1000 1 LINE",
"200 1 LINE",
"200 -74 LINE"
);
},
{
closed = 1;
nodes = (
"100 901 LINE",
"100 1201 LINE",
"250 1201 LINE",
"950 1201 LINE",
"1100 1201 LINE",
"1100 901 LINE",
"1050 901 LINE",
"1050 940 OFFCURVE",
"1037 966 OFFCURVE",
"1024 980 CURVE SMOOTH",
"1011 994 OFFCURVE",
"973 999 OFFCURVE",
"951 1000 CURVE",
"940 1001 OFFCURVE",
"923 1001 OFFCURVE",
"900 1001 CURVE SMOOTH",
"700 1001 LINE",
"700 351 LINE",
"800 301 LINE",
"800 201 LINE",
"400 201 LINE",
"400 301 LINE",
"500 351 LINE",
"500 1001 LINE",
"300 1001 LINE SMOOTH",
"255 1001 OFFCURVE",
"241 1001 OFFCURVE",
"210 995 CURVE SMOOTH",
"179 989 OFFCURVE",
"169 976 OFFCURVE",
"158 950 CURVE SMOOTH",
"153 937 OFFCURVE",
"150 920 OFFCURVE",
"150 901 CURVE"
);
}
);
width = 1200;
}
);
unicode = E051;
},
{
glyphname = uniE052;
layers = (
{
layerId = "9ECC7D36-9140-4F4B-A408-CD21EECD2CFD";
name = Regular;
paths = (
{
closed = 1;
nodes = (
"0 50 LINE SMOOTH",
"0 23 OFFCURVE",
"22 0 OFFCURVE",
"50 0 CURVE SMOOTH",
"1150 0 LINE SMOOTH",
"1178 0 OFFCURVE",
"1200 23 OFFCURVE",
"1200 50 CURVE SMOOTH",
"1200 150 LINE SMOOTH",
"1200 178 OFFCURVE",
"1178 200 OFFCURVE",
"1150 200 CURVE SMOOTH",
"50 200 LINE SMOOTH",
"22 200 OFFCURVE",
"0 178 OFFCURVE",
"0 150 CURVE SMOOTH"
);
},
{
closed = 1;
nodes = (
"0 350 LINE SMOOTH",
"0 323 OFFCURVE",
"22 300 OFFCURVE",
"50 300 CURVE SMOOTH",
"850 300 LINE SMOOTH",
"878 300 OFFCURVE",
"900 323 OFFCURVE",
"900 350 CURVE SMOOTH",
"900 450 LINE SMOOTH",
"900 478 OFFCURVE",
"878 500 OFFCURVE",
"850 500 CURVE SMOOTH",
"50 500 LINE SMOOTH",
"22 500 OFFCURVE",
"0 478 OFFCURVE",
"0 450 CURVE SMOOTH"
);
},
{
closed = 1;
nodes = (
"0 650 LINE SMOOTH",
"0 623 OFFCURVE",
"22 600 OFFCURVE",
"50 600 CURVE SMOOTH",
"1050 600 LINE SMOOTH",
"1078 600 OFFCURVE",
"1100 623 OFFCURVE",
"1100 650 CURVE SMOOTH",
"1100 750 LINE SMOOTH",
"1100 778 OFFCURVE",
"1078 800 OFFCURVE",
"1050 800 CURVE SMOOTH",
"50 800 LINE SMOOTH",
"22 800 OFFCURVE",
"0 778 OFFCURVE",
"0 750 CURVE SMOOTH"
);
},
{
closed = 1;
nodes = (
"0 950 LINE SMOOTH",
"0 923 OFFCURVE",
"22 900 OFFCURVE",
"50 900 CURVE SMOOTH",
"650 900 LINE SMOOTH",
"678 900 OFFCURVE",
"700 923 OFFCURVE",
"700 950 CURVE SMOOTH",
"700 1050 LINE SMOOTH",
"700 1078 OFFCURVE",
"678 1100 OFFCURVE",
"650 1100 CURVE SMOOTH",
"50 1100 LINE SMOOTH",
"22 1100 OFFCURVE",
"0 1078 OFFCURVE",
"0 1050 CURVE SMOOTH"
);
}
);
width = 1200;
}
);
unicode = E052;
},
{
glyphname = uniE053;
layers = (
{
layerId = "9ECC7D36-9140-4F4B-A408-CD21EECD2CFD";
name = Regular;
paths = (
{
closed = 1;
nodes = (
"0 50 LINE SMOOTH",
"0 23 OFFCURVE",
"22 0 OFFCURVE",
"50 0 CURVE SMOOTH",
"1150 0 LINE SMOOTH",
"1178 0 OFFCURVE",
"1200 23 OFFCURVE",
"1200 50 CURVE SMOOTH",
"1200 150 LINE SMOOTH",
"1200 178 OFFCURVE",
"1178 200 OFFCURVE",
"1150 200 CURVE SMOOTH",
"50 200 LINE SMOOTH",
"22 200 OFFCURVE",
"0 178 OFFCURVE",
"0 150 CURVE SMOOTH"
);
},
{
closed = 1;
nodes = (
"0 650 LINE SMOOTH",
"0 623 OFFCURVE",
"22 600 OFFCURVE",
"50 600 CURVE SMOOTH",
"1150 600 LINE SMOOTH",
"1178 600 OFFCURVE",
"1200 623 OFFCURVE",
"1200 650 CURVE SMOOTH",
"1200 750 LINE SMOOTH",
"1200 778 OFFCURVE",
"1178 800 OFFCURVE",
"1150 800 CURVE SMOOTH",
"50 800 LINE SMOOTH",
"22 800 OFFCURVE",
"0 778 OFFCURVE",
"0 750 CURVE SMOOTH"
);
},
{
closed = 1;
nodes = (
"200 350 LINE SMOOTH",
"200 323 OFFCURVE",
"222 300 OFFCURVE",
"250 300 CURVE SMOOTH",
"950 300 LINE SMOOTH",
"978 300 OFFCURVE",
"1000 323 OFFCURVE",
"1000 350 CURVE SMOOTH",
"1000 450 LINE SMOOTH",
"1000 478 OFFCURVE",
"978 500 OFFCURVE",
"950 500 CURVE SMOOTH",
"250 500 LINE SMOOTH",
"222 500 OFFCURVE",
"200 478 OFFCURVE",
"200 450 CURVE SMOOTH"
);
},
{
closed = 1;
nodes = (
"200 950 LINE SMOOTH",
"200 923 OFFCURVE",
"222 900 OFFCURVE",
"250 900 CURVE SMOOTH",
"950 900 LINE SMOOTH",
"978 900 OFFCURVE",
"1000 923 OFFCURVE",
"1000 950 CURVE SMOOTH",
"1000 1050 LINE SMOOTH",
"1000 1078 OFFCURVE",
"978 1100 OFFCURVE",
"950 1100 CURVE SMOOTH",
"250 1100 LINE SMOOTH",
"222 1100 OFFCURVE",
"200 1078 OFFCURVE",
"200 1050 CURVE SMOOTH"
);
}
);
width = 1200;
}
);
unicode = E053;
},
{
glyphname = uniE054;
layers = (
{
layerId = "9ECC7D36-9140-4F4B-A408-CD21EECD2CFD";
name = Regular;
paths = (
{
closed = 1;
nodes = (
"0 150 LINE SMOOTH",
"0 178 OFFCURVE",
"22 200 OFFCURVE",
"50 200 CURVE SMOOTH",
"1150 200 LINE SMOOTH",
"1178 200 OFFCURVE",
"1200 178 OFFCURVE",
"1200 150 CURVE SMOOTH",
"1200 50 LINE SMOOTH",
"1200 23 OFFCURVE",
"1178 0 OFFCURVE",
"1150 0 CURVE SMOOTH",
"50 0 LINE SMOOTH",
"22 0 OFFCURVE",
"0 23 OFFCURVE",
"0 50 CURVE SMOOTH"
);
},
{
closed = 1;
nodes = (
"100 750 LINE SMOOTH",
"100 778 OFFCURVE",
"122 800 OFFCURVE",
"150 800 CURVE SMOOTH",
"1150 800 LINE SMOOTH",
"1178 800 OFFCURVE",
"1200 778 OFFCURVE",
"1200 750 CURVE SMOOTH",
"1200 650 LINE SMOOTH",
"1200 623 OFFCURVE",
"1178 600 OFFCURVE",
"1150 600 CURVE SMOOTH",
"150 600 LINE SMOOTH",
"122 600 OFFCURVE",
"100 623 OFFCURVE",
"100 650 CURVE SMOOTH"
);
},
{
closed = 1;
nodes = (
"300 450 LINE SMOOTH",
"300 478 OFFCURVE",
"322 500 OFFCURVE",
"350 500 CURVE SMOOTH",
"1150 500 LINE SMOOTH",
"1178 500 OFFCURVE",
"1200 478 OFFCURVE",
"1200 450 CURVE SMOOTH",
"1200 350 LINE SMOOTH",
"1200 323 OFFCURVE",
"1178 300 OFFCURVE",
"1150 300 CURVE SMOOTH",
"350 300 LINE SMOOTH",
"322 300 OFFCURVE",
"300 323 OFFCURVE",
"300 350 CURVE SMOOTH"
);
},
{
closed = 1;
nodes = (
"500 1050 LINE SMOOTH",
"500 1078 OFFCURVE",
"522 1100 OFFCURVE",
"550 1100 CURVE SMOOTH",
"1150 1100 LINE SMOOTH",
"1178 1100 OFFCURVE",
"1200 1078 OFFCURVE",
"1200 1050 CURVE SMOOTH",
"1200 950 LINE SMOOTH",
"1200 923 OFFCURVE",
"1178 900 OFFCURVE",
"1150 900 CURVE SMOOTH",
"550 900 LINE SMOOTH",
"522 900 OFFCURVE",
"500 923 OFFCURVE",
"500 950 CURVE SMOOTH"
);
}
);
width = 1200;
}
);
unicode = E054;
},
{
glyphname = uniE055;
layers = (
{
layerId = "9ECC7D36-9140-4F4B-A408-CD21EECD2CFD";
name = Regular;
paths = (
{
closed = 1;
nodes = (
"0 150 LINE SMOOTH",
"0 178 OFFCURVE",
"22 200 OFFCURVE",
"50 200 CURVE SMOOTH",
"1150 200 LINE SMOOTH",
"1178 200 OFFCURVE",
"1200 178 OFFCURVE",
"1200 150 CURVE SMOOTH",
"1200 50 LINE SMOOTH",
"1200 23 OFFCURVE",
"1178 0 OFFCURVE",
"1150 0 CURVE SMOOTH",
"50 0 LINE SMOOTH",
"22 0 OFFCURVE",
"0 23 OFFCURVE",
"0 50 CURVE SMOOTH"
);
},
{
closed = 1;
nodes = (
"0 450 LINE SMOOTH",
"0 478 OFFCURVE",
"22 500 OFFCURVE",
"50 500 CURVE SMOOTH",
"1150 500 LINE SMOOTH",
"1178 500 OFFCURVE",
"1200 478 OFFCURVE",
"1200 450 CURVE SMOOTH",
"1200 350 LINE SMOOTH",
"1200 323 OFFCURVE",
"1178 300 OFFCURVE",
"1150 300 CURVE SMOOTH",
"50 300 LINE SMOOTH",
"22 300 OFFCURVE",
"0 323 OFFCURVE",
"0 350 CURVE SMOOTH"
);
},
{
closed = 1;
nodes = (
"0 750 LINE SMOOTH",
"0 778 OFFCURVE",
"22 800 OFFCURVE",
"50 800 CURVE SMOOTH",
"1150 800 LINE SMOOTH",
"1178 800 OFFCURVE",
"1200 778 OFFCURVE",
"1200 750 CURVE SMOOTH",
"1200 650 LINE SMOOTH",
"1200 623 OFFCURVE",
"1178 600 OFFCURVE",
"1150 600 CURVE SMOOTH",
"50 600 LINE SMOOTH",
"22 600 OFFCURVE",
"0 623 OFFCURVE",
"0 650 CURVE SMOOTH"
);
},
{
closed = 1;
nodes = (
"0 1050 LINE SMOOTH",
"0 1078 OFFCURVE",
"22 1100 OFFCURVE",
"50 1100 CURVE SMOOTH",
"1150 1100 LINE SMOOTH",
"1178 1100 OFFCURVE",
"1200 1078 OFFCURVE",
"1200 1050 CURVE SMOOTH",
"1200 950 LINE SMOOTH",
"1200 923 OFFCURVE",
"1178 900 OFFCURVE",
"1150 900 CURVE SMOOTH",
"50 900 LINE SMOOTH",
"22 900 OFFCURVE",
"0 923 OFFCURVE",
"0 950 CURVE SMOOTH"
);
}
);
width = 1200;
}
);
unicode = E055;
},
{
glyphname = uniE056;
layers = (
{
layerId = "9ECC7D36-9140-4F4B-A408-CD21EECD2CFD";
name = Regular;
paths = (
{
closed = 1;
nodes = (
"0 150 LINE SMOOTH",
"0 178 OFFCURVE",
"22 200 OFFCURVE",
"50 200 CURVE SMOOTH",
"150 200 LINE SMOOTH",
"178 200 OFFCURVE",
"200 178 OFFCURVE",
"200 150 CURVE SMOOTH",
"200 50 LINE SMOOTH",
"200 23 OFFCURVE",
"178 0 OFFCURVE",
"150 0 CURVE SMOOTH",
"50 0 LINE SMOOTH",
"22 0 OFFCURVE",
"0 23 OFFCURVE",
"0 50 CURVE SMOOTH"
);
},
{
closed = 1;
nodes = (
"0 450 LINE SMOOTH",
"0 478 OFFCURVE",
"22 500 OFFCURVE",
"50 500 CURVE SMOOTH",
"150 500 LINE SMOOTH",
"178 500 OFFCURVE",
"200 478 OFFCURVE",
"200 450 CURVE SMOOTH",
"200 350 LINE SMOOTH",
"200 323 OFFCURVE",
"178 300 OFFCURVE",
"150 300 CURVE SMOOTH",
"50 300 LINE SMOOTH",
"22 300 OFFCURVE",
"0 323 OFFCURVE",
"0 350 CURVE SMOOTH"
);
},
{
closed = 1;
nodes = (
"0 750 LINE SMOOTH",
"0 778 OFFCURVE",
"22 800 OFFCURVE",
"50 800 CURVE SMOOTH",
"150 800 LINE SMOOTH",
"178 800 OFFCURVE",
"200 778 OFFCURVE",
"200 750 CURVE SMOOTH",
"200 650 LINE SMOOTH",
"200 623 OFFCURVE",
"178 600 OFFCURVE",
"150 600 CURVE SMOOTH",
"50 600 LINE SMOOTH",
"22 600 OFFCURVE",
"0 623 OFFCURVE",
"0 650 CURVE SMOOTH"
);
},
{
closed = 1;
nodes = (
"0 1050 LINE SMOOTH",
"0 1078 OFFCURVE",
"22 1100 OFFCURVE",
"50 1100 CURVE SMOOTH",
"150 1100 LINE SMOOTH",
"178 1100 OFFCURVE",
"200 1078 OFFCURVE",
"200 1050 CURVE SMOOTH",
"200 950 LINE SMOOTH",
"200 923 OFFCURVE",
"178 900 OFFCURVE",
"150 900 CURVE SMOOTH",
"50 900 LINE SMOOTH",
"22 900 OFFCURVE",
"0 923 OFFCURVE",
"0 950 CURVE SMOOTH"
);
},
{
closed = 1;
nodes = (
"300 150 LINE SMOOTH",
"300 178 OFFCURVE",
"322 200 OFFCURVE",
"350 200 CURVE SMOOTH",
"1150 200 LINE SMOOTH",
"1178 200 OFFCURVE",
"1200 178 OFFCURVE",
"1200 150 CURVE SMOOTH",
"1200 50 LINE SMOOTH",
"1200 23 OFFCURVE",
"1178 0 OFFCURVE",
"1150 0 CURVE SMOOTH",
"350 0 LINE SMOOTH",
"322 0 OFFCURVE",
"300 23 OFFCURVE",
"300 50 CURVE SMOOTH"
);
},
{
closed = 1;
nodes = (
"300 450 LINE SMOOTH",
"300 478 OFFCURVE",
"322 500 OFFCURVE",
"350 500 CURVE SMOOTH",
"1150 500 LINE SMOOTH",
"1178 500 OFFCURVE",
"1200 478 OFFCURVE",
"1200 450 CURVE SMOOTH",
"1200 350 LINE SMOOTH",
"1200 323 OFFCURVE",
"1178 300 OFFCURVE",
"1150 300 CURVE SMOOTH",
"350 300 LINE SMOOTH",
"322 300 OFFCURVE",
"300 323 OFFCURVE",
"300 350 CURVE SMOOTH"
);
},
{
closed = 1;
nodes = (
"300 750 LINE SMOOTH",
"300 778 OFFCURVE",
"322 800 OFFCURVE",
"350 800 CURVE SMOOTH",
"1150 800 LINE SMOOTH",
"1178 800 OFFCURVE",
"1200 778 OFFCURVE",
"1200 750 CURVE SMOOTH",
"1200 650 LINE SMOOTH",
"1200 623 OFFCURVE",
"1178 600 OFFCURVE",
"1150 600 CURVE SMOOTH",
"350 600 LINE SMOOTH",
"322 600 OFFCURVE",
"300 623 OFFCURVE",
"300 650 CURVE SMOOTH"
);
},
{
closed = 1;
nodes = (
"300 1050 LINE SMOOTH",
"300 1078 OFFCURVE",
"322 1100 OFFCURVE",
"350 1100 CURVE SMOOTH",
"1150 1100 LINE SMOOTH",
"1178 1100 OFFCURVE",
"1200 1078 OFFCURVE",
"1200 1050 CURVE SMOOTH",
"1200 950 LINE SMOOTH",
"1200 923 OFFCURVE",
"1178 900 OFFCURVE",
"1150 900 CURVE SMOOTH",
"350 900 LINE SMOOTH",
"322 900 OFFCURVE",
"300 923 OFFCURVE",
"300 950 CURVE SMOOTH"
);
}
);
width = 1200;
}
);
unicode = E056;
},
{
glyphname = uniE057;
layers = (
{
layerId = "9ECC7D36-9140-4F4B-A408-CD21EECD2CFD";
name = Regular;
paths = (
{
closed = 1;
nodes = (
"-101 500 LINE",
"-101 600 LINE",
"100 600 LINE",
"100 675 LINE",
"266 550 LINE",
"100 425 LINE",
"100 500 LINE"
);
},
{
closed = 1;
nodes = (
"300 0 LINE",
"400 0 LINE",
"400 1100 LINE",
"300 1100 LINE"
);
},
{
closed = 1;
nodes = (
"500 50 LINE SMOOTH",
"500 23 OFFCURVE",
"522 0 OFFCURVE",
"550 0 CURVE SMOOTH",
"1150 0 LINE SMOOTH",
"1177 0 OFFCURVE",
"1200 23 OFFCURVE",
"1200 50 CURVE SMOOTH",
"1200 150 LINE SMOOTH",
"1200 178 OFFCURVE",
"1177 200 OFFCURVE",
"1150 200 CURVE SMOOTH",
"550 200 LINE SMOOTH",
"522 200 OFFCURVE",
"500 178 OFFCURVE",
"500 150 CURVE SMOOTH"
);
},
{
closed = 1;
nodes = (
"500 350 LINE SMOOTH",
"500 323 OFFCURVE",
"522 300 OFFCURVE",
"550 300 CURVE SMOOTH",
"850 300 LINE SMOOTH",
"877 300 OFFCURVE",
"900 323 OFFCURVE",
"900 350 CURVE SMOOTH",
"900 450 LINE SMOOTH",
"900 478 OFFCURVE",
"877 500 OFFCURVE",
"850 500 CURVE SMOOTH",
"550 500 LINE SMOOTH",
"522 500 OFFCURVE",
"500 478 OFFCURVE",
"500 450 CURVE SMOOTH"
);
},
{
closed = 1;
nodes = (
"500 650 LINE SMOOTH",
"500 623 OFFCURVE",
"522 600 OFFCURVE",
"550 600 CURVE SMOOTH",
"1050 600 LINE SMOOTH",
"1077 600 OFFCURVE",
"1100 623 OFFCURVE",
"1100 650 CURVE SMOOTH",
"1100 750 LINE SMOOTH",
"1100 778 OFFCURVE",
"1077 800 OFFCURVE",
"1050 800 CURVE SMOOTH",
"550 800 LINE SMOOTH",
"522 800 OFFCURVE",
"500 778 OFFCURVE",
"500 750 CURVE SMOOTH"
);
},
{
closed = 1;
nodes = (
"500 950 LINE SMOOTH",
"500 923 OFFCURVE",
"522 900 OFFCURVE",
"550 900 CURVE SMOOTH",
"650 900 LINE SMOOTH",
"677 900 OFFCURVE",
"700 923 OFFCURVE",
"700 950 CURVE SMOOTH",
"700 1050 LINE SMOOTH",
"700 1078 OFFCURVE",
"677 1100 OFFCURVE",
"650 1100 CURVE SMOOTH",
"550 1100 LINE SMOOTH",
"522 1100 OFFCURVE",
"500 1078 OFFCURVE",
"500 1050 CURVE SMOOTH"
);
}
);
width = 1200;
}
);
unicode = E057;
},
{
glyphname = uniE058;
layers = (
{
layerId = "9ECC7D36-9140-4F4B-A408-CD21EECD2CFD";
name = Regular;
paths = (
{
closed = 1;
nodes = (
"1 50 LINE SMOOTH",
"1 23 OFFCURVE",
"23 0 OFFCURVE",
"51 0 CURVE SMOOTH",
"651 0 LINE SMOOTH",
"678 0 OFFCURVE",
"701 23 OFFCURVE",
"701 50 CURVE SMOOTH",
"701 150 LINE SMOOTH",
"701 178 OFFCURVE",
"678 200 OFFCURVE",
"651 200 CURVE SMOOTH",
"51 200 LINE SMOOTH",
"23 200 OFFCURVE",
"1 178 OFFCURVE",
"1 150 CURVE SMOOTH"
);
},
{
closed = 1;
nodes = (
"1 350 LINE SMOOTH",
"1 323 OFFCURVE",
"23 300 OFFCURVE",
"51 300 CURVE SMOOTH",
"351 300 LINE SMOOTH",
"378 300 OFFCURVE",
"401 323 OFFCURVE",
"401 350 CURVE SMOOTH",
"401 450 LINE SMOOTH",
"401 478 OFFCURVE",
"378 500 OFFCURVE",
"351 500 CURVE SMOOTH",
"51 500 LINE SMOOTH",
"23 500 OFFCURVE",
"1 478 OFFCURVE",
"1 450 CURVE SMOOTH"
);
},
{
closed = 1;
nodes = (
"1 650 LINE SMOOTH",
"1 623 OFFCURVE",
"23 600 OFFCURVE",
"51 600 CURVE SMOOTH",
"551 600 LINE SMOOTH",
"578 600 OFFCURVE",
"601 623 OFFCURVE",
"601 650 CURVE SMOOTH",
"601 750 LINE SMOOTH",
"601 778 OFFCURVE",
"578 800 OFFCURVE",
"551 800 CURVE SMOOTH",
"51 800 LINE SMOOTH",
"23 800 OFFCURVE",
"1 778 OFFCURVE",
"1 750 CURVE SMOOTH"
);
},
{
closed = 1;
nodes = (
"1 950 LINE SMOOTH",
"1 923 OFFCURVE",
"23 900 OFFCURVE",
"51 900 CURVE SMOOTH",
"151 900 LINE SMOOTH",
"178 900 OFFCURVE",
"201 923 OFFCURVE",
"201 950 CURVE SMOOTH",
"201 1050 LINE SMOOTH",
"201 1078 OFFCURVE",
"178 1100 OFFCURVE",
"151 1100 CURVE SMOOTH",
"51 1100 LINE SMOOTH",
"23 1100 OFFCURVE",
"1 1078 OFFCURVE",
"1 1050 CURVE SMOOTH"
);
},
{
closed = 1;
nodes = (
"801 0 LINE",
"801 1100 LINE",
"901 1100 LINE",
"901 0 LINE"
);
},
{
closed = 1;
nodes = (
"934 550 LINE",
"1101 425 LINE",
"1101 500 LINE",
"1301 500 LINE",
"1301 600 LINE",
"1101 600 LINE",
"1101 675 LINE"
);
}
);
width = 1200;
}
);
unicode = E058;
},
{
glyphname = uniE059;
layers = (
{
layerId = "9ECC7D36-9140-4F4B-A408-CD21EECD2CFD";
name = Regular;
paths = (
{
closed = 1;
nodes = (
"0 925 LINE SMOOTH",
"0 966 OFFCURVE",
"34 1000 OFFCURVE",
"75 1000 CURVE SMOOTH",
"825 1000 LINE SMOOTH",
"866 1000 OFFCURVE",
"900 966 OFFCURVE",
"900 925 CURVE SMOOTH",
"900 275 LINE SMOOTH",
"900 234 OFFCURVE",
"866 200 OFFCURVE",
"825 200 CURVE SMOOTH",
"75 200 LINE SMOOTH",
"34 200 OFFCURVE",
"0 234 OFFCURVE",
"0 275 CURVE SMOOTH"
);
},
{
closed = 1;
nodes = (
"900 600 LINE",
"1200 900 LINE",
"1200 300 LINE"
);
}
);
width = 1200;
}
);
unicode = E059;
},
{
glyphname = uniE060;
layers = (
{
layerId = "9ECC7D36-9140-4F4B-A408-CD21EECD2CFD";
name = Regular;
paths = (
{
closed = 1;
nodes = (
"0 1056 LINE SMOOTH",
"0 1080 OFFCURVE",
"20 1100 OFFCURVE",
"44 1100 CURVE SMOOTH",
"1156 1100 LINE SMOOTH",
"1181 1100 OFFCURVE",
"1200 1080 OFFCURVE",
"1200 1056 CURVE SMOOTH",
"1200 44 LINE SMOOTH",
"1200 20 OFFCURVE",
"1181 0 OFFCURVE",
"1156 0 CURVE SMOOTH",
"44 0 LINE SMOOTH",
"20 0 OFFCURVE",
"0 20 OFFCURVE",
"0 44 CURVE SMOOTH"
);
},
{
closed = 1;
nodes = (
"100 263 LINE",
"347 445 LINE",
"645 314 LINE",
"571 470 LINE",
"864 788 LINE",
"1100 500 LINE",
"1100 1000 LINE",
"100 1000 LINE"
);
},
{
closed = 1;
nodes = (
"221 681 OFFCURVE",
"208 713 OFFCURVE",
"208 750 CURVE SMOOTH",
"208 825 OFFCURVE",
"267 884 OFFCURVE",
"342 884 CURVE SMOOTH",
"417 884 OFFCURVE",
"476 825 OFFCURVE",
"476 750 CURVE SMOOTH",
"476 675 OFFCURVE",
"417 616 OFFCURVE",
"342 616 CURVE SMOOTH",
"305 616 OFFCURVE",
"273 629 OFFCURVE",
"247 655 CURVE SMOOTH"
);
}
);
width = 1200;
}
);
unicode = E060;
},
{
glyphname = uniE062;
layers = (
{
layerId = "9ECC7D36-9140-4F4B-A408-CD21EECD2CFD";
name = Regular;
paths = (
{
closed = 1;
nodes = (
"148 910 OFFCURVE",
"234 1063 OFFCURVE",
"374 1149 CURVE SMOOTH",
"443 1192 OFFCURVE",
"519 1213 OFFCURVE",
"600 1213 CURVE SMOOTH",
"764 1213 OFFCURVE",
"911 1123 OFFCURVE",
"992 981 CURVE SMOOTH",
"1032 910 OFFCURVE",
"1052 833 OFFCURVE",
"1052 751 CURVE SMOOTH",
"1052 669 OFFCURVE",
"1028 578 OFFCURVE",
"979 479 CURVE",
"882 327 OFFCURVE",
"738 141 OFFCURVE",
"662 53 CURVE SMOOTH",
"605 -13 LINE",
"598 -7 OFFCURVE",
"589 2 OFFCURVE",
"578 13 CURVE SMOOTH",
"555 36 OFFCURVE",
"478 119 OFFCURVE",
"416 193 CURVE SMOOTH",
"354 267 OFFCURVE",
"268 383 OFFCURVE",
"211 483 CURVE",
"169 576 OFFCURVE",
"148 663 OFFCURVE",
"148 745 CURVE SMOOTH"
);
},
{
closed = 1;
nodes = (
"342 629 OFFCURVE",
"458 514 OFFCURVE",
"599 514 CURVE SMOOTH",
"742 514 OFFCURVE",
"857 629 OFFCURVE",
"857 772 CURVE SMOOTH",
"857 915 OFFCURVE",
"742 1029 OFFCURVE",
"599 1029 CURVE SMOOTH",
"456 1029 OFFCURVE",
"342 913 OFFCURVE",
"342 772 CURVE SMOOTH"
);
}
);
width = 1200;
}
);
unicode = E062;
},
{
glyphname = uniE063;
layers = (
{
layerId = "9ECC7D36-9140-4F4B-A408-CD21EECD2CFD";
name = Regular;
paths = (
{
closed = 1;
nodes = (
"17 441 OFFCURVE",
"1 519 OFFCURVE",
"1 600 CURVE SMOOTH",
"1 763 OFFCURVE",
"69 917 OFFCURVE",
"176 1024 CURVE SMOOTH",
"283 1131 OFFCURVE",
"437 1199 OFFCURVE",
"600 1199 CURVE SMOOTH",
"763 1199 OFFCURVE",
"917 1131 OFFCURVE",
"1024 1024 CURVE SMOOTH",
"1131 917 OFFCURVE",
"1199 763 OFFCURVE",
"1199 600 CURVE SMOOTH",
"1199 437 OFFCURVE",
"1131 283 OFFCURVE",
"1024 176 CURVE SMOOTH",
"917 69 OFFCURVE",
"763 1 OFFCURVE",
"600 1 CURVE SMOOTH",
"437 1 OFFCURVE",
"283 69 OFFCURVE",
"176 176 CURVE SMOOTH",
"123 229 OFFCURVE",
"80 293 OFFCURVE",
"49 367 CURVE SMOOTH"
);
},
{
closed = 1;
nodes = (
"215 819 OFFCURVE",
"173 718 OFFCURVE",
"173 600 CURVE SMOOTH",
"173 364 OFFCURVE",
"365 173 OFFCURVE",
"600 173 CURVE",
"600 1027 LINE",
"483 1027 OFFCURVE",
"382 985 OFFCURVE",
"299 902 CURVE SMOOTH"
);
}
);
width = 1200;
}
);
unicode = E063;
},
{
glyphname = uniE064;
layers = (
{
layerId = "9ECC7D36-9140-4F4B-A408-CD21EECD2CFD";
name = Regular;
paths = (
{
closed = 1;
nodes = (
"117 531 OFFCURVE",
"167 657 OFFCURVE",
"240 765 CURVE SMOOTH",
"276 818 OFFCURVE",
"313 871 OFFCURVE",
"352 924 CURVE SMOOTH",
"428 1028 OFFCURVE",
"514 1167 OFFCURVE",
"554 1295 CURVE",
"582 1200 OFFCURVE",
"635 1101 OFFCURVE",
"688 1022 CURVE SMOOTH",
"714 983 OFFCURVE",
"742 943 OFFCURVE",
"771 904 CURVE SMOOTH",
"829 824 OFFCURVE",
"881 749 OFFCURVE",
"923 671 CURVE SMOOTH",
"965 593 OFFCURVE",
"991 501 OFFCURVE",
"991 409 CURVE SMOOTH",
"991 290 OFFCURVE",
"934 184 OFFCURVE",
"850 117 CURVE SMOOTH",
"766 50 OFFCURVE",
"659 9 OFFCURVE",
"554 4 CURVE",
"402 12 OFFCURVE",
"266 73 OFFCURVE",
"181 196 CURVE SMOOTH",
"138 257 OFFCURVE",
"117 327 OFFCURVE",
"117 406 CURVE SMOOTH"
);
},
{
closed = 1;
nodes = (
"262 305 OFFCURVE",
"318 233 OFFCURVE",
"439 198 CURVE",
"455 296 LINE",
"450 300 OFFCURVE",
"444 306 OFFCURVE",
"437 313 CURVE SMOOTH",
"422 328 OFFCURVE",
"383 385 OFFCURVE",
"370 438 CURVE",
"350 535 OFFCURVE",
"354 635 OFFCURVE",
"366 704 CURVE SMOOTH",
"375 755 LINE",
"252 608 OFFCURVE",
"223 522 OFFCURVE",
"243 414 CURVE SMOOTH"
);
}
);
width = 1200;
}
);
unicode = E064;
},
{
glyphname = uniE065;
layers = (
{
layerId = "9ECC7D36-9140-4F4B-A408-CD21EECD2CFD";
name = Regular;
paths = (
{
closed = 1;
nodes = (
"0 700 LINE SMOOTH",
"0 920 OFFCURVE",
"180 1100 OFFCURVE",
"400 1100 CURVE SMOOTH",
"644 1096 OFFCURVE",
"776 1091 OFFCURVE",
"797 1086 CURVE",
"611 900 LINE",
"300 900 LINE SMOOTH",
"245 900 OFFCURVE",
"200 855 OFFCURVE",
"200 800 CURVE SMOOTH",
"200 300 LINE SMOOTH",
"200 245 OFFCURVE",
"245 200 OFFCURVE",
"300 200 CURVE SMOOTH",
"800 200 LINE SMOOTH",
"855 200 OFFCURVE",
"900 245 OFFCURVE",
"900 300 CURVE SMOOTH",
"900 425 LINE",
"1100 625 LINE",
"1100 400 LINE SMOOTH",
"1100 180 OFFCURVE",
"920 0 OFFCURVE",
"700 0 CURVE SMOOTH",
"400 0 LINE SMOOTH",
"180 0 OFFCURVE",
"0 180 OFFCURVE",
"0 400 CURVE SMOOTH"
);
},
{
closed = 1;
nodes = (
"436 341 LINE",
"597 391 LINE",
"1009 803 LINE",
"895 916 LINE",
"490 511 LINE"
);
},
{
closed = 1;
nodes = (
"995 1015 LINE",
"1108 902 LINE",
"1221 1015 LINE",
"1200 1100 LINE",
"1108 1128 LINE"
);
}
);
width = 1200;
}
);
unicode = E065;
},
{
glyphname = uniE066;
layers = (
{
layerId = "9ECC7D36-9140-4F4B-A408-CD21EECD2CFD";
name = Regular;
paths = (
{
closed = 1;
nodes = (
"0 700 LINE SMOOTH",
"0 920 OFFCURVE",
"180 1100 OFFCURVE",
"400 1100 CURVE SMOOTH",
"661 1100 LINE",
"663 1020 LINE",
"574 999 OFFCURVE",
"502 959 OFFCURVE",
"445 900 CURVE",
"300 900 LINE SMOOTH",
"245 900 OFFCURVE",
"200 855 OFFCURVE",
"200 800 CURVE SMOOTH",
"200 300 LINE SMOOTH",
"200 245 OFFCURVE",
"245 200 OFFCURVE",
"300 200 CURVE SMOOTH",
"800 200 LINE SMOOTH",
"855 200 OFFCURVE",
"900 245 OFFCURVE",
"900 300 CURVE",
"1100 453 LINE",
"1100 400 LINE SMOOTH",
"1100 180 OFFCURVE",
"920 0 OFFCURVE",
"700 0 CURVE SMOOTH",
"400 0 LINE SMOOTH",
"180 0 OFFCURVE",
"0 180 OFFCURVE",
"0 400 CURVE SMOOTH"
);
},
{
closed = 1;
nodes = (
"463 575 OFFCURVE",
"539 611 OFFCURVE",
"608 624 CURVE SMOOTH",
"676 636 OFFCURVE",
"744 642 OFFCURVE",
"784 641 CURVE SMOOTH",
"813 640 LINE",
"813 431 LINE",
"1173 755 LINE",
"814 1073 LINE",
"814 857 LINE",
"809 857 OFFCURVE",
"803 857 OFFCURVE",
"795 856 CURVE",
"779 855 OFFCURVE",
"722 845 OFFCURVE",
"678 830 CURVE SMOOTH",
"633 814 OFFCURVE",
"569 778 OFFCURVE",
"525 734 CURVE SMOOTH",
"480 689 OFFCURVE",
"438 613 OFFCURVE",
"423 524 CURVE"
);
}
);
width = 1200;
}
);
unicode = E066;
},
{
glyphname = uniE067;
layers = (
{
layerId = "9ECC7D36-9140-4F4B-A408-CD21EECD2CFD";
name = Regular;
paths = (
{
closed = 1;
nodes = (
"0 700 LINE SMOOTH",
"0 920 OFFCURVE",
"180 1100 OFFCURVE",
"400 1100 CURVE SMOOTH",
"700 1100 LINE SMOOTH",
"741 1100 OFFCURVE",
"783 1092 OFFCURVE",
"827 1077 CURVE",
"649 900 LINE",
"300 900 LINE SMOOTH",
"245 900 OFFCURVE",
"200 855 OFFCURVE",
"200 800 CURVE SMOOTH",
"200 300 LINE SMOOTH",
"200 245 OFFCURVE",
"245 200 OFFCURVE",
"300 200 CURVE SMOOTH",
"800 200 LINE SMOOTH",
"855 200 OFFCURVE",
"900 245 OFFCURVE",
"900 300 CURVE SMOOTH",
"900 369 LINE",
"1100 569 LINE",
"1100 400 LINE SMOOTH",
"1100 180 OFFCURVE",
"920 0 OFFCURVE",
"700 0 CURVE SMOOTH",
"400 0 LINE SMOOTH",
"180 0 OFFCURVE",
"0 180 OFFCURVE",
"0 400 CURVE SMOOTH"
);
},
{
closed = 1;
nodes = (
"342 632 LINE",
"625 348 LINE",
"1192 915 LINE",
"1055 1052 LINE",
"625 621 LINE",
"479 768 LINE"
);
}
);
width = 1200;
}
);
unicode = E067;
},
{
glyphname = uniE068;
layers = (
{
layerId = "9ECC7D36-9140-4F4B-A408-CD21EECD2CFD";
name = Regular;
paths = (
{
closed = 1;
nodes = (
"0 603 LINE",
"300 899 LINE",
"300 701 LINE",
"500 701 LINE",
"500 901 LINE",
"300 901 LINE",
"600 1201 LINE",
"895 901 LINE",
"700 901 LINE",
"700 701 LINE",
"900 701 LINE",
"900 899 LINE",
"1200 603 LINE",
"900 303 LINE",
"900 501 LINE",
"700 501 LINE",
"700 301 LINE",
"895 301 LINE",
"600 1 LINE",
"300 301 LINE",
"500 301 LINE",
"500 501 LINE",
"300 501 LINE",
"300 303 LINE"
);
}
);
width = 1200;
}
);
unicode = E068;
},
{
glyphname = uniE069;
layers = (
{
layerId = "9ECC7D36-9140-4F4B-A408-CD21EECD2CFD";
name = Regular;
paths = (
{
closed = 1;
nodes = (
"200 1050 LINE SMOOTH",
"200 1078 OFFCURVE",
"222 1100 OFFCURVE",
"250 1100 CURVE SMOOTH",
"350 1100 LINE SMOOTH",
"378 1100 OFFCURVE",
"400 1078 OFFCURVE",
"400 1050 CURVE SMOOTH",
"400 613 LINE",
"900 1100 LINE",
"900 0 LINE",
"400 488 LINE",
"400 50 LINE SMOOTH",
"400 22 OFFCURVE",
"378 0 OFFCURVE",
"350 0 CURVE SMOOTH",
"250 0 LINE SMOOTH",
"222 0 OFFCURVE",
"200 22 OFFCURVE",
"200 50 CURVE SMOOTH"
);
}
);
width = 1200;
}
);
unicode = E069;
},
{
glyphname = uniE070;
layers = (
{
layerId = "9ECC7D36-9140-4F4B-A408-CD21EECD2CFD";
name = Regular;
paths = (
{
closed = 1;
nodes = (
"0 1050 LINE SMOOTH",
"0 1078 OFFCURVE",
"22 1100 OFFCURVE",
"50 1100 CURVE SMOOTH",
"150 1100 LINE SMOOTH",
"178 1100 OFFCURVE",
"200 1078 OFFCURVE",
"200 1050 CURVE SMOOTH",
"200 613 LINE",
"700 1100 LINE",
"700 613 LINE",
"1200 1100 LINE",
"1200 0 LINE",
"700 488 LINE",
"700 0 LINE",
"200 488 LINE",
"200 50 LINE SMOOTH",
"200 22 OFFCURVE",
"178 0 OFFCURVE",
"150 0 CURVE SMOOTH",
"50 0 LINE SMOOTH",
"22 0 OFFCURVE",
"0 22 OFFCURVE",
"0 50 CURVE SMOOTH"
);
}
);
width = 1200;
}
);
unicode = E070;
},
{
glyphname = uniE071;
layers = (
{
layerId = "9ECC7D36-9140-4F4B-A408-CD21EECD2CFD";
name = Regular;
paths = (
{
closed = 1;
nodes = (
"136 550 LINE",
"700 1100 LINE",
"700 613 LINE",
"1200 1100 LINE",
"1200 0 LINE",
"700 488 LINE",
"700 0 LINE"
);
}
);
width = 1200;
}
);
unicode = E071;
},
{
glyphname = uniE072;
layers = (
{
layerId = "9ECC7D36-9140-4F4B-A408-CD21EECD2CFD";
name = Regular;
paths = (
{
closed = 1;
nodes = (
"200 0 LINE",
"1100 550 LINE",
"200 1100 LINE"
);
}
);
width = 1200;
}
);
unicode = E072;
},
{
glyphname = uniE073;
layers = (
{
layerId = "9ECC7D36-9140-4F4B-A408-CD21EECD2CFD";
name = Regular;
paths = (
{
closed = 1;
nodes = (
"200 150 LINE SMOOTH",
"200 122 OFFCURVE",
"222 100 OFFCURVE",
"250 100 CURVE SMOOTH",
"450 100 LINE SMOOTH",
"478 100 OFFCURVE",
"500 122 OFFCURVE",
"500 150 CURVE SMOOTH",
"500 950 LINE SMOOTH",
"500 978 OFFCURVE",
"478 1000 OFFCURVE",
"450 1000 CURVE SMOOTH",
"250 1000 LINE SMOOTH",
"222 1000 OFFCURVE",
"200 978 OFFCURVE",
"200 950 CURVE SMOOTH"
);
},
{
closed = 1;
nodes = (
"600 150 LINE SMOOTH",
"600 122 OFFCURVE",
"622 100 OFFCURVE",
"650 100 CURVE SMOOTH",
"850 100 LINE SMOOTH",
"878 100 OFFCURVE",
"900 122 OFFCURVE",
"900 150 CURVE SMOOTH",
"900 950 LINE SMOOTH",
"900 978 OFFCURVE",
"878 1000 OFFCURVE",
"850 1000 CURVE SMOOTH",
"650 1000 LINE SMOOTH",
"622 1000 OFFCURVE",
"600 978 OFFCURVE",
"600 950 CURVE SMOOTH"
);
}
);
width = 1200;
}
);
unicode = E073;
},
{
glyphname = uniE074;
layers = (
{
layerId = "9ECC7D36-9140-4F4B-A408-CD21EECD2CFD";
name = Regular;
paths = (
{
closed = 1;
nodes = (
"200 150 LINE SMOOTH",
"200 123 OFFCURVE",
"222 100 OFFCURVE",
"250 100 CURVE SMOOTH",
"1050 100 LINE SMOOTH",
"1078 100 OFFCURVE",
"1100 123 OFFCURVE",
"1100 150 CURVE SMOOTH",
"1100 950 LINE SMOOTH",
"1100 978 OFFCURVE",
"1078 1000 OFFCURVE",
"1050 1000 CURVE SMOOTH",
"250 1000 LINE SMOOTH",
"222 1000 OFFCURVE",
"200 978 OFFCURVE",
"200 950 CURVE SMOOTH"
);
}
);
width = 1200;
}
);
unicode = E074;
},
{
glyphname = uniE075;
layers = (
{
layerId = "9ECC7D36-9140-4F4B-A408-CD21EECD2CFD";
name = Regular;
paths = (
{
closed = 1;
nodes = (
"0 0 LINE",
"0 1100 LINE",
"500 613 LINE",
"500 1100 LINE",
"1064 550 LINE",
"500 0 LINE",
"500 488 LINE"
);
}
);
width = 1200;
}
);
unicode = E075;
},
{
glyphname = uniE076;
layers = (
{
layerId = "9ECC7D36-9140-4F4B-A408-CD21EECD2CFD";
name = Regular;
paths = (
{
closed = 1;
nodes = (
"0 0 LINE",
"0 1100 LINE",
"500 613 LINE",
"500 1100 LINE",
"1000 613 LINE",
"1000 1050 LINE SMOOTH",
"1000 1078 OFFCURVE",
"1022 1100 OFFCURVE",
"1050 1100 CURVE SMOOTH",
"1150 1100 LINE SMOOTH",
"1178 1100 OFFCURVE",
"1200 1078 OFFCURVE",
"1200 1050 CURVE SMOOTH",
"1200 50 LINE SMOOTH",
"1200 22 OFFCURVE",
"1178 0 OFFCURVE",
"1150 0 CURVE SMOOTH",
"1050 0 LINE SMOOTH",
"1022 0 OFFCURVE",
"1000 22 OFFCURVE",
"1000 50 CURVE SMOOTH",
"1000 488 LINE",
"500 0 LINE",
"500 488 LINE"
);
}
);
width = 1200;
}
);
unicode = E076;
},
{
glyphname = uniE077;
layers = (
{
layerId = "9ECC7D36-9140-4F4B-A408-CD21EECD2CFD";
name = Regular;
paths = (
{
closed = 1;
nodes = (
"300 0 LINE",
"300 1100 LINE",
"800 613 LINE",
"800 1050 LINE SMOOTH",
"800 1078 OFFCURVE",
"822 1100 OFFCURVE",
"850 1100 CURVE SMOOTH",
"950 1100 LINE SMOOTH",
"978 1100 OFFCURVE",
"1000 1078 OFFCURVE",
"1000 1050 CURVE SMOOTH",
"1000 50 LINE SMOOTH",
"1000 22 OFFCURVE",
"978 0 OFFCURVE",
"950 0 CURVE SMOOTH",
"850 0 LINE SMOOTH",
"822 0 OFFCURVE",
"800 22 OFFCURVE",
"800 50 CURVE SMOOTH",
"800 488 LINE"
);
}
);
width = 1200;
}
);
unicode = E077;
},
{
glyphname = uniE078;
layers = (
{
layerId = "9ECC7D36-9140-4F4B-A408-CD21EECD2CFD";
name = Regular;
paths = (
{
closed = 1;
nodes = (
"100 350 LINE SMOOTH",
"100 378 OFFCURVE",
"122 400 OFFCURVE",
"150 400 CURVE SMOOTH",
"1150 400 LINE SMOOTH",
"1178 400 OFFCURVE",
"1200 378 OFFCURVE",
"1200 350 CURVE SMOOTH",
"1200 250 LINE SMOOTH",
"1200 222 OFFCURVE",
"1178 200 OFFCURVE",
"1150 200 CURVE SMOOTH",
"150 200 LINE SMOOTH",
"122 200 OFFCURVE",
"100 222 OFFCURVE",
"100 250 CURVE SMOOTH"
);
},
{
closed = 1;
nodes = (
"100 500 LINE",
"1200 500 LINE",
"650 1064 LINE"
);
}
);
width = 1200;
}
);
unicode = E078;
},
{
glyphname = uniE079;
layers = (
{
layerId = "9ECC7D36-9140-4F4B-A408-CD21EECD2CFD";
name = Regular;
paths = (
{
closed = 1;
nodes = (
"185 599 LINE",
"777 7 LINE",
"1017 247 LINE",
"664 600 LINE",
"1017 953 LINE",
"777 1193 LINE"
);
}
);
width = 1200;
}
);
unicode = E079;
},
{
glyphname = uniE080;
layers = (
{
layerId = "9ECC7D36-9140-4F4B-A408-CD21EECD2CFD";
name = Regular;
paths = (
{
closed = 1;
nodes = (
"272 194 LINE",
"625 547 LINE",
"272 900 LINE",
"513 1140 LINE",
"1085 569 LINE",
"1106 547 LINE",
"1105 546 LINE",
"1105 545 LINE",
"513 -46 LINE"
);
}
);
width = 1200;
}
);
unicode = E080;
},
{
glyphname = uniE081;
layers = (
{
layerId = "9ECC7D36-9140-4F4B-A408-CD21EECD2CFD";
name = Regular;
paths = (
{
closed = 1;
nodes = (
"30 392 OFFCURVE",
"3 492 OFFCURVE",
"3 600 CURVE SMOOTH",
"3 816 OFFCURVE",
"117 1010 OFFCURVE",
"301 1117 CURVE SMOOTH",
"392 1170 OFFCURVE",
"492 1197 OFFCURVE",
"600 1197 CURVE SMOOTH",
"816 1197 OFFCURVE",
"1010 1083 OFFCURVE",
"1117 900 CURVE SMOOTH",
"1170 808 OFFCURVE",
"1197 708 OFFCURVE",
"1197 600 CURVE SMOOTH",
"1197 384 OFFCURVE",
"1083 190 OFFCURVE",
"900 83 CURVE SMOOTH",
"808 30 OFFCURVE",
"708 3 OFFCURVE",
"600 3 CURVE SMOOTH",
"384 3 OFFCURVE",
"190 117 OFFCURVE",
"83 301 CURVE SMOOTH"
);
},
{
closed = 1;
nodes = (
"300 500 LINE",
"500 500 LINE",
"500 300 LINE",
"700 300 LINE",
"700 500 LINE",
"900 500 LINE",
"900 700 LINE",
"700 700 LINE",
"700 900 LINE",
"500 900 LINE",
"500 700 LINE",
"300 700 LINE"
);
}
);
width = 1200;
}
);
unicode = E081;
},
{
glyphname = uniE082;
layers = (
{
layerId = "9ECC7D36-9140-4F4B-A408-CD21EECD2CFD";
name = Regular;
paths = (
{
closed = 1;
nodes = (
"30 392 OFFCURVE",
"3 492 OFFCURVE",
"3 600 CURVE SMOOTH",
"3 816 OFFCURVE",
"117 1010 OFFCURVE",
"301 1117 CURVE SMOOTH",
"392 1170 OFFCURVE",
"492 1197 OFFCURVE",
"600 1197 CURVE SMOOTH",
"816 1197 OFFCURVE",
"1010 1083 OFFCURVE",
"1117 900 CURVE SMOOTH",
"1170 808 OFFCURVE",
"1197 708 OFFCURVE",
"1197 600 CURVE SMOOTH",
"1197 384 OFFCURVE",
"1083 190 OFFCURVE",
"900 83 CURVE SMOOTH",
"808 30 OFFCURVE",
"708 3 OFFCURVE",
"600 3 CURVE SMOOTH",
"384 3 OFFCURVE",
"190 117 OFFCURVE",
"83 301 CURVE SMOOTH"
);
},
{
closed = 1;
nodes = (
"300 500 LINE",
"900 500 LINE",
"900 700 LINE",
"300 700 LINE"
);
}
);
width = 1200;
}
);
unicode = E082;
},
{
glyphname = uniE083;
layers = (
{
layerId = "9ECC7D36-9140-4F4B-A408-CD21EECD2CFD";
name = Regular;
paths = (
{
closed = 1;
nodes = (
"30 392 OFFCURVE",
"3 492 OFFCURVE",
"3 600 CURVE SMOOTH",
"3 816 OFFCURVE",
"117 1010 OFFCURVE",
"301 1117 CURVE SMOOTH",
"392 1170 OFFCURVE",
"492 1197 OFFCURVE",
"600 1197 CURVE SMOOTH",
"816 1197 OFFCURVE",
"1010 1083 OFFCURVE",
"1117 900 CURVE SMOOTH",
"1170 808 OFFCURVE",
"1197 708 OFFCURVE",
"1197 600 CURVE SMOOTH",
"1197 384 OFFCURVE",
"1083 190 OFFCURVE",
"900 83 CURVE SMOOTH",
"808 30 OFFCURVE",
"708 3 OFFCURVE",
"600 3 CURVE SMOOTH",
"384 3 OFFCURVE",
"190 117 OFFCURVE",
"83 301 CURVE SMOOTH"
);
},
{
closed = 1;
nodes = (
"246 459 LINE",
"459 246 LINE",
"600 388 LINE",
"741 246 LINE",
"954 459 LINE",
"812 600 LINE",
"954 741 LINE",
"741 953 LINE",
"600 812 LINE",
"459 954 LINE",
"247 741 LINE",
"388 600 LINE"
);
}
);
width = 1200;
}
);
unicode = E083;
},
{
glyphname = uniE084;
layers = (
{
layerId = "9ECC7D36-9140-4F4B-A408-CD21EECD2CFD";
name = Regular;
paths = (
{
closed = 1;
nodes = (
"30 392 OFFCURVE",
"3 492 OFFCURVE",
"3 600 CURVE SMOOTH",
"3 816 OFFCURVE",
"117 1010 OFFCURVE",
"301 1117 CURVE SMOOTH",
"392 1170 OFFCURVE",
"492 1197 OFFCURVE",
"600 1197 CURVE SMOOTH",
"816 1197 OFFCURVE",
"1010 1083 OFFCURVE",
"1117 900 CURVE SMOOTH",
"1170 808 OFFCURVE",
"1197 708 OFFCURVE",
"1197 600 CURVE SMOOTH",
"1197 384 OFFCURVE",
"1083 190 OFFCURVE",
"900 83 CURVE SMOOTH",
"808 30 OFFCURVE",
"708 3 OFFCURVE",
"600 3 CURVE SMOOTH",
"384 3 OFFCURVE",
"190 117 OFFCURVE",
"83 301 CURVE SMOOTH"
);
},
{
closed = 1;
nodes = (
"270 551 LINE",
"546 274 LINE",
"957 685 LINE",
"782 859 LINE",
"546 623 LINE",
"444 725 LINE"
);
}
);
width = 1200;
}
);
unicode = E084;
},
{
glyphname = uniE085;
layers = (
{
layerId = "9ECC7D36-9140-4F4B-A408-CD21EECD2CFD";
name = Regular;
paths = (
{
closed = 1;
nodes = (
"30 392 OFFCURVE",
"3 492 OFFCURVE",
"3 600 CURVE SMOOTH",
"3 816 OFFCURVE",
"117 1010 OFFCURVE",
"301 1117 CURVE SMOOTH",
"392 1170 OFFCURVE",
"492 1197 OFFCURVE",
"600 1197 CURVE SMOOTH",
"816 1197 OFFCURVE",
"1010 1083 OFFCURVE",
"1117 900 CURVE SMOOTH",
"1170 808 OFFCURVE",
"1197 708 OFFCURVE",
"1197 600 CURVE SMOOTH",
"1197 384 OFFCURVE",
"1083 190 OFFCURVE",
"900 83 CURVE SMOOTH",
"808 30 OFFCURVE",
"708 3 OFFCURVE",
"600 3 CURVE SMOOTH",
"384 3 OFFCURVE",
"190 117 OFFCURVE",
"83 301 CURVE SMOOTH"
);
},
{
closed = 1;
nodes = (
"507 700 LINE SMOOTH",
"510 700 OFFCURVE",
"514 700 OFFCURVE",
"519 699 CURVE SMOOTH",
"524 698 OFFCURVE",
"527 698 OFFCURVE",
"530 698 CURVE SMOOTH",
"534 698 OFFCURVE",
"539 702 OFFCURVE",
"539 710 CURVE SMOOTH",
"539 718 OFFCURVE",
"540 725 OFFCURVE",
"544 730 CURVE",
"545 732 OFFCURVE",
"546 734 OFFCURVE",
"547 736 CURVE",
"548 737 OFFCURVE",
"550 739 OFFCURVE",
"553 740 CURVE SMOOTH",
"556 741 OFFCURVE",
"558 741 OFFCURVE",
"559 742 CURVE",
"562 743 OFFCURVE",
"574 744 OFFCURVE",
"577 744 CURVE SMOOTH",
"578 744 OFFCURVE",
"582 744 OFFCURVE",
"589 744 CURVE SMOOTH",
"595 744 OFFCURVE",
"599 744 OFFCURVE",
"601 744 CURVE SMOOTH",
"626 744 OFFCURVE",
"642 729 OFFCURVE",
"642 708 CURVE SMOOTH",
"642 679 OFFCURVE",
"642 679 OFFCURVE",
"611 658 CURVE",
"608 657 OFFCURVE",
"604 656 OFFCURVE",
"599 655 CURVE",
"589 652 OFFCURVE",
"557 635 OFFCURVE",
"538 615 CURVE SMOOTH",
"518 594 OFFCURVE",
"499 551 OFFCURVE",
"500 500 CURVE",
"700 500 LINE",
"703 502 OFFCURVE",
"708 505 OFFCURVE",
"714 508 CURVE",
"726 515 OFFCURVE",
"762 546 OFFCURVE",
"785 579 CURVE SMOOTH",
"808 612 OFFCURVE",
"830 675 OFFCURVE",
"830 742 CURVE SMOOTH",
"830 810 OFFCURVE",
"803 862 OFFCURVE",
"771 889 CURVE SMOOTH",
"738 916 OFFCURVE",
"686 932 OFFCURVE",
"654 936 CURVE SMOOTH",
"637 938 OFFCURVE",
"620 939 OFFCURVE",
"602 939 CURVE SMOOTH",
"535 939 OFFCURVE",
"483 924 OFFCURVE",
"437 889 CURVE SMOOTH",
"391 853 OFFCURVE",
"364 788 OFFCURVE",
"364 700 CURVE"
);
},
{
closed = 1;
nodes = (
"500 300 LINE",
"700 300 LINE",
"700 400 LINE",
"500 400 LINE"
);
}
);
width = 1200;
}
);
unicode = E085;
},
{
glyphname = uniE086;
layers = (
{
layerId = "9ECC7D36-9140-4F4B-A408-CD21EECD2CFD";
name = Regular;
paths = (
{
closed = 1;
nodes = (
"30 392 OFFCURVE",
"3 492 OFFCURVE",
"3 600 CURVE SMOOTH",
"3 816 OFFCURVE",
"117 1010 OFFCURVE",
"301 1117 CURVE SMOOTH",
"392 1170 OFFCURVE",
"492 1197 OFFCURVE",
"600 1197 CURVE SMOOTH",
"816 1197 OFFCURVE",
"1010 1083 OFFCURVE",
"1117 900 CURVE SMOOTH",
"1170 808 OFFCURVE",
"1197 708 OFFCURVE",
"1197 600 CURVE SMOOTH",
"1197 384 OFFCURVE",
"1083 190 OFFCURVE",
"900 83 CURVE SMOOTH",
"808 30 OFFCURVE",
"708 3 OFFCURVE",
"600 3 CURVE SMOOTH",
"384 3 OFFCURVE",
"190 117 OFFCURVE",
"83 301 CURVE SMOOTH"
);
},
{
closed = 1;
nodes = (
"400 300 LINE",
"800 300 LINE",
"800 400 LINE",
"700 400 LINE",
"700 700 LINE",
"400 700 LINE",
"400 600 LINE",
"500 600 LINE",
"500 400 LINE",
"400 400 LINE"
);
},
{
closed = 1;
nodes = (
"500 800 LINE",
"700 800 LINE",
"700 900 LINE",
"500 900 LINE"
);
}
);
width = 1200;
}
);
unicode = E086;
},
{
glyphname = uniE087;
layers = (
{
layerId = "9ECC7D36-9140-4F4B-A408-CD21EECD2CFD";
name = Regular;
paths = (
{
closed = 1;
nodes = (
"0 500 LINE",
"0 700 LINE",
"195 700 LINE",
"236 867 OFFCURVE",
"315 965 OFFCURVE",
"500 1000 CURVE",
"500 1200 LINE",
"700 1200 LINE",
"700 1000 LINE",
"772 973 OFFCURVE",
"854 922 OFFCURVE",
"926 835 CURVE SMOOTH",
"961 791 OFFCURVE",
"985 746 OFFCURVE",
"997 700 CURVE",
"1200 700 LINE",
"1200 500 LINE",
"997 500 LINE",
"964 364 OFFCURVE",
"819 241 OFFCURVE",
"700 197 CURVE",
"700 0 LINE",
"500 0 LINE",
"500 197 LINE",
"313 233 OFFCURVE",
"234 333 OFFCURVE",
"194 500 CURVE"
);
},
{
closed = 1;
nodes = (
"290 500 LINE",
"322 403 OFFCURVE",
"400 326 OFFCURVE",
"500 294 CURVE",
"500 500 LINE",
"700 500 LINE",
"700 294 LINE",
"799 326 OFFCURVE",
"866 395 OFFCURVE",
"901 500 CURVE",
"700 500 LINE",
"700 700 LINE",
"900 700 LINE",
"867 799 OFFCURVE",
"799 872 OFFCURVE",
"700 904 CURVE",
"700 700 LINE",
"500 700 LINE",
"500 903 LINE",
"400 872 OFFCURVE",
"323 796 OFFCURVE",
"291 700 CURVE",
"500 700 LINE",
"500 500 LINE"
);
}
);
width = 1200;
}
);
unicode = E087;
},
{
glyphname = uniE088;
layers = (
{
layerId = "9ECC7D36-9140-4F4B-A408-CD21EECD2CFD";
name = Regular;
paths = (
{
closed = 1;
nodes = (
"31 392 OFFCURVE",
"4 492 OFFCURVE",
"4 600 CURVE SMOOTH",
"4 816 OFFCURVE",
"118 1009 OFFCURVE",
"301 1116 CURVE SMOOTH",
"392 1169 OFFCURVE",
"492 1196 OFFCURVE",
"600 1196 CURVE SMOOTH",
"816 1196 OFFCURVE",
"1009 1082 OFFCURVE",
"1116 899 CURVE SMOOTH",
"1169 808 OFFCURVE",
"1196 708 OFFCURVE",
"1196 600 CURVE SMOOTH",
"1196 384 OFFCURVE",
"1082 191 OFFCURVE",
"899 84 CURVE SMOOTH",
"808 31 OFFCURVE",
"708 4 OFFCURVE",
"600 4 CURVE SMOOTH",
"384 4 OFFCURVE",
"191 118 OFFCURVE",
"84 301 CURVE SMOOTH"
);
},
{
closed = 1;
nodes = (
"227 812 OFFCURVE",
"186 714 OFFCURVE",
"186 600 CURVE SMOOTH",
"186 372 OFFCURVE",
"372 186 OFFCURVE",
"600 186 CURVE SMOOTH",
"828 186 OFFCURVE",
"1014 372 OFFCURVE",
"1014 600 CURVE SMOOTH",
"1014 828 OFFCURVE",
"828 1014 OFFCURVE",
"600 1014 CURVE SMOOTH",
"486 1014 OFFCURVE",
"389 974 OFFCURVE",
"308 893 CURVE SMOOTH"
);
},
{
closed = 1;
nodes = (
"356 465 LINE",
"491 600 LINE",
"356 735 LINE",
"465 844 LINE",
"600 709 LINE",
"735 844 LINE",
"844 735 LINE",
"709 600 LINE",
"844 465 LINE",
"735 356 LINE",
"600 491 LINE",
"465 356 LINE"
);
}
);
width = 1200;
}
);
unicode = E088;
},
{
glyphname = uniE089;
layers = (
{
layerId = "9ECC7D36-9140-4F4B-A408-CD21EECD2CFD";
name = Regular;
paths = (
{
closed = 1;
nodes = (
"31 392 OFFCURVE",
"4 492 OFFCURVE",
"4 600 CURVE SMOOTH",
"4 816 OFFCURVE",
"118 1009 OFFCURVE",
"301 1116 CURVE SMOOTH",
"392 1169 OFFCURVE",
"492 1196 OFFCURVE",
"600 1196 CURVE SMOOTH",
"816 1196 OFFCURVE",
"1009 1082 OFFCURVE",
"1116 899 CURVE SMOOTH",
"1169 808 OFFCURVE",
"1196 708 OFFCURVE",
"1196 600 CURVE SMOOTH",
"1196 384 OFFCURVE",
"1082 191 OFFCURVE",
"899 84 CURVE SMOOTH",
"808 31 OFFCURVE",
"708 4 OFFCURVE",
"600 4 CURVE SMOOTH",
"384 4 OFFCURVE",
"191 118 OFFCURVE",
"84 301 CURVE SMOOTH"
);
},
{
closed = 1;
nodes = (
"227 812 OFFCURVE",
"186 714 OFFCURVE",
"186 600 CURVE SMOOTH",
"186 372 OFFCURVE",
"372 186 OFFCURVE",
"600 186 CURVE SMOOTH",
"828 186 OFFCURVE",
"1014 372 OFFCURVE",
"1014 600 CURVE SMOOTH",
"1014 828 OFFCURVE",
"828 1014 OFFCURVE",
"600 1014 CURVE SMOOTH",
"486 1014 OFFCURVE",
"389 974 OFFCURVE",
"308 893 CURVE SMOOTH"
);
},
{
closed = 1;
nodes = (
"322 537 LINE",
"463 678 LINE",
"550 591 LINE",
"754 796 LINE",
"896 654 LINE",
"550 309 LINE"
);
}
);
width = 1200;
}
);
unicode = E089;
},
{
glyphname = uniE090;
layers = (
{
layerId = "9ECC7D36-9140-4F4B-A408-CD21EECD2CFD";
name = Regular;
paths = (
{
closed = 1;
nodes = (
"31 392 OFFCURVE",
"4 492 OFFCURVE",
"4 600 CURVE SMOOTH",
"4 816 OFFCURVE",
"118 1009 OFFCURVE",
"301 1116 CURVE SMOOTH",
"392 1169 OFFCURVE",
"492 1196 OFFCURVE",
"600 1196 CURVE SMOOTH",
"816 1196 OFFCURVE",
"1009 1082 OFFCURVE",
"1116 899 CURVE SMOOTH",
"1169 808 OFFCURVE",
"1196 708 OFFCURVE",
"1196 600 CURVE SMOOTH",
"1196 384 OFFCURVE",
"1082 191 OFFCURVE",
"899 84 CURVE SMOOTH",
"808 31 OFFCURVE",
"708 4 OFFCURVE",
"600 4 CURVE SMOOTH",
"384 4 OFFCURVE",
"191 118 OFFCURVE",
"84 301 CURVE SMOOTH"
);
},
{
closed = 1;
nodes = (
"186 523 OFFCURVE",
"207 452 OFFCURVE",
"248 385 CURVE",
"816 952 LINE",
"749 993 OFFCURVE",
"677 1014 OFFCURVE",
"600 1014 CURVE SMOOTH",
"372 1014 OFFCURVE",
"186 828 OFFCURVE",
"186 600 CURVE SMOOTH"
);
},
{
closed = 1;
nodes = (
"391 245 LINE",
"456 206 OFFCURVE",
"525 186 OFFCURVE",
"600 186 CURVE SMOOTH",
"828 186 OFFCURVE",
"1014 372 OFFCURVE",
"1014 600 CURVE SMOOTH",
"1014 675 OFFCURVE",
"994 744 OFFCURVE",
"955 809 CURVE"
);
}
);
width = 1200;
}
);
unicode = E090;
},
{
glyphname = uniE091;
layers = (
{
layerId = "9ECC7D36-9140-4F4B-A408-CD21EECD2CFD";
name = Regular;
paths = (
{
closed = 1;
nodes = (
"0 547 LINE",
"600 1000 LINE",
"600 700 LINE",
"1200 700 LINE",
"1200 400 LINE",
"600 400 LINE",
"600 99 LINE"
);
}
);
width = 1200;
}
);
unicode = E091;
},
{
glyphname = uniE092;
layers = (
{
layerId = "9ECC7D36-9140-4F4B-A408-CD21EECD2CFD";
name = Regular;
paths = (
{
closed = 1;
nodes = (
"0 400 LINE",
"0 700 LINE",
"600 700 LINE",
"600 1000 LINE",
"1200 547 LINE",
"600 99 LINE",
"600 400 LINE"
);
}
);
width = 1200;
}
);
unicode = E092;
},
{
glyphname = uniE093;
layers = (
{
layerId = "9ECC7D36-9140-4F4B-A408-CD21EECD2CFD";
name = Regular;
paths = (
{
closed = 1;
nodes = (
"204 600 LINE",
"654 1200 LINE",
"1098 600 LINE",
"800 600 LINE",
"800 0 LINE",
"500 0 LINE",
"500 600 LINE"
);
}
);
width = 1200;
}
);
unicode = E093;
},
{
glyphname = uniE094;
layers = (
{
layerId = "9ECC7D36-9140-4F4B-A408-CD21EECD2CFD";
name = Regular;
paths = (
{
closed = 1;
nodes = (
"104 600 LINE",
"400 600 LINE",
"400 1200 LINE",
"700 1200 LINE",
"700 600 LINE",
"998 600 LINE",
"549 0 LINE"
);
}
);
width = 1200;
}
);
unicode = E094;
},
{
glyphname = uniE095;
layers = (
{
layerId = "9ECC7D36-9140-4F4B-A408-CD21EECD2CFD";
name = Regular;
paths = (
{
closed = 1;
nodes = (
"8 376 OFFCURVE",
"53 516 OFFCURVE",
"145 632 CURVE SMOOTH",
"236 747 OFFCURVE",
"392 818 OFFCURVE",
"600 829 CURVE",
"600 1100 LINE",
"1200 647 LINE",
"600 199 LINE",
"600 500 LINE",
"473 497 OFFCURVE",
"356 473 OFFCURVE",
"247 428 CURVE SMOOTH",
"138 383 OFFCURVE",
"47 303 OFFCURVE",
"0 200 CURVE"
);
}
);
width = 1200;
}
);
unicode = E095;
},
{
glyphname = uniE096;
layers = (
{
layerId = "9ECC7D36-9140-4F4B-A408-CD21EECD2CFD";
name = Regular;
paths = (
{
closed = 1;
nodes = (
"0 0 LINE",
"0 400 LINE",
"129 271 LINE",
"423 565 LINE",
"565 423 LINE",
"271 129 LINE",
"400 0 LINE"
);
},
{
closed = 1;
nodes = (
"635 777 LINE",
"777 635 LINE",
"1071 929 LINE",
"1200 800 LINE",
"1200 1200 LINE",
"800 1200 LINE",
"929 1071 LINE"
);
}
);
width = 1200;
}
);
unicode = E096;
},
{
glyphname = uniE097;
layers = (
{
layerId = "9ECC7D36-9140-4F4B-A408-CD21EECD2CFD";
name = Regular;
paths = (
{
closed = 1;
nodes = (
"34 176 LINE",
"329 471 LINE",
"200 600 LINE",
"600 600 LINE",
"600 200 LINE",
"471 330 LINE",
"176 35 LINE"
);
},
{
closed = 1;
nodes = (
"600 600 LINE",
"600 1000 LINE",
"729 871 LINE",
"1024 1166 LINE",
"1166 1025 LINE",
"871 730 LINE",
"1000 600 LINE"
);
}
);
width = 1200;
}
);
unicode = E097;
},
{
glyphname = uniE101;
layers = (
{
layerId = "9ECC7D36-9140-4F4B-A408-CD21EECD2CFD";
name = Regular;
paths = (
{
closed = 1;
nodes = (
"38 447 OFFCURVE",
"23 521 OFFCURVE",
"23 600 CURVE SMOOTH",
"23 757 OFFCURVE",
"88 905 OFFCURVE",
"192 1009 CURVE SMOOTH",
"295 1112 OFFCURVE",
"443 1177 OFFCURVE",
"600 1177 CURVE SMOOTH",
"757 1177 OFFCURVE",
"905 1112 OFFCURVE",
"1009 1009 CURVE SMOOTH",
"1112 905 OFFCURVE",
"1177 757 OFFCURVE",
"1177 600 CURVE SMOOTH",
"1177 443 OFFCURVE",
"1112 295 OFFCURVE",
"1009 192 CURVE SMOOTH",
"905 88 OFFCURVE",
"757 23 OFFCURVE",
"600 23 CURVE SMOOTH",
"443 23 OFFCURVE",
"295 88 OFFCURVE",
"192 192 CURVE SMOOTH",
"140 243 OFFCURVE",
"99 305 OFFCURVE",
"69 376 CURVE SMOOTH"
);
},
{
closed = 1;
nodes = (
"514 549 LINE SMOOTH",
"519 522 OFFCURVE",
"546 500 OFFCURVE",
"573 500 CURVE SMOOTH",
"627 500 LINE SMOOTH",
"654 500 OFFCURVE",
"681 522 OFFCURVE",
"686 549 CURVE SMOOTH",
"744 851 LINE SMOOTH",
"749 878 OFFCURVE",
"731 900 OFFCURVE",
"704 900 CURVE SMOOTH",
"497 900 LINE SMOOTH",
"469 900 OFFCURVE",
"451 878 OFFCURVE",
"456 851 CURVE SMOOTH"
);
},
{
closed = 1;
nodes = (
"500 300 LINE",
"700 300 LINE",
"700 400 LINE",
"500 400 LINE"
);
}
);
width = 1200;
}
);
unicode = E101;
},
{
glyphname = uniE102;
layers = (
{
layerId = "9ECC7D36-9140-4F4B-A408-CD21EECD2CFD";
name = Regular;
paths = (
{
closed = 1;
nodes = (
"0 800 LINE",
"100 800 LINE",
"100 600 LINE",
"500 600 LINE",
"500 900 LINE",
"700 900 LINE",
"700 600 LINE",
"1100 600 LINE",
"1100 800 LINE",
"1200 800 LINE",
"1200 900 LINE",
"1089 900 LINE",
"1090 901 OFFCURVE",
"1090 903 OFFCURVE",
"1090 907 CURVE SMOOTH",
"1090 914 OFFCURVE",
"1088 928 OFFCURVE",
"1085 939 CURVE",
"1051 1111 LINE",
"1036 1163 OFFCURVE",
"992 1198 OFFCURVE",
"940 1198 CURVE SMOOTH",
"919 1198 OFFCURVE",
"898 1192 OFFCURVE",
"879 1181 CURVE SMOOTH",
"640 1037 LINE SMOOTH",
"625 1028 OFFCURVE",
"612 1017 OFFCURVE",
"600 1002 CURVE",
"587 1018 OFFCURVE",
"574 1030 OFFCURVE",
"560 1038 CURVE SMOOTH",
"322 1182 LINE",
"300 1194 OFFCURVE",
"279 1200 OFFCURVE",
"260 1200 CURVE SMOOTH",
"208 1200 OFFCURVE",
"163 1167 OFFCURVE",
"150 1116 CURVE",
"115 939 LINE",
"112 928 OFFCURVE",
"111 913 OFFCURVE",
"111 906 CURVE SMOOTH",
"111 903 OFFCURVE",
"111 901 OFFCURVE",
"111 900 CURVE",
"0 900 LINE"
);
},
{
closed = 1;
nodes = (
"100 0 LINE",
"500 0 LINE",
"500 400 LINE",
"100 400 LINE"
);
},
{
closed = 1;
nodes = (
"200 900 LINE SMOOTH",
"198 900 OFFCURVE",
"203 916 OFFCURVE",
"214 948 CURVE SMOOTH",
"225 980 OFFCURVE",
"237 1012 OFFCURVE",
"250 1044 CURVE SMOOTH",
"268 1091 LINE",
"481 900 LINE"
);
},
{
closed = 1;
nodes = (
"700 0 LINE",
"700 400 LINE",
"1100 400 LINE",
"1100 0 LINE"
);
},
{
closed = 1;
nodes = (
"731 900 LINE",
"933 1097 LINE",
"936 1089 OFFCURVE",
"940 1078 OFFCURVE",
"945 1065 CURVE SMOOTH",
"950 1051 OFFCURVE",
"957 1030 OFFCURVE",
"968 1001 CURVE SMOOTH",
"979 972 OFFCURVE",
"987 948 OFFCURVE",
"993 929 CURVE SMOOTH",
"999 910 OFFCURVE",
"1001 900 OFFCURVE",
"1000 900 CURVE SMOOTH"
);
}
);
width = 1200;
}
);
unicode = E102;
},
{
glyphname = uniE103;
layers = (
{
layerId = "9ECC7D36-9140-4F4B-A408-CD21EECD2CFD";
name = Regular;
paths = (
{
closed = 1;
nodes = (
"0 -22 LINE",
"0 121 LINE",
"216 314 LINE",
"204 385 OFFCURVE",
"200 406 OFFCURVE",
"198 491 CURVE SMOOTH",
"196 576 OFFCURVE",
"208 631 OFFCURVE",
"245 718 CURVE SMOOTH",
"282 805 OFFCURVE",
"349 888 OFFCURVE",
"419 945 CURVE SMOOTH",
"489 1001 OFFCURVE",
"546 1031 OFFCURVE",
"649 1061 CURVE SMOOTH",
"700 1076 OFFCURVE",
"749 1088 OFFCURVE",
"795 1098 CURVE SMOOTH",
"886 1118 OFFCURVE",
"1060 1160 OFFCURVE",
"1199 1200 CURVE",
"1199 948 OFFCURVE",
"1167 738 OFFCURVE",
"1118 599 CURVE SMOOTH",
"1069 460 OFFCURVE",
"996 354 OFFCURVE",
"921 298 CURVE SMOOTH",
"845 241 OFFCURVE",
"753 206 OFFCURVE",
"673 200 CURVE SMOOTH",
"593 194 OFFCURVE",
"505 198 OFFCURVE",
"444 211 CURVE SMOOTH",
"383 223 OFFCURVE",
"320 235 OFFCURVE",
"300 235 CURVE",
"201 180 LINE"
);
},
{
closed = 1;
nodes = (
"203 270 OFFCURVE",
"236 266 OFFCURVE",
"325 377 CURVE SMOOTH",
"362 421 OFFCURVE",
"484 499 OFFCURVE",
"692 611 CURVE SMOOTH",
"785 662 OFFCURVE",
"841 696 OFFCURVE",
"913 760 CURVE SMOOTH",
"984 823 OFFCURVE",
"1043 907 OFFCURVE",
"1098 1019 CURVE SMOOTH",
"1113 1052 OFFCURVE",
"1121 1072 OFFCURVE",
"1122 1079 CURVE SMOOTH",
"1123 1086 OFFCURVE",
"1121 1092 OFFCURVE",
"1116 1098 CURVE",
"1111 1101 OFFCURVE",
"1106 1103 OFFCURVE",
"1099 1103 CURVE SMOOTH",
"1086 1103 OFFCURVE",
"1062 1082 OFFCURVE",
"1039 1049 CURVE SMOOTH",
"992 981 OFFCURVE",
"867 894 OFFCURVE",
"786 851 CURVE SMOOTH",
"725 819 LINE SMOOTH",
"479 688 OFFCURVE",
"326 554 OFFCURVE",
"267 418 CURVE SMOOTH"
);
}
);
width = 1200;
}
);
unicode = E103;
},
{
glyphname = uniE104;
layers = (
{
layerId = "9ECC7D36-9140-4F4B-A408-CD21EECD2CFD";
name = Regular;
paths = (
{
closed = 1;
nodes = (
"114 458 OFFCURVE",
"111 430 OFFCURVE",
"111 408 CURVE SMOOTH",
"111 386 OFFCURVE",
"113 365 OFFCURVE",
"116 345 CURVE SMOOTH",
"128 270 OFFCURVE",
"172 177 OFFCURVE",
"265 117 CURVE SMOOTH",
"306 89 OFFCURVE",
"352 100 OFFCURVE",
"391 125 CURVE SMOOTH",
"430 149 OFFCURVE",
"469 195 OFFCURVE",
"496 236 CURVE SMOOTH",
"509 256 OFFCURVE",
"521 276 OFFCURVE",
"531 296 CURVE SMOOTH",
"574 384 OFFCURVE",
"584 586 OFFCURVE",
"557 638 CURVE",
"662 531 OFFCURVE",
"728 423 OFFCURVE",
"705 290 CURVE SMOOTH",
"698 246 OFFCURVE",
"676 199 OFFCURVE",
"647 140 CURVE",
"640 127 OFFCURVE",
"636 118 OFFCURVE",
"633 111 CURVE SMOOTH",
"630 104 OFFCURVE",
"626 96 OFFCURVE",
"621 85 CURVE SMOOTH",
"611 64 OFFCURVE",
"611 58 OFFCURVE",
"609 43 CURVE SMOOTH",
"607 27 OFFCURVE",
"613 25 OFFCURVE",
"622 18 CURVE",
"631 10 OFFCURVE",
"648 12 OFFCURVE",
"672 15 CURVE",
"684 16 OFFCURVE",
"698 19 OFFCURVE",
"714 23 CURVE",
"790 50 OFFCURVE",
"821 61 OFFCURVE",
"893 102 CURVE SMOOTH",
"964 142 OFFCURVE",
"1002 181 OFFCURVE",
"1045 254 CURVE SMOOTH",
"1066 291 OFFCURVE",
"1082 331 OFFCURVE",
"1092 376 CURVE SMOOTH",
"1143 605 OFFCURVE",
"1020 851 OFFCURVE",
"801 996 CURVE",
"830 937 OFFCURVE",
"907 706 OFFCURVE",
"812 713 CURVE SMOOTH",
"802 714 OFFCURVE",
"791 717 OFFCURVE",
"779 722 CURVE SMOOTH",
"674 766 OFFCURVE",
"618 853 OFFCURVE",
"615 998 CURVE SMOOTH",
"613 1070 OFFCURVE",
"629 1156 OFFCURVE",
"663 1255 CURVE",
"654 1250 OFFCURVE",
"643 1242 OFFCURVE",
"629 1232 CURVE SMOOTH",
"601 1211 OFFCURVE",
"517 1132 OFFCURVE",
"468 1060 CURVE SMOOTH",
"419 987 OFFCURVE",
"380 866 OFFCURVE",
"400 755 CURVE",
"401 747 OFFCURVE",
"404 733 OFFCURVE",
"408 714 CURVE SMOOTH",
"412 694 OFFCURVE",
"415 680 OFFCURVE",
"416 671 CURVE SMOOTH",
"417 662 OFFCURVE",
"419 648 OFFCURVE",
"422 631 CURVE SMOOTH",
"425 614 OFFCURVE",
"426 601 OFFCURVE",
"426 592 CURVE",
"425 583 OFFCURVE",
"425 571 OFFCURVE",
"425 558 CURVE",
"424 531 OFFCURVE",
"416 519 OFFCURVE",
"405 503 CURVE SMOOTH",
"394 486 OFFCURVE",
"377 475 OFFCURVE",
"353 470 CURVE",
"302 457 OFFCURVE",
"261 493 OFFCURVE",
"246 545 CURVE SMOOTH",
"230 596 OFFCURVE",
"222 658 OFFCURVE",
"241 701 CURVE",
"172 640 OFFCURVE",
"129 562 OFFCURVE",
"119 493 CURVE SMOOTH"
);
}
);
width = 1200;
}
);
unicode = E104;
},
{
glyphname = uniE105;
layers = (
{
layerId = "9ECC7D36-9140-4F4B-A408-CD21EECD2CFD";
name = Regular;
paths = (
{
closed = 1;
nodes = (
"-61 600 LINE",
"-35 640 LINE",
"-31 647 OFFCURVE",
"-24 657 OFFCURVE",
"-15 670 CURVE SMOOTH",
"4 697 OFFCURVE",
"56 763 OFFCURVE",
"109 819 CURVE SMOOTH",
"161 875 OFFCURVE",
"243 945 OFFCURVE",
"322 993 CURVE SMOOTH",
"401 1040 OFFCURVE",
"504 1075 OFFCURVE",
"600 1075 CURVE SMOOTH",
"696 1075 OFFCURVE",
"799 1040 OFFCURVE",
"878 993 CURVE SMOOTH",
"957 945 OFFCURVE",
"1039 875 OFFCURVE",
"1092 819 CURVE SMOOTH",
"1144 763 OFFCURVE",
"1196 697 OFFCURVE",
"1215 670 CURVE SMOOTH",
"1224 657 OFFCURVE",
"1231 647 OFFCURVE",
"1235 640 CURVE",
"1261 600 LINE",
"1235 560 LINE",
"1231 553 OFFCURVE",
"1224 543 OFFCURVE",
"1215 530 CURVE SMOOTH",
"1196 503 OFFCURVE",
"1144 437 OFFCURVE",
"1092 381 CURVE SMOOTH",
"1039 325 OFFCURVE",
"957 255 OFFCURVE",
"878 208 CURVE SMOOTH",
"799 160 OFFCURVE",
"696 125 OFFCURVE",
"600 125 CURVE SMOOTH",
"504 125 OFFCURVE",
"401 160 OFFCURVE",
"322 208 CURVE SMOOTH",
"243 255 OFFCURVE",
"161 325 OFFCURVE",
"109 381 CURVE SMOOTH",
"56 437 OFFCURVE",
"4 503 OFFCURVE",
"-15 530 CURVE SMOOTH",
"-24 543 OFFCURVE",
"-31 553 OFFCURVE",
"-35 560 CURVE"
);
},
{
closed = 1;
nodes = (
"125 593 OFFCURVE",
"138 574 OFFCURVE",
"161 542 CURVE SMOOTH",
"205 478 OFFCURVE",
"224 449 OFFCURVE",
"285 386 CURVE SMOOTH",
"345 323 OFFCURVE",
"394 290 OFFCURVE",
"475 262 CURVE SMOOTH",
"516 247 OFFCURVE",
"557 240 OFFCURVE",
"600 240 CURVE SMOOTH",
"685 240 OFFCURVE",
"769 272 OFFCURVE",
"824 306 CURVE SMOOTH",
"879 340 OFFCURVE",
"947 413 OFFCURVE",
"976 453 CURVE",
"991 472 OFFCURVE",
"1010 499 OFFCURVE",
"1034 534 CURVE SMOOTH",
"1058 569 OFFCURVE",
"1074 591 OFFCURVE",
"1081 600 CURVE",
"1080 601 OFFCURVE",
"1071 613 OFFCURVE",
"1053 638 CURVE SMOOTH",
"1016 686 OFFCURVE",
"1006 700 OFFCURVE",
"967 746 CURVE SMOOTH",
"928 792 OFFCURVE",
"891 830 OFFCURVE",
"851 863 CURVE",
"884 814 OFFCURVE",
"900 759 OFFCURVE",
"900 700 CURVE SMOOTH",
"900 535 OFFCURVE",
"765 400 OFFCURVE",
"600 400 CURVE SMOOTH",
"435 400 OFFCURVE",
"300 535 OFFCURVE",
"300 700 CURVE SMOOTH",
"300 757 OFFCURVE",
"315 809 OFFCURVE",
"346 858 CURVE",
"278 800 OFFCURVE",
"203 714 OFFCURVE",
"120 600 CURVE"
);
},
{
closed = 1;
nodes = (
"377 656 LINE",
"410 573 OFFCURVE",
"461 510 OFFCURVE",
"531 465 CURVE",
"636 570 LINE",
"587 602 OFFCURVE",
"529 678 OFFCURVE",
"504 726 CURVE SMOOTH",
"484 762 LINE"
);
}
);
width = 1200;
}
);
unicode = E105;
},
{
glyphname = uniE106;
layers = (
{
layerId = "9ECC7D36-9140-4F4B-A408-CD21EECD2CFD";
name = Regular;
paths = (
{
closed = 1;
nodes = (
"-61 600 LINE",
"-35 640 LINE",
"-31 647 OFFCURVE",
"-24 657 OFFCURVE",
"-15 670 CURVE SMOOTH",
"4 697 OFFCURVE",
"56 763 OFFCURVE",
"109 819 CURVE SMOOTH",
"161 875 OFFCURVE",
"243 945 OFFCURVE",
"322 993 CURVE SMOOTH",
"401 1040 OFFCURVE",
"504 1075 OFFCURVE",
"600 1075 CURVE SMOOTH",
"641 1075 OFFCURVE",
"681 1069 OFFCURVE",
"721 1058 CURVE",
"758 1200 LINE",
"906 1200 LINE",
"592 0 LINE",
"444 0 LINE",
"481 143 LINE",
"372 171 OFFCURVE",
"252 248 OFFCURVE",
"176 317 CURVE SMOOTH",
"100 385 OFFCURVE",
"21 480 OFFCURVE",
"-5 517 CURVE SMOOTH",
"-18 536 OFFCURVE",
"-28 550 OFFCURVE",
"-35 560 CURVE SMOOTH"
);
},
{
closed = 1;
nodes = (
"260 412 OFFCURVE",
"391 300 OFFCURVE",
"513 264 CURVE",
"550 405 LINE",
"407 429 OFFCURVE",
"300 553 OFFCURVE",
"300 700 CURVE SMOOTH",
"300 757 OFFCURVE",
"315 809 OFFCURVE",
"346 858 CURVE",
"278 800 OFFCURVE",
"203 714 OFFCURVE",
"120 600 CURVE"
);
},
{
closed = 1;
nodes = (
"377 656 LINE",
"410 573 OFFCURVE",
"461 510 OFFCURVE",
"531 465 CURVE",
"578 512 LINE",
"601 599 LINE",
"561 636 OFFCURVE",
"518 700 OFFCURVE",
"498 736 CURVE SMOOTH",
"484 762 LINE"
);
},
{
closed = 1;
nodes = (
"818 306 LINE",
"847 326 OFFCURVE",
"877 351 OFFCURVE",
"909 384 CURVE SMOOTH",
"940 417 OFFCURVE",
"958 437 OFFCURVE",
"990 479 CURVE SMOOTH",
"1006 500 OFFCURVE",
"1017 514 OFFCURVE",
"1024 522 CURVE",
"1036 538 OFFCURVE",
"1080 597 OFFCURVE",
"1081 600 CURVE",
"1016 685 OFFCURVE",
"970 743 OFFCURVE",
"941 775 CURVE",
"980 921 LINE",
"1069 849 OFFCURVE",
"1168 735 OFFCURVE",
"1199 692 CURVE SMOOTH",
"1214 671 OFFCURVE",
"1226 653 OFFCURVE",
"1235 640 CURVE SMOOTH",
"1261 600 LINE",
"1235 560 LINE SMOOTH",
"1230 552 OFFCURVE",
"1222 539 OFFCURVE",
"1210 522 CURVE SMOOTH",
"1185 487 OFFCURVE",
"1118 405 OFFCURVE",
"1051 340 CURVE SMOOTH",
"983 275 OFFCURVE",
"877 198 OFFCURVE",
"780 161 CURVE"
);
}
);
width = 1200;
}
);
unicode = E106;
},
{
glyphname = uniE107;
layers = (
{
layerId = "9ECC7D36-9140-4F4B-A408-CD21EECD2CFD";
name = Regular;
paths = (
{
closed = 1;
nodes = (
"-89 100 LINE",
"-117 57 OFFCURVE",
"-95 0 OFFCURVE",
"-46 0 CURVE SMOOTH",
"1248 0 LINE SMOOTH",
"1297 0 OFFCURVE",
"1319 60 OFFCURVE",
"1291 103 CURVE SMOOTH",
"649 1159 LINE SMOOTH",
"622 1204 OFFCURVE",
"580 1209 OFFCURVE",
"553 1166 CURVE SMOOTH"
);
},
{
closed = 1;
nodes = (
"156 200 LINE",
"601 923 LINE",
"1046 200 LINE",
"701 200 LINE",
"701 300 LINE",
"501 300 LINE",
"501 200 LINE"
);
},
{
closed = 1;
nodes = (
"501 600 LINE",
"601 300 LINE",
"701 600 LINE",
"701 700 LINE",
"501 700 LINE"
);
}
);
width = 1200;
}
);
unicode = E107;
},
{
glyphname = uniE108;
layers = (
{
layerId = "9ECC7D36-9140-4F4B-A408-CD21EECD2CFD";
name = Regular;
paths = (
{
closed = 1;
nodes = (
"100 303 LINE SMOOTH",
"100 330 OFFCURVE",
"117 367 OFFCURVE",
"137 386 CURVE SMOOTH",
"500 711 LINE",
"500 1050 LINE SMOOTH",
"500 1133 OFFCURVE",
"567 1200 OFFCURVE",
"650 1200 CURVE SMOOTH",
"733 1200 OFFCURVE",
"800 1133 OFFCURVE",
"800 1050 CURVE SMOOTH",
"800 711 LINE",
"1163 386 LINE SMOOTH",
"1183 367 OFFCURVE",
"1200 330 OFFCURVE",
"1200 303 CURVE SMOOTH",
"1200 262 LINE SMOOTH",
"1200 235 OFFCURVE",
"1182 225 OFFCURVE",
"1159 241 CURVE SMOOTH",
"800 490 LINE",
"800 227 LINE",
"867 166 OFFCURVE",
"900 129 OFFCURVE",
"900 114 CURVE SMOOTH",
"900 50 LINE SMOOTH",
"900 23 OFFCURVE",
"880 10 OFFCURVE",
"855 22 CURVE",
"761 100 LINE",
"539 100 LINE",
"445 22 LINE",
"420 10 OFFCURVE",
"400 23 OFFCURVE",
"400 50 CURVE SMOOTH",
"400 114 LINE SMOOTH",
"400 129 OFFCURVE",
"433 166 OFFCURVE",
"500 227 CURVE",
"500 490 LINE",
"141 241 LINE SMOOTH",
"118 225 OFFCURVE",
"100 235 OFFCURVE",
"100 262 CURVE SMOOTH"
);
}
);
width = 1200;
}
);
unicode = E108;
},
{
glyphname = uniE109;
layers = (
{
layerId = "9ECC7D36-9140-4F4B-A408-CD21EECD2CFD";
name = Regular;
paths = (
{
closed = 1;
nodes = (
"0 50 LINE SMOOTH",
"0 23 OFFCURVE",
"22 0 OFFCURVE",
"50 0 CURVE SMOOTH",
"1050 0 LINE SMOOTH",
"1078 0 OFFCURVE",
"1100 23 OFFCURVE",
"1100 50 CURVE SMOOTH",
"1100 800 LINE",
"0 800 LINE"
);
},
{
closed = 1;
nodes = (
"0 900 LINE",
"1100 900 LINE",
"1100 1050 LINE SMOOTH",
"1100 1078 OFFCURVE",
"1078 1100 OFFCURVE",
"1050 1100 CURVE SMOOTH",
"900 1100 LINE",
"900 1200 LINE",
"800 1200 LINE",
"800 1100 LINE",
"300 1100 LINE",
"300 1200 LINE",
"200 1200 LINE",
"200 1100 LINE",
"50 1100 LINE SMOOTH",
"22 1100 OFFCURVE",
"0 1078 OFFCURVE",
"0 1050 CURVE SMOOTH"
);
},
{
closed = 1;
nodes = (
"100 100 LINE",
"100 200 LINE",
"200 200 LINE",
"200 100 LINE"
);
},
{
closed = 1;
nodes = (
"100 300 LINE",
"100 400 LINE",
"200 400 LINE",
"200 300 LINE"
);
},
{
closed = 1;
nodes = (
"100 500 LINE",
"100 600 LINE",
"200 600 LINE",
"200 500 LINE"
);
},
{
closed = 1;
nodes = (
"300 100 LINE",
"300 200 LINE",
"400 200 LINE",
"400 100 LINE"
);
},
{
closed = 1;
nodes = (
"300 300 LINE",
"300 400 LINE",
"400 400 LINE",
"400 300 LINE"
);
},
{
closed = 1;
nodes = (
"300 500 LINE",
"300 600 LINE",
"400 600 LINE",
"400 500 LINE"
);
},
{
closed = 1;
nodes = (
"500 100 LINE",
"500 200 LINE",
"600 200 LINE",
"600 100 LINE"
);
},
{
closed = 1;
nodes = (
"500 300 LINE",
"500 400 LINE",
"600 400 LINE",
"600 300 LINE"
);
},
{
closed = 1;
nodes = (
"500 500 LINE",
"500 600 LINE",
"600 600 LINE",
"600 500 LINE"
);
},
{
closed = 1;
nodes = (
"700 100 LINE",
"700 200 LINE",
"800 200 LINE",
"800 100 LINE"
);
},
{
closed = 1;
nodes = (
"700 300 LINE",
"700 400 LINE",
"800 400 LINE",
"800 300 LINE"
);
},
{
closed = 1;
nodes = (
"700 500 LINE",
"700 600 LINE",
"800 600 LINE",
"800 500 LINE"
);
},
{
closed = 1;
nodes = (
"900 100 LINE",
"900 200 LINE",
"1000 200 LINE",
"1000 100 LINE"
);
},
{
closed = 1;
nodes = (
"900 300 LINE",
"900 400 LINE",
"1000 400 LINE",
"1000 300 LINE"
);
},
{
closed = 1;
nodes = (
"900 500 LINE",
"900 600 LINE",
"1000 600 LINE",
"1000 500 LINE"
);
}
);
width = 1200;
}
);
unicode = E109;
},
{
glyphname = uniE110;
layers = (
{
layerId = "9ECC7D36-9140-4F4B-A408-CD21EECD2CFD";
name = Regular;
paths = (
{
closed = 1;
nodes = (
"0 200 LINE",
"0 400 LINE",
"259 400 LINE",
"859 1000 LINE",
"1100 1000 LINE",
"1100 1198 LINE",
"1400 903 LINE",
"1100 603 LINE",
"1100 800 LINE",
"941 800 LINE",
"341 200 LINE"
);
},
{
closed = 1;
nodes = (
"0 800 LINE",
"259 800 LINE",
"381 678 LINE",
"522 820 LINE",
"341 1000 LINE",
"0 1000 LINE"
);
},
{
closed = 1;
nodes = (
"678 381 LINE",
"819 523 LINE",
"941 400 LINE",
"1100 400 LINE",
"1100 598 LINE",
"1400 303 LINE",
"1100 3 LINE",
"1100 200 LINE",
"859 200 LINE"
);
}
);
width = 1200;
}
);
unicode = E110;
},
{
glyphname = uniE111;
layers = (
{
layerId = "9ECC7D36-9140-4F4B-A408-CD21EECD2CFD";
name = Regular;
paths = (
{
closed = 1;
nodes = (
"0 1000 LINE SMOOTH",
"0 1055 OFFCURVE",
"45 1100 OFFCURVE",
"100 1100 CURVE SMOOTH",
"1100 1100 LINE SMOOTH",
"1155 1100 OFFCURVE",
"1200 1055 OFFCURVE",
"1200 1000 CURVE SMOOTH",
"1200 400 LINE SMOOTH",
"1200 345 OFFCURVE",
"1155 300 OFFCURVE",
"1100 300 CURVE SMOOTH",
"504 300 LINE",
"200 0 LINE",
"200 300 LINE",
"100 300 LINE SMOOTH",
"45 300 OFFCURVE",
"0 345 OFFCURVE",
"0 400 CURVE SMOOTH"
);
}
);
width = 1200;
}
);
unicode = E111;
},
{
glyphname = uniE112;
layers = (
{
layerId = "9ECC7D36-9140-4F4B-A408-CD21EECD2CFD";
name = Regular;
paths = (
{
closed = 1;
nodes = (
"100 800 LINE",
"400 800 LINE",
"400 550 LINE SMOOTH",
"400 399 OFFCURVE",
"395 321 OFFCURVE",
"508 288 CURVE SMOOTH",
"534 281 OFFCURVE",
"565 277 OFFCURVE",
"600 277 CURVE SMOOTH",
"649 277 OFFCURVE",
"689 285 OFFCURVE",
"717 298 CURVE SMOOTH",
"744 311 OFFCURVE",
"765 330 OFFCURVE",
"777 354 CURVE SMOOTH",
"788 377 OFFCURVE",
"796 404 OFFCURVE",
"798 433 CURVE SMOOTH",
"800 462 OFFCURVE",
"801 493 OFFCURVE",
"800 525 CURVE",
"800 536 OFFCURVE",
"800 545 OFFCURVE",
"800 550 CURVE SMOOTH",
"800 800 LINE",
"1100 800 LINE",
"1100 600 LINE SMOOTH",
"1100 544 OFFCURVE",
"1098 497 OFFCURVE",
"1082 413 CURVE SMOOTH",
"1066 329 OFFCURVE",
"1044 263 OFFCURVE",
"993 188 CURVE SMOOTH",
"941 112 OFFCURVE",
"879 60 OFFCURVE",
"775 26 CURVE SMOOTH",
"722 9 OFFCURVE",
"664 0 OFFCURVE",
"600 0 CURVE SMOOTH",
"472 0 OFFCURVE",
"364 38 OFFCURVE",
"297 91 CURVE SMOOTH",
"229 144 OFFCURVE",
"176 226 OFFCURVE",
"150 297 CURVE SMOOTH",
"124 368 OFFCURVE",
"107 462 OFFCURVE",
"103 517 CURVE SMOOTH",
"101 544 OFFCURVE",
"100 572 OFFCURVE",
"100 600 CURVE SMOOTH"
);
},
{
closed = 1;
nodes = (
"100 900 LINE",
"100 1200 LINE",
"400 1200 LINE",
"400 900 LINE"
);
},
{
closed = 1;
nodes = (
"800 900 LINE",
"800 1200 LINE",
"1100 1200 LINE",
"1100 900 LINE"
);
}
);
width = 1200;
}
);
unicode = E112;
},
{
glyphname = uniE113;
layers = (
{
layerId = "9ECC7D36-9140-4F4B-A408-CD21EECD2CFD";
name = Regular;
paths = (
{
closed = 1;
nodes = (
"-30 411 LINE",
"197 184 LINE",
"549 537 LINE",
"902 184 LINE",
"1128 411 LINE",
"550 990 LINE"
);
}
);
width = 1200;
}
);
unicode = E113;
},
{
glyphname = uniE114;
layers = (
{
layerId = "9ECC7D36-9140-4F4B-A408-CD21EECD2CFD";
name = Regular;
paths = (
{
closed = 1;
nodes = (
"70 797 LINE",
"650 218 LINE",
"1228 797 LINE",
"1002 1024 LINE",
"649 671 LINE",
"297 1024 LINE"
);
}
);
width = 1200;
}
);
unicode = E114;
},
{
glyphname = uniE115;
layers = (
{
layerId = "9ECC7D36-9140-4F4B-A408-CD21EECD2CFD";
name = Regular;
paths = (
{
closed = 1;
nodes = (
"-198 700 LINE",
"101 983 LINE",
"401 700 LINE",
"198 700 LINE",
"198 300 LINE",
"583 300 LINE",
"798 100 LINE",
"-2 100 LINE",
"-2 700 LINE"
);
},
{
closed = 1;
nodes = (
"402 1000 LINE",
"617 800 LINE",
"998 800 LINE",
"998 400 LINE",
"800 400 LINE",
"1099 117 LINE",
"1398 400 LINE",
"1198 400 LINE",
"1198 1000 LINE"
);
}
);
width = 1200;
}
);
unicode = E115;
},
{
glyphname = uniE116;
layers = (
{
layerId = "9ECC7D36-9140-4F4B-A408-CD21EECD2CFD";
name = Regular;
paths = (
{
closed = 1;
nodes = (
"18 939 LINE SMOOTH",
"11 971 OFFCURVE",
"34 1000 OFFCURVE",
"67 1000 CURVE SMOOTH",
"963 1000 LINE",
"1001 1162 LINE",
"1008 1185 OFFCURVE",
"1027 1200 OFFCURVE",
"1050 1200 CURVE SMOOTH",
"1144 1200 LINE SMOOTH",
"1171 1200 OFFCURVE",
"1194 1178 OFFCURVE",
"1194 1150 CURVE SMOOTH",
"1194 1122 OFFCURVE",
"1171 1100 OFFCURVE",
"1144 1100 CURVE SMOOTH",
"1090 1100 LINE",
"889 139 LINE",
"888 136 OFFCURVE",
"886 133 OFFCURVE",
"883 129 CURVE",
"878 120 OFFCURVE",
"855 100 OFFCURVE",
"831 100 CURVE SMOOTH",
"800 100 LINE",
"800 50 LINE SMOOTH",
"800 23 OFFCURVE",
"778 0 OFFCURVE",
"750 0 CURVE SMOOTH",
"722 0 OFFCURVE",
"700 23 OFFCURVE",
"700 50 CURVE SMOOTH",
"700 100 LINE",
"400 100 LINE",
"400 50 LINE SMOOTH",
"400 23 OFFCURVE",
"378 0 OFFCURVE",
"350 0 CURVE SMOOTH",
"322 0 OFFCURVE",
"300 23 OFFCURVE",
"300 50 CURVE SMOOTH",
"300 100 LINE",
"250 100 LINE SMOOTH",
"222 100 OFFCURVE",
"200 123 OFFCURVE",
"200 150 CURVE SMOOTH",
"200 178 OFFCURVE",
"222 200 OFFCURVE",
"250 200 CURVE SMOOTH",
"785 200 LINE",
"833 400 LINE",
"200 400 LINE SMOOTH",
"157 400 OFFCURVE",
"125 435 OFFCURVE",
"118 464 CURVE SMOOTH"
);
}
);
width = 1200;
}
);
unicode = E116;
},
{
glyphname = uniE117;
layers = (
{
layerId = "9ECC7D36-9140-4F4B-A408-CD21EECD2CFD";
name = Regular;
paths = (
{
closed = 1;
nodes = (
"0 0 LINE",
"0 800 LINE",
"1200 800 LINE",
"1200 0 LINE"
);
},
{
closed = 1;
nodes = (
"0 900 LINE",
"0 1000 LINE",
"200 1000 LINE",
"200 1055 OFFCURVE",
"245 1100 OFFCURVE",
"300 1100 CURVE SMOOTH",
"600 1100 LINE SMOOTH",
"655 1100 OFFCURVE",
"700 1055 OFFCURVE",
"700 1000 CURVE",
"1200 1000 LINE",
"1200 900 LINE"
);
}
);
width = 1200;
}
);
unicode = E117;
},
{
glyphname = uniE118;
layers = (
{
layerId = "9ECC7D36-9140-4F4B-A408-CD21EECD2CFD";
name = Regular;
paths = (
{
closed = 1;
nodes = (
"1 0 LINE",
"301 700 LINE",
"1501 700 LINE",
"1201 0 LINE"
);
},
{
closed = 1;
nodes = (
"1 400 LINE",
"1 1000 LINE",
"201 1000 LINE",
"201 1055 OFFCURVE",
"246 1100 OFFCURVE",
"301 1100 CURVE SMOOTH",
"601 1100 LINE SMOOTH",
"656 1100 OFFCURVE",
"701 1055 OFFCURVE",
"701 1000 CURVE",
"1201 1000 LINE",
"1201 800 LINE",
"201 800 LINE"
);
}
);
width = 1200;
}
);
unicode = E118;
},
{
glyphname = uniE119;
layers = (
{
layerId = "9ECC7D36-9140-4F4B-A408-CD21EECD2CFD";
name = Regular;
paths = (
{
closed = 1;
nodes = (
"302 300 LINE",
"500 300 LINE",
"500 900 LINE",
"302 900 LINE",
"600 1200 LINE",
"898 900 LINE",
"700 900 LINE",
"700 300 LINE",
"898 300 LINE",
"600 0 LINE"
);
}
);
width = 1200;
}
);
unicode = E119;
},
{
glyphname = uniE120;
layers = (
{
layerId = "9ECC7D36-9140-4F4B-A408-CD21EECD2CFD";
name = Regular;
paths = (
{
closed = 1;
nodes = (
"0 600 LINE",
"300 898 LINE",
"300 700 LINE",
"900 700 LINE",
"900 898 LINE",
"1200 600 LINE",
"900 303 LINE",
"900 500 LINE",
"300 500 LINE",
"300 303 LINE"
);
}
);
width = 1200;
}
);
unicode = E120;
},
{
glyphname = uniE121;
layers = (
{
layerId = "9ECC7D36-9140-4F4B-A408-CD21EECD2CFD";
name = Regular;
paths = (
{
closed = 1;
nodes = (
"0 200 LINE SMOOTH",
"0 255 OFFCURVE",
"45 300 OFFCURVE",
"100 300 CURVE SMOOTH",
"1100 300 LINE SMOOTH",
"1155 300 OFFCURVE",
"1200 255 OFFCURVE",
"1200 200 CURVE SMOOTH",
"1200 100 LINE SMOOTH",
"1200 45 OFFCURVE",
"1155 0 OFFCURVE",
"1100 0 CURVE SMOOTH",
"100 0 LINE SMOOTH",
"45 0 OFFCURVE",
"0 45 OFFCURVE",
"0 100 CURVE SMOOTH"
);
},
{
closed = 1;
nodes = (
"31 400 LINE",
"203 1139 LINE SMOOTH",
"210 1168 OFFCURVE",
"237 1200 OFFCURVE",
"264 1200 CURVE SMOOTH",
"936 1200 LINE SMOOTH",
"961 1200 OFFCURVE",
"990 1163 OFFCURVE",
"997 1132 CURVE SMOOTH",
"1169 400 LINE"
);
},
{
closed = 1;
nodes = (
"800 100 LINE",
"900 100 LINE",
"900 200 LINE",
"800 200 LINE"
);
},
{
closed = 1;
nodes = (
"1000 100 LINE",
"1100 100 LINE",
"1100 200 LINE",
"1000 200 LINE"
);
}
);
width = 1200;
}
);
unicode = E121;
},
{
glyphname = uniE122;
layers = (
{
layerId = "9ECC7D36-9140-4F4B-A408-CD21EECD2CFD";
name = Regular;
paths = (
{
closed = 1;
nodes = (
"-101 650 LINE SMOOTH",
"-101 682 OFFCURVE",
"-59 720 OFFCURVE",
"-26 737 CURVE SMOOTH",
"-1 750 LINE",
"-1 500 LINE",
"-4 501 OFFCURVE",
"-7 503 OFFCURVE",
"-12 506 CURVE",
"-21 510 OFFCURVE",
"-49 526 OFFCURVE",
"-66 541 CURVE SMOOTH",
"-83 556 OFFCURVE",
"-101 580 OFFCURVE",
"-101 600 CURVE SMOOTH"
);
},
{
closed = 1;
nodes = (
"100 750 LINE SMOOTH",
"100 751 OFFCURVE",
"100 754 OFFCURVE",
"100 758 CURVE SMOOTH",
"100 762 OFFCURVE",
"100 765 OFFCURVE",
"100 766 CURVE SMOOTH",
"100 767 OFFCURVE",
"100 770 OFFCURVE",
"100 773 CURVE SMOOTH",
"100 780 OFFCURVE",
"101 781 OFFCURVE",
"102 786 CURVE",
"103 790 OFFCURVE",
"104 791 OFFCURVE",
"107 795 CURVE",
"110 798 OFFCURVE",
"113 799 OFFCURVE",
"118 800 CURVE",
"120 800 OFFCURVE",
"122 800 OFFCURVE",
"125 800 CURVE SMOOTH",
"325 800 LINE",
"1000 1050 LINE",
"1000 200 LINE",
"325 400 LINE",
"287 400 LINE",
"334 124 LINE SMOOTH",
"337 108 OFFCURVE",
"328 101 OFFCURVE",
"320 101 CURVE",
"316 100 OFFCURVE",
"309 100 OFFCURVE",
"299 100 CURVE SMOOTH",
"296 100 OFFCURVE",
"293 100 OFFCURVE",
"291 100 CURVE SMOOTH",
"208 100 LINE SMOOTH",
"181 100 OFFCURVE",
"160 121 OFFCURVE",
"155 149 CURVE SMOOTH",
"118 374 OFFCURVE",
"100 491 OFFCURVE",
"100 500 CURVE SMOOTH"
);
},
{
closed = 1;
nodes = (
"1100 1050 LINE SMOOTH",
"1100 1078 OFFCURVE",
"1122 1100 OFFCURVE",
"1150 1100 CURVE SMOOTH",
"1177 1100 OFFCURVE",
"1200 1078 OFFCURVE",
"1200 1050 CURVE SMOOTH",
"1200 200 LINE SMOOTH",
"1200 173 OFFCURVE",
"1177 150 OFFCURVE",
"1150 150 CURVE SMOOTH",
"1122 150 OFFCURVE",
"1100 173 OFFCURVE",
"1100 200 CURVE SMOOTH"
);
}
);
width = 1200;
}
);
unicode = E122;
},
{
glyphname = uniE123;
layers = (
{
layerId = "9ECC7D36-9140-4F4B-A408-CD21EECD2CFD";
name = Regular;
paths = (
{
closed = 1;
nodes = (
"74 378 OFFCURVE",
"94 400 OFFCURVE",
"121 400 CURVE SMOOTH",
"139 400 LINE",
"256 573 LINE",
"319 900 LINE SMOOTH",
"339 1003 OFFCURVE",
"428 1096 OFFCURVE",
"539 1123 CURVE",
"521 1155 LINE",
"513 1180 OFFCURVE",
"526 1200 OFFCURVE",
"553 1200 CURVE SMOOTH",
"647 1200 LINE SMOOTH",
"674 1200 OFFCURVE",
"687 1185 OFFCURVE",
"679 1160 CURVE",
"667 1136 OFFCURVE",
"661 1124 OFFCURVE",
"661 1123 CURVE",
"772 1098 OFFCURVE",
"861 1003 OFFCURVE",
"881 900 CURVE SMOOTH",
"944 573 LINE",
"1062 400 LINE",
"1079 400 LINE SMOOTH",
"1106 400 OFFCURVE",
"1126 378 OFFCURVE",
"1126 350 CURVE SMOOTH",
"1126 323 OFFCURVE",
"1106 292 OFFCURVE",
"1082 283 CURVE SMOOTH",
"1077 281 OFFCURVE",
"1069 278 OFFCURVE",
"1059 275 CURVE",
"1039 267 OFFCURVE",
"962 244 OFFCURVE",
"891 230 CURVE SMOOTH",
"820 216 OFFCURVE",
"705 201 OFFCURVE",
"600 201 CURVE SMOOTH",
"433 201 OFFCURVE",
"253 235 OFFCURVE",
"176 262 CURVE SMOOTH",
"118 282 LINE SMOOTH",
"94 291 OFFCURVE",
"74 323 OFFCURVE",
"74 350 CURVE SMOOTH"
);
},
{
closed = 1;
nodes = (
"513 45 OFFCURVE",
"553 0 OFFCURVE",
"600 0 CURVE SMOOTH",
"647 0 OFFCURVE",
"687 45 OFFCURVE",
"702 110 CURVE",
"670 106 OFFCURVE",
"636 104 OFFCURVE",
"600 104 CURVE SMOOTH",
"564 104 OFFCURVE",
"530 106 OFFCURVE",
"497 110 CURVE"
);
}
);
width = 1200;
}
);
unicode = E123;
},
{
glyphname = uniE124;
layers = (
{
layerId = "9ECC7D36-9140-4F4B-A408-CD21EECD2CFD";
name = Regular;
paths = (
{
closed = 1;
nodes = (
"21 445 LINE",
"254 400 LINE",
"176 176 LINE",
"400 254 LINE",
"445 21 LINE",
"600 200 LINE",
"755 21 LINE",
"800 254 LINE",
"1024 176 LINE",
"946 400 LINE",
"1180 445 LINE",
"1000 600 LINE",
"1180 756 LINE",
"946 800 LINE",
"1024 1025 LINE",
"800 947 LINE",
"755 1180 LINE",
"600 1000 LINE",
"445 1180 LINE",
"400 947 LINE",
"176 1025 LINE",
"254 800 LINE",
"21 756 LINE",
"200 600 LINE"
);
}
);
width = 1200;
}
);
unicode = E124;
},
{
glyphname = uniE125;
layers = (
{
layerId = "9ECC7D36-9140-4F4B-A408-CD21EECD2CFD";
name = Regular;
paths = (
{
closed = 1;
nodes = (
"0 200 LINE",
"200 200 LINE",
"200 800 LINE",
"0 800 LINE"
);
},
{
closed = 1;
nodes = (
"300 275 LINE SMOOTH",
"300 225 OFFCURVE",
"333 200 OFFCURVE",
"400 200 CURVE SMOOTH",
"461 200 LINE",
"544 133 OFFCURVE",
"590 100 OFFCURVE",
"600 100 CURVE SMOOTH",
"850 100 LINE SMOOTH",
"881 100 OFFCURVE",
"908 119 OFFCURVE",
"933 157 CURVE SMOOTH",
"1171 501 LINE",
"1190 522 OFFCURVE",
"1200 546 OFFCURVE",
"1200 575 CURVE SMOOTH",
"1200 675 LINE SMOOTH",
"1200 734 OFFCURVE",
"1152 800 OFFCURVE",
"1100 800 CURVE SMOOTH",
"772 800 LINE",
"791 879 OFFCURVE",
"800 920 OFFCURVE",
"800 925 CURVE SMOOTH",
"800 1075 LINE SMOOTH",
"800 1134 OFFCURVE",
"752 1200 OFFCURVE",
"700 1200 CURVE SMOOTH",
"650 1200 LINE SMOOTH",
"614 1200 OFFCURVE",
"580 1169 OFFCURVE",
"561 1132 CURVE SMOOTH",
"465 934 LINE",
"320 738 LINE SMOOTH",
"307 721 OFFCURVE",
"300 700 OFFCURVE",
"300 675 CURVE SMOOTH"
);
},
{
closed = 1;
nodes = (
"400 300 LINE",
"400 675 LINE",
"550 888 LINE",
"650 1100 LINE",
"700 1100 LINE",
"700 925 LINE",
"650 700 LINE",
"1100 700 LINE",
"1100 575 LINE",
"850 200 LINE",
"636 200 LINE",
"500 300 LINE"
);
}
);
width = 1200;
}
);
unicode = E125;
},
{
glyphname = uniE126;
layers = (
{
layerId = "9ECC7D36-9140-4F4B-A408-CD21EECD2CFD";
name = Regular;
paths = (
{
closed = 1;
nodes = (
"0 400 LINE",
"0 1000 LINE",
"200 1000 LINE",
"200 400 LINE"
);
},
{
closed = 1;
nodes = (
"300 925 LINE SMOOTH",
"300 975 OFFCURVE",
"333 1000 OFFCURVE",
"400 1000 CURVE SMOOTH",
"461 1000 LINE",
"544 1067 OFFCURVE",
"590 1100 OFFCURVE",
"600 1100 CURVE SMOOTH",
"850 1100 LINE SMOOTH",
"881 1100 OFFCURVE",
"908 1081 OFFCURVE",
"933 1043 CURVE SMOOTH",
"1171 699 LINE",
"1190 678 OFFCURVE",
"1200 654 OFFCURVE",
"1200 625 CURVE SMOOTH",
"1200 525 LINE SMOOTH",
"1200 466 OFFCURVE",
"1152 400 OFFCURVE",
"1100 400 CURVE SMOOTH",
"772 400 LINE",
"791 321 OFFCURVE",
"800 280 OFFCURVE",
"800 275 CURVE SMOOTH",
"800 125 LINE SMOOTH",
"800 66 OFFCURVE",
"752 0 OFFCURVE",
"700 0 CURVE SMOOTH",
"650 0 LINE SMOOTH",
"614 0 OFFCURVE",
"580 31 OFFCURVE",
"561 68 CURVE SMOOTH",
"465 266 LINE",
"320 462 LINE SMOOTH",
"307 479 OFFCURVE",
"300 500 OFFCURVE",
"300 525 CURVE SMOOTH"
);
},
{
closed = 1;
nodes = (
"400 525 LINE",
"550 313 LINE",
"650 100 LINE",
"700 100 LINE",
"700 275 LINE",
"650 500 LINE",
"1100 500 LINE",
"1100 625 LINE",
"850 1000 LINE",
"636 1000 LINE",
"500 900 LINE",
"400 900 LINE"
);
}
);
width = 1200;
}
);
unicode = E126;
},
{
glyphname = uniE127;
layers = (
{
layerId = "9ECC7D36-9140-4F4B-A408-CD21EECD2CFD";
name = Regular;
paths = (
{
closed = 1;
nodes = (
"8 200 LINE",
"8 800 LINE",
"208 800 LINE",
"208 200 LINE"
);
},
{
closed = 1;
nodes = (
"308 800 LINE SMOOTH",
"308 823 OFFCURVE",
"331 851 OFFCURVE",
"350 864 CURVE SMOOTH",
"364 873 LINE",
"726 1103 LINE",
"735 1107 OFFCURVE",
"744 1109 OFFCURVE",
"751 1109 CURVE SMOOTH",
"762 1109 OFFCURVE",
"772 1105 OFFCURVE",
"780 1097 CURVE SMOOTH",
"889 985 LINE SMOOTH",
"898 976 OFFCURVE",
"903 964 OFFCURVE",
"903 951 CURVE SMOOTH",
"903 939 OFFCURVE",
"899 928 OFFCURVE",
"892 919 CURVE",
"807 798 LINE",
"1109 798 LINE SMOOTH",
"1222 798 OFFCURVE",
"1301 746 OFFCURVE",
"1301 650 CURVE SMOOTH",
"1301 554 OFFCURVE",
"1220 500 OFFCURVE",
"1108 500 CURVE SMOOTH",
"1001 500 LINE",
"871 161 LINE",
"862 132 OFFCURVE",
"842 100 OFFCURVE",
"822 100 CURVE SMOOTH",
"481 100 LINE SMOOTH",
"472 100 OFFCURVE",
"308 258 OFFCURVE",
"308 275 CURVE SMOOTH"
);
},
{
closed = 1;
nodes = (
"408 289 LINE",
"508 200 LINE",
"801 200 LINE",
"932 539 LINE",
"940 567 OFFCURVE",
"960 600 OFFCURVE",
"980 600 CURVE SMOOTH",
"1183 600 LINE SMOOTH",
"1204 600 OFFCURVE",
"1217 623 OFFCURVE",
"1217 651 CURVE SMOOTH",
"1217 678 OFFCURVE",
"1204 700 OFFCURVE",
"1183 700 CURVE SMOOTH",
"726 700 LINE SMOOTH",
"725 700 OFFCURVE",
"723 700 OFFCURVE",
"720 700 CURVE SMOOTH",
"716 700 OFFCURVE",
"713 700 OFFCURVE",
"712 700 CURVE SMOOTH",
"709 700 OFFCURVE",
"702 701 OFFCURVE",
"700 702 CURVE",
"699 702 OFFCURVE",
"697 702 OFFCURVE",
"695 703 CURVE",
"690 704 OFFCURVE",
"688 706 OFFCURVE",
"685 710 CURVE",
"684 711 OFFCURVE",
"682 713 OFFCURVE",
"681 715 CURVE",
"678 723 OFFCURVE",
"676 730 OFFCURVE",
"676 735 CURVE SMOOTH",
"676 744 OFFCURVE",
"679 753 OFFCURVE",
"686 762 CURVE SMOOTH",
"833 945 LINE",
"747 1028 LINE",
"408 792 LINE"
);
}
);
width = 1200;
}
);
unicode = E127;
},
{
glyphname = uniE128;
layers = (
{
layerId = "9ECC7D36-9140-4F4B-A408-CD21EECD2CFD";
name = Regular;
paths = (
{
closed = 1;
nodes = (
"-83 566 OFFCURVE",
"-101 603 OFFCURVE",
"-101 651 CURVE SMOOTH",
"-101 747 OFFCURVE",
"-21 799 OFFCURVE",
"92 799 CURVE SMOOTH",
"394 798 LINE",
"309 919 LINE",
"302 930 OFFCURVE",
"298 940 OFFCURVE",
"298 951 CURVE SMOOTH",
"298 965 OFFCURVE",
"303 976 OFFCURVE",
"312 985 CURVE SMOOTH",
"421 1098 LINE",
"430 1106 OFFCURVE",
"439 1110 OFFCURVE",
"450 1110 CURVE SMOOTH",
"457 1110 OFFCURVE",
"466 1108 OFFCURVE",
"475 1104 CURVE",
"840 874 LINE SMOOTH",
"845 871 OFFCURVE",
"850 868 OFFCURVE",
"857 864 CURVE",
"870 855 OFFCURVE",
"900 824 OFFCURVE",
"900 801 CURVE SMOOTH",
"900 275 LINE SMOOTH",
"900 258 OFFCURVE",
"731 101 OFFCURVE",
"720 101 CURVE SMOOTH",
"379 101 LINE SMOOTH",
"358 101 OFFCURVE",
"338 134 OFFCURVE",
"330 162 CURVE",
"200 501 LINE",
"93 501 LINE SMOOTH",
"37 501 OFFCURVE",
"-9 514 OFFCURVE",
"-46 540 CURVE SMOOTH"
);
},
{
closed = 1;
nodes = (
"-1 601 LINE",
"221 601 LINE SMOOTH",
"241 601 OFFCURVE",
"261 567 OFFCURVE",
"269 540 CURVE",
"400 201 LINE",
"693 201 LINE",
"800 290 LINE",
"800 792 LINE",
"457 1029 LINE",
"370 946 LINE",
"515 762 LINE",
"522 755 OFFCURVE",
"525 746 OFFCURVE",
"525 736 CURVE SMOOTH",
"525 729 OFFCURVE",
"523 722 OFFCURVE",
"520 716 CURVE",
"519 712 OFFCURVE",
"515 709 OFFCURVE",
"513 707 CURVE SMOOTH",
"511 705 OFFCURVE",
"505 703 OFFCURVE",
"502 703 CURVE",
"499 702 OFFCURVE",
"492 701 OFFCURVE",
"489 701 CURVE SMOOTH",
"488 701 OFFCURVE",
"485 701 OFFCURVE",
"482 701 CURVE SMOOTH",
"478 701 OFFCURVE",
"476 701 OFFCURVE",
"475 701 CURVE SMOOTH",
"-1 701 LINE"
);
},
{
closed = 1;
nodes = (
"1000 201 LINE",
"1000 801 LINE",
"1200 801 LINE",
"1200 201 LINE"
);
}
);
width = 1200;
}
);
unicode = E128;
},
{
glyphname = uniE129;
layers = (
{
layerId = "9ECC7D36-9140-4F4B-A408-CD21EECD2CFD";
name = Regular;
paths = (
{
closed = 1;
nodes = (
"327 356 LINE",
"330 352 OFFCURVE",
"333 347 OFFCURVE",
"338 341 CURVE",
"346 328 OFFCURVE",
"377 300 OFFCURVE",
"400 300 CURVE SMOOTH",
"925 300 LINE SMOOTH",
"942 300 OFFCURVE",
"1100 464 OFFCURVE",
"1100 473 CURVE SMOOTH",
"1100 815 LINE SMOOTH",
"1100 835 OFFCURVE",
"1067 855 OFFCURVE",
"1039 863 CURVE",
"700 994 LINE",
"700 1100 LINE SMOOTH",
"700 1212 OFFCURVE",
"646 1294 OFFCURVE",
"550 1294 CURVE SMOOTH",
"454 1294 OFFCURVE",
"402 1215 OFFCURVE",
"402 1102 CURVE SMOOTH",
"402 800 LINE",
"281 884 LINE",
"261 900 OFFCURVE",
"234 899 OFFCURVE",
"215 882 CURVE",
"103 772 LINE SMOOTH",
"88 757 OFFCURVE",
"86 740 OFFCURVE",
"97 719 CURVE"
);
},
{
closed = 1;
nodes = (
"172 739 LINE",
"255 825 LINE",
"438 679 LINE SMOOTH",
"453 667 OFFCURVE",
"468 665 OFFCURVE",
"485 674 CURVE SMOOTH",
"487 675 OFFCURVE",
"489 676 OFFCURVE",
"491 678 CURVE SMOOTH",
"492 679 OFFCURVE",
"494 681 OFFCURVE",
"495 682 CURVE SMOOTH",
"497 684 OFFCURVE",
"498 689 OFFCURVE",
"499 692 CURVE",
"499 695 OFFCURVE",
"500 702 OFFCURVE",
"500 705 CURVE SMOOTH",
"500 706 OFFCURVE",
"500 709 OFFCURVE",
"500 713 CURVE SMOOTH",
"500 716 OFFCURVE",
"500 718 OFFCURVE",
"500 719 CURVE SMOOTH",
"500 1175 LINE SMOOTH",
"500 1204 OFFCURVE",
"542 1218 OFFCURVE",
"575 1206 CURVE",
"592 1199 OFFCURVE",
"600 1189 OFFCURVE",
"600 1175 CURVE SMOOTH",
"600 973 LINE SMOOTH",
"600 952 OFFCURVE",
"633 932 OFFCURVE",
"661 924 CURVE",
"1000 794 LINE",
"1000 500 LINE",
"911 400 LINE",
"408 400 LINE"
);
},
{
closed = 1;
nodes = (
"400 0 LINE",
"400 200 LINE",
"1000 200 LINE",
"1000 0 LINE"
);
}
);
width = 1200;
}
);
unicode = E129;
},
{
glyphname = uniE130;
layers = (
{
layerId = "9ECC7D36-9140-4F4B-A408-CD21EECD2CFD";
name = Regular;
paths = (
{
closed = 1;
nodes = (
"2 585 LINE",
"-9 564 OFFCURVE",
"-7 547 OFFCURVE",
"8 532 CURVE SMOOTH",
"120 422 LINE SMOOTH",
"137 405 OFFCURVE",
"166 404 OFFCURVE",
"186 419 CURVE SMOOTH",
"307 504 LINE",
"307 470 OFFCURVE",
"307 419 OFFCURVE",
"307 351 CURVE SMOOTH",
"306 282 OFFCURVE",
"306 233 OFFCURVE",
"306 202 CURVE SMOOTH",
"306 90 OFFCURVE",
"359 10 OFFCURVE",
"455 10 CURVE SMOOTH",
"551 10 OFFCURVE",
"605 92 OFFCURVE",
"605 204 CURVE SMOOTH",
"605 310 LINE",
"944 441 LINE",
"971 449 OFFCURVE",
"1005 469 OFFCURVE",
"1005 489 CURVE SMOOTH",
"1005 831 LINE SMOOTH",
"1005 840 OFFCURVE",
"847 1004 OFFCURVE",
"830 1004 CURVE SMOOTH",
"305 1004 LINE SMOOTH",
"282 1004 OFFCURVE",
"254 981 OFFCURVE",
"241 962 CURVE SMOOTH",
"231 947 LINE"
);
},
{
closed = 1;
nodes = (
"77 565 LINE",
"313 904 LINE",
"816 904 LINE",
"905 804 LINE",
"905 510 LINE",
"565 380 LINE",
"538 372 OFFCURVE",
"505 351 OFFCURVE",
"505 331 CURVE SMOOTH",
"505 129 LINE SMOOTH",
"505 100 OFFCURVE",
"463 86 OFFCURVE",
"430 98 CURVE SMOOTH",
"413 104 OFFCURVE",
"405 114 OFFCURVE",
"405 129 CURVE SMOOTH",
"405 585 LINE SMOOTH",
"405 592 OFFCURVE",
"405 597 OFFCURVE",
"405 600 CURVE SMOOTH",
"405 604 OFFCURVE",
"403 618 OFFCURVE",
"399 623 CURVE",
"396 626 OFFCURVE",
"393 628 OFFCURVE",
"389 630 CURVE",
"373 639 OFFCURVE",
"358 637 OFFCURVE",
"343 625 CURVE SMOOTH",
"159 479 LINE"
);
},
{
closed = 1;
nodes = (
"305 1104 LINE",
"305 1304 LINE",
"905 1304 LINE",
"905 1104 LINE"
);
}
);
width = 1200;
}
);
unicode = E130;
},
{
glyphname = uniE131;
layers = (
{
layerId = "9ECC7D36-9140-4F4B-A408-CD21EECD2CFD";
name = Regular;
paths = (
{
closed = 1;
nodes = (
"5 760 OFFCURVE",
"73 913 OFFCURVE",
"180 1020 CURVE SMOOTH",
"287 1127 OFFCURVE",
"440 1195 OFFCURVE",
"603 1195 CURVE SMOOTH",
"819 1195 OFFCURVE",
"1013 1081 OFFCURVE",
"1120 897 CURVE SMOOTH",
"1173 805 OFFCURVE",
"1200 705 OFFCURVE",
"1200 597 CURVE SMOOTH",
"1200 381 OFFCURVE",
"1086 187 OFFCURVE",
"903 80 CURVE SMOOTH",
"811 27 OFFCURVE",
"711 0 OFFCURVE",
"603 0 CURVE SMOOTH",
"387 0 OFFCURVE",
"192 114 OFFCURVE",
"85 298 CURVE SMOOTH",
"32 389 OFFCURVE",
"5 489 OFFCURVE",
"5 597 CURVE SMOOTH"
);
},
{
closed = 1;
nodes = (
"298 701 LINE",
"300 500 LINE",
"600 500 LINE",
"598 306 LINE",
"1000 600 LINE",
"598 898 LINE",
"598 701 LINE"
);
}
);
width = 1200;
}
);
unicode = E131;
},
{
glyphname = uniE132;
layers = (
{
layerId = "9ECC7D36-9140-4F4B-A408-CD21EECD2CFD";
name = Regular;
paths = (
{
closed = 1;
nodes = (
"0 760 OFFCURVE",
"68 913 OFFCURVE",
"175 1020 CURVE SMOOTH",
"282 1127 OFFCURVE",
"436 1195 OFFCURVE",
"597 1195 CURVE SMOOTH",
"760 1195 OFFCURVE",
"913 1127 OFFCURVE",
"1020 1020 CURVE SMOOTH",
"1127 913 OFFCURVE",
"1195 760 OFFCURVE",
"1195 597 CURVE SMOOTH",
"1195 381 OFFCURVE",
"1081 187 OFFCURVE",
"897 80 CURVE SMOOTH",
"805 27 OFFCURVE",
"705 0 OFFCURVE",
"597 0 CURVE SMOOTH",
"381 0 OFFCURVE",
"187 114 OFFCURVE",
"80 298 CURVE SMOOTH",
"27 389 OFFCURVE",
"0 489 OFFCURVE",
"0 597 CURVE SMOOTH"
);
},
{
closed = 1;
nodes = (
"200 600 LINE",
"602 306 LINE",
"600 500 LINE",
"900 500 LINE",
"902 701 LINE",
"602 701 LINE",
"602 898 LINE"
);
}
);
width = 1200;
}
);
unicode = E132;
},
{
glyphname = uniE133;
layers = (
{
layerId = "9ECC7D36-9140-4F4B-A408-CD21EECD2CFD";
name = Regular;
paths = (
{
closed = 1;
nodes = (
"5 760 OFFCURVE",
"73 913 OFFCURVE",
"180 1020 CURVE SMOOTH",
"287 1127 OFFCURVE",
"440 1195 OFFCURVE",
"603 1195 CURVE SMOOTH",
"819 1195 OFFCURVE",
"1013 1081 OFFCURVE",
"1120 897 CURVE SMOOTH",
"1173 805 OFFCURVE",
"1200 705 OFFCURVE",
"1200 597 CURVE SMOOTH",
"1200 381 OFFCURVE",
"1086 187 OFFCURVE",
"903 80 CURVE SMOOTH",
"811 27 OFFCURVE",
"711 0 OFFCURVE",
"603 0 CURVE SMOOTH",
"387 0 OFFCURVE",
"192 114 OFFCURVE",
"85 298 CURVE SMOOTH",
"32 389 OFFCURVE",
"5 489 OFFCURVE",
"5 597 CURVE SMOOTH"
);
},
{
closed = 1;
nodes = (
"300 600 LINE",
"500 600 LINE",
"500 300 LINE",
"700 300 LINE",
"700 600 LINE",
"900 600 LINE",
"600 1000 LINE"
);
}
);
width = 1200;
}
);
unicode = E133;
},
{
glyphname = uniE134;
layers = (
{
layerId = "9ECC7D36-9140-4F4B-A408-CD21EECD2CFD";
name = Regular;
paths = (
{
closed = 1;
nodes = (
"5 760 OFFCURVE",
"73 913 OFFCURVE",
"180 1020 CURVE SMOOTH",
"287 1127 OFFCURVE",
"440 1195 OFFCURVE",
"603 1195 CURVE SMOOTH",
"819 1195 OFFCURVE",
"1013 1081 OFFCURVE",
"1120 897 CURVE SMOOTH",
"1173 805 OFFCURVE",
"1200 705 OFFCURVE",
"1200 597 CURVE SMOOTH",
"1200 381 OFFCURVE",
"1086 187 OFFCURVE",
"903 80 CURVE SMOOTH",
"811 27 OFFCURVE",
"711 0 OFFCURVE",
"603 0 CURVE SMOOTH",
"387 0 OFFCURVE",
"192 114 OFFCURVE",
"85 298 CURVE SMOOTH",
"32 389 OFFCURVE",
"5 489 OFFCURVE",
"5 597 CURVE SMOOTH"
);
},
{
closed = 1;
nodes = (
"300 600 LINE",
"600 200 LINE",
"900 600 LINE",
"700 600 LINE",
"700 900 LINE",
"500 900 LINE",
"500 600 LINE"
);
}
);
width = 1200;
}
);
unicode = E134;
},
{
glyphname = uniE135;
layers = (
{
layerId = "9ECC7D36-9140-4F4B-A408-CD21EECD2CFD";
name = Regular;
paths = (
{
closed = 1;
nodes = (
"5 760 OFFCURVE",
"73 913 OFFCURVE",
"180 1020 CURVE SMOOTH",
"287 1127 OFFCURVE",
"440 1195 OFFCURVE",
"603 1195 CURVE SMOOTH",
"764 1195 OFFCURVE",
"918 1127 OFFCURVE",
"1025 1020 CURVE SMOOTH",
"1132 913 OFFCURVE",
"1200 760 OFFCURVE",
"1200 597 CURVE SMOOTH",
"1200 381 OFFCURVE",
"1086 187 OFFCURVE",
"903 80 CURVE SMOOTH",
"811 27 OFFCURVE",
"711 0 OFFCURVE",
"603 0 CURVE SMOOTH",
"387 0 OFFCURVE",
"192 114 OFFCURVE",
"85 298 CURVE SMOOTH",
"32 389 OFFCURVE",
"5 489 OFFCURVE",
"5 597 CURVE SMOOTH"
);
},
{
closed = 1;
nodes = (
"249 758 OFFCURVE",
"251 727 OFFCURVE",
"260 688 CURVE SMOOTH",
"269 648 OFFCURVE",
"271 619 OFFCURVE",
"267 600 CURVE",
"267 594 OFFCURVE",
"273 579 OFFCURVE",
"284 556 CURVE SMOOTH",
"295 533 OFFCURVE",
"301 513 OFFCURVE",
"300 496 CURVE",
"316 496 OFFCURVE",
"330 488 OFFCURVE",
"346 476 CURVE",
"354 469 OFFCURVE",
"361 465 OFFCURVE",
"366 462 CURVE",
"382 454 OFFCURVE",
"418 440 OFFCURVE",
"474 420 CURVE SMOOTH",
"489 415 OFFCURVE",
"506 404 OFFCURVE",
"527 389 CURVE",
"568 357 OFFCURVE",
"605 334 OFFCURVE",
"644 339 CURVE",
"649 327 OFFCURVE",
"644 309 OFFCURVE",
"629 284 CURVE SMOOTH",
"614 259 OFFCURVE",
"607 240 OFFCURVE",
"609 227 CURVE",
"637 180 OFFCURVE",
"666 153 OFFCURVE",
"696 147 CURVE",
"696 143 OFFCURVE",
"695 138 OFFCURVE",
"693 132 CURVE SMOOTH",
"689 119 OFFCURVE",
"687 116 OFFCURVE",
"694 100 CURVE",
"763 98 OFFCURVE",
"837 135 OFFCURVE",
"915 212 CURVE SMOOTH",
"955 251 OFFCURVE",
"973 267 OFFCURVE",
"997 308 CURVE",
"1008 329 OFFCURVE",
"1015 349 OFFCURVE",
"1017 370 CURVE",
"1008 376 OFFCURVE",
"995 379 OFFCURVE",
"980 380 CURVE",
"965 380 OFFCURVE",
"953 382 OFFCURVE",
"944 387 CURVE SMOOTH",
"935 392 OFFCURVE",
"918 397 OFFCURVE",
"895 402 CURVE SMOOTH",
"872 407 OFFCURVE",
"854 414 OFFCURVE",
"843 421 CURVE",
"831 421 OFFCURVE",
"778 420 OFFCURVE",
"757 419 CURVE SMOOTH",
"736 418 OFFCURVE",
"700 411 OFFCURVE",
"679 396 CURVE SMOOTH",
"646 373 OFFCURVE",
"624 369 OFFCURVE",
"613 384 CURVE",
"610 385 OFFCURVE",
"609 394 OFFCURVE",
"610 410 CURVE",
"610 441 OFFCURVE",
"611 447 OFFCURVE",
"584 452 CURVE SMOOTH",
"570 455 OFFCURVE",
"562 457 OFFCURVE",
"559 459 CURVE",
"562 488 OFFCURVE",
"557 516 OFFCURVE",
"541 528 CURVE",
"532 534 OFFCURVE",
"519 527 OFFCURVE",
"502 508 CURVE SMOOTH",
"471 475 OFFCURVE",
"437 530 OFFCURVE",
"452 570 CURVE SMOOTH",
"456 581 OFFCURVE",
"463 588 OFFCURVE",
"474 592 CURVE",
"478 591 OFFCURVE",
"487 591 OFFCURVE",
"500 591 CURVE",
"527 590 OFFCURVE",
"545 586 OFFCURVE",
"553 573 CURVE SMOOTH",
"569 548 OFFCURVE",
"600 520 OFFCURVE",
"619 508 CURVE",
"633 500 LINE",
"633 502 OFFCURVE",
"636 515 OFFCURVE",
"643 540 CURVE SMOOTH",
"649 564 OFFCURVE",
"651 583 OFFCURVE",
"648 597 CURVE SMOOTH",
"645 612 OFFCURVE",
"650 627 OFFCURVE",
"663 642 CURVE SMOOTH",
"687 670 OFFCURVE",
"688 680 OFFCURVE",
"695 708 CURVE SMOOTH",
"702 736 OFFCURVE",
"703 745 OFFCURVE",
"719 762 CURVE SMOOTH",
"727 770 OFFCURVE",
"738 777 OFFCURVE",
"753 783 CURVE",
"749 795 OFFCURVE",
"752 807 OFFCURVE",
"763 820 CURVE",
"768 820 OFFCURVE",
"776 820 OFFCURVE",
"787 819 CURVE SMOOTH",
"797 818 OFFCURVE",
"805 817 OFFCURVE",
"811 817 CURVE SMOOTH",
"823 817 OFFCURVE",
"840 822 OFFCURVE",
"852 837 CURVE",
"839 868 OFFCURVE",
"807 896 OFFCURVE",
"784 910 CURVE SMOOTH",
"772 917 OFFCURVE",
"756 925 OFFCURVE",
"735 936 CURVE SMOOTH",
"714 947 OFFCURVE",
"699 954 OFFCURVE",
"691 959 CURVE",
"698 985 OFFCURVE",
"699 1000 OFFCURVE",
"693 1003 CURVE",
"734 986 OFFCURVE",
"774 985 OFFCURVE",
"790 992 CURVE",
"801 996 LINE",
"810 1044 OFFCURVE",
"775 1063 OFFCURVE",
"720 1078 CURVE SMOOTH",
"693 1085 OFFCURVE",
"674 1093 OFFCURVE",
"664 1101 CURVE",
"651 1099 OFFCURVE",
"639 1099 OFFCURVE",
"627 1101 CURVE",
"607 1085 OFFCURVE",
"573 1072 OFFCURVE",
"556 1068 CURVE SMOOTH",
"539 1064 OFFCURVE",
"484 1055 OFFCURVE",
"473 1054 CURVE",
"463 1052 OFFCURVE",
"448 1052 OFFCURVE",
"428 1055 CURVE",
"387 1059 OFFCURVE",
"371 1052 OFFCURVE",
"330 1026 CURVE SMOOTH",
"309 1013 OFFCURVE",
"298 1001 OFFCURVE",
"296 991 CURVE",
"294 984 OFFCURVE",
"296 976 OFFCURVE",
"303 969 CURVE",
"309 961 OFFCURVE",
"312 955 OFFCURVE",
"311 950 CURVE",
"309 927 OFFCURVE",
"300 897 OFFCURVE",
"284 860 CURVE SMOOTH",
"267 822 OFFCURVE",
"257 795 OFFCURVE",
"254 780 CURVE SMOOTH"
);
},
{
closed = 1;
nodes = (
"520 924 OFFCURVE",
"525 934 OFFCURVE",
"534 946 CURVE SMOOTH",
"543 958 OFFCURVE",
"548 966 OFFCURVE",
"550 971 CURVE",
"557 964 OFFCURVE",
"563 961 OFFCURVE",
"569 961 CURVE SMOOTH",
"574 961 OFFCURVE",
"579 963 OFFCURVE",
"583 967 CURVE",
"590 975 OFFCURVE",
"604 989 OFFCURVE",
"613 994 CURVE",
"613 978 OFFCURVE",
"619 956 OFFCURVE",
"630 928 CURVE SMOOTH",
"653 871 OFFCURVE",
"645 885 OFFCURVE",
"616 889 CURVE SMOOTH",
"587 893 OFFCURVE",
"572 894 OFFCURVE",
"548 902 CURVE SMOOTH",
"536 906 OFFCURVE",
"526 911 OFFCURVE",
"518 916 CURVE"
);
},
{
closed = 1;
nodes = (
"692 1003 LINE",
"693 1003 LINE"
);
}
);
width = 1200;
}
);
unicode = E135;
},
{
glyphname = uniE136;
layers = (
{
layerId = "9ECC7D36-9140-4F4B-A408-CD21EECD2CFD";
name = Regular;
paths = (
{
closed = 1;
nodes = (
"15 128 LINE SMOOTH",
"5 138 OFFCURVE",
"0 150 OFFCURVE",
"0 165 CURVE SMOOTH",
"0 179 OFFCURVE",
"5 191 OFFCURVE",
"15 202 CURVE",
"615 801 LINE",
"571 936 OFFCURVE",
"628 1085 OFFCURVE",
"756 1157 CURVE SMOOTH",
"865 1218 OFFCURVE",
"967 1215 OFFCURVE",
"1062 1148 CURVE",
"803 1010 LINE",
"948 778 LINE",
"1199 904 LINE",
"1216 671 OFFCURVE",
"968 551 OFFCURVE",
"795 614 CURVE",
"199 18 LINE",
"189 7 OFFCURVE",
"177 2 OFFCURVE",
"163 2 CURVE SMOOTH",
"148 2 OFFCURVE",
"136 7 OFFCURVE",
"126 18 CURVE"
);
}
);
width = 1200;
}
);
unicode = E136;
},
{
glyphname = uniE137;
layers = (
{
layerId = "9ECC7D36-9140-4F4B-A408-CD21EECD2CFD";
name = Regular;
paths = (
{
closed = 1;
nodes = (
"0 296 LINE SMOOTH",
"0 351 OFFCURVE",
"45 396 OFFCURVE",
"100 396 CURVE SMOOTH",
"1100 396 LINE SMOOTH",
"1155 396 OFFCURVE",
"1200 351 OFFCURVE",
"1200 296 CURVE SMOOTH",
"1200 196 LINE SMOOTH",
"1200 141 OFFCURVE",
"1155 96 OFFCURVE",
"1100 96 CURVE SMOOTH",
"100 96 LINE SMOOTH",
"45 96 OFFCURVE",
"0 141 OFFCURVE",
"0 196 CURVE SMOOTH"
);
},
{
closed = 1;
nodes = (
"0 696 LINE SMOOTH",
"0 751 OFFCURVE",
"45 796 OFFCURVE",
"100 796 CURVE SMOOTH",
"1100 796 LINE SMOOTH",
"1155 796 OFFCURVE",
"1200 751 OFFCURVE",
"1200 696 CURVE SMOOTH",
"1200 596 LINE SMOOTH",
"1200 541 OFFCURVE",
"1155 496 OFFCURVE",
"1100 496 CURVE SMOOTH",
"100 496 LINE SMOOTH",
"45 496 OFFCURVE",
"0 541 OFFCURVE",
"0 596 CURVE SMOOTH"
);
},
{
closed = 1;
nodes = (
"0 1096 LINE SMOOTH",
"0 1151 OFFCURVE",
"45 1196 OFFCURVE",
"100 1196 CURVE SMOOTH",
"1100 1196 LINE SMOOTH",
"1155 1196 OFFCURVE",
"1200 1151 OFFCURVE",
"1200 1096 CURVE SMOOTH",
"1200 996 LINE SMOOTH",
"1200 941 OFFCURVE",
"1155 896 OFFCURVE",
"1100 896 CURVE SMOOTH",
"100 896 LINE SMOOTH",
"45 896 OFFCURVE",
"0 941 OFFCURVE",
"0 996 CURVE SMOOTH"
);
},
{
closed = 1;
nodes = (
"600 596 LINE",
"1100 596 LINE",
"1100 696 LINE",
"600 696 LINE"
);
},
{
closed = 1;
nodes = (
"800 196 LINE",
"1100 196 LINE",
"1100 296 LINE",
"800 296 LINE"
);
},
{
closed = 1;
nodes = (
"900 996 LINE",
"1100 996 LINE",
"1100 1096 LINE",
"900 1096 LINE"
);
}
);
width = 1220;
}
);
unicode = E137;
},
{
glyphname = uniE138;
layers = (
{
layerId = "9ECC7D36-9140-4F4B-A408-CD21EECD2CFD";
name = Regular;
paths = (
{
closed = 1;
nodes = (
"100 1100 LINE",
"100 1200 LINE",
"1100 1200 LINE",
"1100 1100 LINE"
);
},
{
closed = 1;
nodes = (
"150 1000 LINE",
"1050 1000 LINE",
"700 500 LINE",
"700 200 LINE",
"500 0 LINE",
"500 500 LINE"
);
}
);
width = 1200;
}
);
unicode = E138;
},
{
glyphname = uniE139;
layers = (
{
layerId = "9ECC7D36-9140-4F4B-A408-CD21EECD2CFD";
name = Regular;
paths = (
{
closed = 1;
nodes = (
"0 400 LINE",
"1200 400 LINE",
"1200 200 LINE SMOOTH",
"1200 145 OFFCURVE",
"1155 100 OFFCURVE",
"1100 100 CURVE SMOOTH",
"100 100 LINE SMOOTH",
"45 100 OFFCURVE",
"0 145 OFFCURVE",
"0 200 CURVE SMOOTH"
);
},
{
closed = 1;
nodes = (
"0 500 LINE",
"0 900 LINE SMOOTH",
"0 955 OFFCURVE",
"45 1000 OFFCURVE",
"100 1000 CURVE SMOOTH",
"400 1000 LINE",
"400 1100 LINE SMOOTH",
"400 1155 OFFCURVE",
"445 1200 OFFCURVE",
"500 1200 CURVE SMOOTH",
"700 1200 LINE SMOOTH",
"755 1200 OFFCURVE",
"800 1155 OFFCURVE",
"800 1100 CURVE SMOOTH",
"800 1000 LINE",
"1100 1000 LINE SMOOTH",
"1155 1000 OFFCURVE",
"1200 955 OFFCURVE",
"1200 900 CURVE SMOOTH",
"1200 500 LINE",
"700 500 LINE",
"700 600 LINE",
"500 600 LINE",
"500 500 LINE"
);
},
{
closed = 1;
nodes = (
"500 1000 LINE",
"700 1000 LINE",
"700 1100 LINE",
"500 1100 LINE"
);
}
);
width = 1200;
}
);
unicode = E139;
},
{
glyphname = uniE140;
layers = (
{
layerId = "9ECC7D36-9140-4F4B-A408-CD21EECD2CFD";
name = Regular;
paths = (
{
closed = 1;
nodes = (
"0 0 LINE",
"0 400 LINE",
"129 271 LINE",
"329 471 LINE",
"471 329 LINE",
"271 129 LINE",
"400 0 LINE"
);
},
{
closed = 1;
nodes = (
"0 800 LINE",
"129 929 LINE",
"329 729 LINE",
"471 871 LINE",
"271 1071 LINE",
"400 1200 LINE",
"0 1200 LINE"
);
},
{
closed = 1;
nodes = (
"729 329 LINE",
"871 471 LINE",
"1071 271 LINE",
"1200 400 LINE",
"1200 0 LINE",
"800 0 LINE",
"929 129 LINE"
);
},
{
closed = 1;
nodes = (
"729 871 LINE",
"929 1071 LINE",
"800 1200 LINE",
"1200 1200 LINE",
"1200 800 LINE",
"1071 929 LINE",
"871 729 LINE"
);
}
);
width = 1200;
}
);
unicode = E140;
},
{
glyphname = uniE141;
layers = (
{
layerId = "9ECC7D36-9140-4F4B-A408-CD21EECD2CFD";
name = Regular;
paths = (
{
closed = 1;
nodes = (
"27 388 OFFCURVE",
"0 488 OFFCURVE",
"0 596 CURVE SMOOTH",
"0 812 OFFCURVE",
"114 1005 OFFCURVE",
"297 1112 CURVE SMOOTH",
"388 1165 OFFCURVE",
"488 1192 OFFCURVE",
"596 1192 CURVE SMOOTH",
"812 1192 OFFCURVE",
"1005 1078 OFFCURVE",
"1112 895 CURVE SMOOTH",
"1165 804 OFFCURVE",
"1192 704 OFFCURVE",
"1192 596 CURVE SMOOTH",
"1192 380 OFFCURVE",
"1078 187 OFFCURVE",
"895 80 CURVE SMOOTH",
"804 27 OFFCURVE",
"704 0 OFFCURVE",
"596 0 CURVE SMOOTH",
"380 0 OFFCURVE",
"187 114 OFFCURVE",
"80 297 CURVE SMOOTH"
);
},
{
closed = 1;
nodes = (
"182 367 OFFCURVE",
"368 182 OFFCURVE",
"596 182 CURVE SMOOTH",
"824 182 OFFCURVE",
"1010 367 OFFCURVE",
"1010 596 CURVE SMOOTH",
"1010 824 OFFCURVE",
"824 1010 OFFCURVE",
"596 1010 CURVE SMOOTH",
"368 1010 OFFCURVE",
"182 824 OFFCURVE",
"182 596 CURVE SMOOTH"
);
},
{
closed = 1;
nodes = (
"296 627 OFFCURVE",
"291 640 OFFCURVE",
"291 655 CURVE SMOOTH",
"291 686 OFFCURVE",
"314 709 OFFCURVE",
"345 709 CURVE SMOOTH",
"376 709 OFFCURVE",
"400 684 OFFCURVE",
"400 655 CURVE SMOOTH",
"400 624 OFFCURVE",
"376 600 OFFCURVE",
"345 600 CURVE SMOOTH",
"330 600 OFFCURVE",
"318 605 OFFCURVE",
"307 616 CURVE SMOOTH"
);
},
{
closed = 1;
nodes = (
"405 823 OFFCURVE",
"400 835 OFFCURVE",
"400 850 CURVE SMOOTH",
"400 879 OFFCURVE",
"424 905 OFFCURVE",
"455 905 CURVE SMOOTH",
"484 905 OFFCURVE",
"509 881 OFFCURVE",
"509 850 CURVE SMOOTH",
"509 819 OFFCURVE",
"484 795 OFFCURVE",
"455 795 CURVE SMOOTH",
"440 795 OFFCURVE",
"427 801 OFFCURVE",
"416 812 CURVE SMOOTH"
);
},
{
closed = 1;
nodes = (
"514 652 OFFCURVE",
"545 688 OFFCURVE",
"586 695 CURVE",
"708 821 LINE",
"709 822 LINE",
"703 831 OFFCURVE",
"700 841 OFFCURVE",
"700 850 CURVE SMOOTH",
"700 879 OFFCURVE",
"724 905 OFFCURVE",
"755 905 CURVE SMOOTH",
"784 905 OFFCURVE",
"809 881 OFFCURVE",
"809 850 CURVE SMOOTH",
"809 819 OFFCURVE",
"784 795 OFFCURVE",
"755 795 CURVE SMOOTH",
"746 795 OFFCURVE",
"736 798 OFFCURVE",
"726 805 CURVE",
"671 660 LINE",
"682 645 OFFCURVE",
"688 628 OFFCURVE",
"688 609 CURVE SMOOTH",
"688 561 OFFCURVE",
"649 522 OFFCURVE",
"601 522 CURVE SMOOTH",
"553 522 OFFCURVE",
"514 561 OFFCURVE",
"514 609 CURVE SMOOTH"
);
},
{
closed = 1;
nodes = (
"800 684 OFFCURVE",
"824 709 OFFCURVE",
"855 709 CURVE SMOOTH",
"886 709 OFFCURVE",
"909 686 OFFCURVE",
"909 655 CURVE SMOOTH",
"909 624 OFFCURVE",
"884 600 OFFCURVE",
"855 600 CURVE SMOOTH",
"824 600 OFFCURVE",
"800 624 OFFCURVE",
"800 655 CURVE SMOOTH"
);
}
);
width = 1200;
}
);
unicode = E141;
},
{
glyphname = uniE142;
layers = (
{
layerId = "9ECC7D36-9140-4F4B-A408-CD21EECD2CFD";
name = Regular;
paths = (
{
closed = 1;
nodes = (
"41 538 LINE SMOOTH",
"-50 447 OFFCURVE",
"-69 306 OFFCURVE",
"-5 202 CURVE SMOOTH",
"42 126 OFFCURVE",
"125 81 OFFCURVE",
"218 81 CURVE SMOOTH",
"302 81 OFFCURVE",
"359 117 OFFCURVE",
"402 150 CURVE SMOOTH",
"445 182 OFFCURVE",
"462 202 OFFCURVE",
"514 259 CURVE SMOOTH",
"541 288 OFFCURVE",
"560 309 OFFCURVE",
"571 320 CURVE SMOOTH",
"965 714 LINE SMOOTH",
"1012 761 OFFCURVE",
"1029 831 OFFCURVE",
"1009 894 CURVE SMOOTH",
"991 952 OFFCURVE",
"952 987 OFFCURVE",
"892 998 CURVE",
"879 999 OFFCURVE",
"869 1000 OFFCURVE",
"863 1000 CURVE SMOOTH",
"802 1000 OFFCURVE",
"764 979 OFFCURVE",
"717 932 CURVE SMOOTH",
"328 536 LINE",
"321 529 LINE",
"390 462 LINE",
"767 835 LINE",
"780 850 OFFCURVE",
"793 862 OFFCURVE",
"806 873 CURVE",
"821 888 OFFCURVE",
"838 896 OFFCURVE",
"856 896 CURVE SMOOTH",
"907 896 OFFCURVE",
"937 833 OFFCURVE",
"889 785 CURVE SMOOTH",
"342 238 LINE SMOOTH",
"307 203 OFFCURVE",
"266 186 OFFCURVE",
"217 186 CURVE SMOOTH",
"144 186 OFFCURVE",
"75 231 OFFCURVE",
"63 315 CURVE SMOOTH",
"56 362 OFFCURVE",
"65 401 OFFCURVE",
"97 444 CURVE SMOOTH",
"129 487 OFFCURVE",
"144 500 OFFCURVE",
"195 548 CURVE",
"211 562 OFFCURVE",
"226 576 OFFCURVE",
"239 589 CURVE SMOOTH",
"587 937 LINE SMOOTH",
"656 1006 OFFCURVE",
"682 1035 OFFCURVE",
"754 1071 CURVE SMOOTH",
"789 1088 OFFCURVE",
"825 1097 OFFCURVE",
"861 1097 CURVE SMOOTH",
"878 1097 OFFCURVE",
"894 1096 OFFCURVE",
"909 1093 CURVE SMOOTH",
"1036 1070 OFFCURVE",
"1125 954 OFFCURVE",
"1114 823 CURVE SMOOTH",
"1109 756 OFFCURVE",
"1077 692 OFFCURVE",
"1016 631 CURVE SMOOTH",
"764 382 LINE",
"511 126 LINE",
"518 119 LINE",
"587 59 LINE",
"1104 570 LINE SMOOTH",
"1193 659 OFFCURVE",
"1233 786 OFFCURVE",
"1210 910 CURVE SMOOTH",
"1189 1026 OFFCURVE",
"1118 1119 OFFCURVE",
"1013 1167 CURVE SMOOTH",
"967 1189 OFFCURVE",
"916 1200 OFFCURVE",
"861 1200 CURVE SMOOTH",
"718 1200 OFFCURVE",
"648 1145 OFFCURVE",
"553 1050 CURVE SMOOTH"
);
}
);
width = 1200;
}
);
unicode = E142;
},
{
glyphname = uniE143;
layers = (
{
layerId = "9ECC7D36-9140-4F4B-A408-CD21EECD2CFD";
name = Regular;
paths = (
{
closed = 1;
nodes = (
"80 959 OFFCURVE",
"233 1112 OFFCURVE",
"409 1112 CURVE SMOOTH",
"504 1112 OFFCURVE",
"585 1069 OFFCURVE",
"650 983 CURVE",
"719 1069 OFFCURVE",
"801 1112 OFFCURVE",
"896 1112 CURVE SMOOTH",
"1068 1112 OFFCURVE",
"1219 959 OFFCURVE",
"1219 784 CURVE SMOOTH",
"1219 723 OFFCURVE",
"1199 666 OFFCURVE",
"1141 594 CURVE SMOOTH",
"1083 522 OFFCURVE",
"1054 492 OFFCURVE",
"959 399 CURVE SMOOTH",
"828 272 OFFCURVE",
"730 164 OFFCURVE",
"666 77 CURVE SMOOTH",
"649 54 LINE",
"633 77 LINE SMOOTH",
"576 154 OFFCURVE",
"488 252 OFFCURVE",
"441 299 CURVE SMOOTH",
"418 322 OFFCURVE",
"384 356 OFFCURVE",
"340 399 CURVE SMOOTH",
"245 492 OFFCURVE",
"217 522 OFFCURVE",
"159 594 CURVE SMOOTH",
"101 666 OFFCURVE",
"80 723 OFFCURVE",
"80 784 CURVE SMOOTH"
);
},
{
closed = 1;
nodes = (
"250 748 OFFCURVE",
"301 682 OFFCURVE",
"342 639 CURVE SMOOTH",
"363 617 OFFCURVE",
"394 585 OFFCURVE",
"437 544 CURVE SMOOTH",
"459 522 LINE SMOOTH",
"521 462 OFFCURVE",
"584 395 OFFCURVE",
"649 321 CURVE",
"704 382 OFFCURVE",
"769 450 OFFCURVE",
"844 524 CURVE SMOOTH",
"856 536 LINE SMOOTH",
"941 619 OFFCURVE",
"977 653 OFFCURVE",
"1018 712 CURVE SMOOTH",
"1039 741 OFFCURVE",
"1049 765 OFFCURVE",
"1049 784 CURVE SMOOTH",
"1049 879 OFFCURVE",
"972 952 OFFCURVE",
"896 952 CURVE SMOOTH",
"847 952 OFFCURVE",
"803 924 OFFCURVE",
"764 869 CURVE SMOOTH",
"646 698 LINE",
"532 872 LINE SMOOTH",
"498 925 OFFCURVE",
"457 952 OFFCURVE",
"409 952 CURVE SMOOTH",
"329 952 OFFCURVE",
"250 876 OFFCURVE",
"250 784 CURVE SMOOTH"
);
}
);
width = 1200;
}
);
unicode = E143;
},
{
glyphname = uniE144;
layers = (
{
layerId = "9ECC7D36-9140-4F4B-A408-CD21EECD2CFD";
name = Regular;
paths = (
{
closed = 1;
nodes = (
"57 290 OFFCURVE",
"79 237 OFFCURVE",
"123 194 CURVE SMOOTH",
"264 52 LINE SMOOTH",
"309 8 OFFCURVE",
"362 -14 OFFCURVE",
"423 -14 CURVE SMOOTH",
"485 -14 OFFCURVE",
"538 8 OFFCURVE",
"582 52 CURVE SMOOTH",
"865 335 LINE SMOOTH",
"909 379 OFFCURVE",
"931 432 OFFCURVE",
"931 494 CURVE SMOOTH",
"931 556 OFFCURVE",
"909 609 OFFCURVE",
"865 653 CURVE SMOOTH",
"724 794 LINE",
"719 800 OFFCURVE",
"712 806 OFFCURVE",
"705 811 CURVE",
"600 706 LINE",
"812 494 LINE",
"423 105 LINE",
"176 353 LINE",
"271 448 LINE",
"253 466 LINE SMOOTH",
"222 496 OFFCURVE",
"197 530 OFFCURVE",
"178 567 CURVE",
"123 512 LINE SMOOTH",
"79 468 OFFCURVE",
"57 415 OFFCURVE",
"57 353 CURVE SMOOTH"
);
},
{
closed = 1;
nodes = (
"269 644 OFFCURVE",
"291 591 OFFCURVE",
"335 547 CURVE SMOOTH",
"476 406 LINE SMOOTH",
"481 401 OFFCURVE",
"487 396 OFFCURVE",
"495 389 CURVE",
"600 494 LINE",
"388 706 LINE",
"777 1095 LINE",
"1024 848 LINE",
"929 752 LINE",
"947 735 LINE",
"978 702 OFFCURVE",
"1004 669 OFFCURVE",
"1024 635 CURVE",
"1053 664 LINE SMOOTH",
"1100 711 OFFCURVE",
"1143 791 OFFCURVE",
"1143 848 CURVE SMOOTH",
"1143 910 OFFCURVE",
"1121 963 OFFCURVE",
"1077 1007 CURVE SMOOTH",
"936 1148 LINE SMOOTH",
"892 1192 OFFCURVE",
"839 1214 OFFCURVE",
"777 1214 CURVE SMOOTH",
"714 1214 OFFCURVE",
"661 1192 OFFCURVE",
"618 1148 CURVE SMOOTH",
"335 865 LINE SMOOTH",
"291 822 OFFCURVE",
"269 769 OFFCURVE",
"269 706 CURVE SMOOTH"
);
}
);
width = 1200;
}
);
unicode = E144;
},
{
glyphname = uniE145;
layers = (
{
layerId = "9ECC7D36-9140-4F4B-A408-CD21EECD2CFD";
name = Regular;
paths = (
{
closed = 1;
nodes = (
"200 1053 LINE SMOOTH",
"200 1081 OFFCURVE",
"243 1116 OFFCURVE",
"311 1147 CURVE SMOOTH",
"379 1178 OFFCURVE",
"490 1200 OFFCURVE",
"603 1200 CURVE SMOOTH",
"716 1200 OFFCURVE",
"825 1178 OFFCURVE",
"892 1147 CURVE SMOOTH",
"959 1116 OFFCURVE",
"1000 1081 OFFCURVE",
"1000 1053 CURVE SMOOTH",
"1000 100 LINE SMOOTH",
"1000 45 OFFCURVE",
"955 0 OFFCURVE",
"900 0 CURVE SMOOTH",
"300 0 LINE SMOOTH",
"245 0 OFFCURVE",
"200 45 OFFCURVE",
"200 100 CURVE SMOOTH"
);
},
{
closed = 1;
nodes = (
"300 300 LINE",
"900 300 LINE",
"900 1000 LINE",
"300 1000 LINE"
);
},
{
closed = 1;
nodes = (
"506 203 OFFCURVE",
"496 179 OFFCURVE",
"496 150 CURVE SMOOTH",
"496 93 OFFCURVE",
"543 46 OFFCURVE",
"600 46 CURVE SMOOTH",
"657 46 OFFCURVE",
"704 93 OFFCURVE",
"704 150 CURVE SMOOTH",
"704 207 OFFCURVE",
"657 254 OFFCURVE",
"600 254 CURVE SMOOTH",
"571 254 OFFCURVE",
"547 244 OFFCURVE",
"527 224 CURVE SMOOTH"
);
}
);
width = 1200;
}
);
unicode = E145;
},
{
glyphname = uniE146;
layers = (
{
layerId = "9ECC7D36-9140-4F4B-A408-CD21EECD2CFD";
name = Regular;
paths = (
{
closed = 1;
nodes = (
"0 0 LINE",
"303 380 LINE",
"510 588 LINE",
"300 800 LINE",
"600 800 LINE",
"867 1079 LINE",
"832 1115 LINE",
"822 1124 OFFCURVE",
"817 1136 OFFCURVE",
"817 1150 CURVE SMOOTH",
"817 1178 OFFCURVE",
"839 1200 OFFCURVE",
"867 1200 CURVE SMOOTH",
"881 1200 OFFCURVE",
"893 1195 OFFCURVE",
"902 1185 CURVE",
"1185 903 LINE SMOOTH",
"1195 893 OFFCURVE",
"1200 881 OFFCURVE",
"1200 867 CURVE SMOOTH",
"1200 839 OFFCURVE",
"1178 817 OFFCURVE",
"1150 817 CURVE SMOOTH",
"1136 817 OFFCURVE",
"1124 822 OFFCURVE",
"1115 832 CURVE",
"1079 867 LINE",
"800 600 LINE",
"800 300 LINE",
"588 510 LINE",
"380 303 LINE"
);
}
);
width = 1200;
}
);
unicode = E146;
},
{
glyphname = uniE148;
layers = (
{
layerId = "9ECC7D36-9140-4F4B-A408-CD21EECD2CFD";
name = Regular;
paths = (
{
closed = 1;
nodes = (
"434 433 LINE",
"441 330 OFFCURVE",
"501 262 OFFCURVE",
"600 242 CURVE",
"600 577 LINE",
"596 578 OFFCURVE",
"591 579 OFFCURVE",
"585 581 CURVE",
"578 583 OFFCURVE",
"574 584 OFFCURVE",
"573 584 CURVE",
"512 603 OFFCURVE",
"474 615 OFFCURVE",
"422 647 CURVE SMOOTH",
"370 678 OFFCURVE",
"342 712 OFFCURVE",
"320 771 CURVE SMOOTH",
"309 800 OFFCURVE",
"303 833 OFFCURVE",
"303 870 CURVE SMOOTH",
"303 993 OFFCURVE",
"369 1086 OFFCURVE",
"456 1131 CURVE SMOOTH",
"499 1153 OFFCURVE",
"547 1166 OFFCURVE",
"600 1171 CURVE",
"600 1249 LINE",
"700 1249 LINE",
"700 1170 LINE",
"751 1165 OFFCURVE",
"793 1154 OFFCURVE",
"848 1125 CURVE SMOOTH",
"903 1096 OFFCURVE",
"942 1058 OFFCURVE",
"971 988 CURVE SMOOTH",
"985 953 OFFCURVE",
"993 913 OFFCURVE",
"995 869 CURVE",
"836 869 LINE",
"825 965 OFFCURVE",
"799 1012 OFFCURVE",
"700 1029 CURVE",
"700 722 LINE",
"764 708 LINE SMOOTH",
"809 699 OFFCURVE",
"845 689 OFFCURVE",
"898 660 CURVE SMOOTH",
"951 631 OFFCURVE",
"986 595 OFFCURVE",
"1013 528 CURVE SMOOTH",
"1026 494 OFFCURVE",
"1033 456 OFFCURVE",
"1033 415 CURVE SMOOTH",
"1033 230 OFFCURVE",
"907 110 OFFCURVE",
"700 95 CURVE",
"700 18 LINE",
"600 18 LINE",
"600 96 LINE",
"499 107 OFFCURVE",
"420 142 OFFCURVE",
"363 200 CURVE SMOOTH",
"310 253 OFFCURVE",
"299 318 OFFCURVE",
"295 433 CURVE"
);
},
{
closed = 1;
nodes = (
"466 850 OFFCURVE",
"479 820 OFFCURVE",
"491 804 CURVE",
"502 788 OFFCURVE",
"538 772 OFFCURVE",
"551 768 CURVE SMOOTH",
"558 766 OFFCURVE",
"570 763 OFFCURVE",
"589 758 CURVE",
"594 757 OFFCURVE",
"597 756 OFFCURVE",
"600 755 CURVE",
"600 1029 LINE",
"519 1018 OFFCURVE",
"466 986 OFFCURVE",
"466 889 CURVE SMOOTH"
);
},
{
closed = 1;
nodes = (
"700 237 LINE",
"813 249 OFFCURVE",
"870 299 OFFCURVE",
"870 388 CURVE SMOOTH",
"870 473 OFFCURVE",
"809 515 OFFCURVE",
"700 548 CURVE"
);
}
);
width = 1200;
}
);
unicode = E148;
},
{
glyphname = uniE149;
layers = (
{
layerId = "9ECC7D36-9140-4F4B-A408-CD21EECD2CFD";
name = Regular;
paths = (
{
closed = 1;
nodes = (
"100 600 LINE",
"100 700 LINE",
"266 700 LINE",
"250 733 OFFCURVE",
"235 767 OFFCURVE",
"222 804 CURVE SMOOTH",
"209 839 OFFCURVE",
"203 875 OFFCURVE",
"205 932 CURVE SMOOTH",
"207 989 OFFCURVE",
"238 1056 OFFCURVE",
"298 1109 CURVE SMOOTH",
"363 1168 OFFCURVE",
"450 1197 OFFCURVE",
"561 1197 CURVE SMOOTH",
"733 1197 OFFCURVE",
"892 1059 OFFCURVE",
"892 900 CURVE",
"739 900 LINE",
"739 969 OFFCURVE",
"684 1022 OFFCURVE",
"631 1041 CURVE SMOOTH",
"604 1050 OFFCURVE",
"579 1055 OFFCURVE",
"555 1055 CURVE SMOOTH",
"506 1055 OFFCURVE",
"441 1033 OFFCURVE",
"414 1005 CURVE SMOOTH",
"387 976 OFFCURVE",
"373 942 OFFCURVE",
"373 904 CURVE SMOOTH",
"373 867 OFFCURVE",
"402 800 OFFCURVE",
"418 772 CURVE",
"425 758 OFFCURVE",
"439 734 OFFCURVE",
"459 700 CURVE",
"700 700 LINE",
"700 600 LINE",
"503 600 LINE",
"514 533 OFFCURVE",
"497 430 OFFCURVE",
"469 391 CURVE SMOOTH",
"442 352 OFFCURVE",
"409 314 OFFCURVE",
"370 278 CURVE",
"417 293 OFFCURVE",
"496 303 OFFCURVE",
"524 303 CURVE",
"546 304 OFFCURVE",
"580 298 OFFCURVE",
"627 287 CURVE SMOOTH",
"674 276 OFFCURVE",
"708 270 OFFCURVE",
"730 270 CURVE SMOOTH",
"781 270 OFFCURVE",
"826 280 OFFCURVE",
"866 300 CURVE",
"916 153 LINE",
"861 120 OFFCURVE",
"803 106 OFFCURVE",
"777 104 CURVE SMOOTH",
"764 103 OFFCURVE",
"743 102 OFFCURVE",
"715 102 CURVE SMOOTH",
"700 102 OFFCURVE",
"657 113 OFFCURVE",
"587 135 CURVE SMOOTH",
"517 157 OFFCURVE",
"465 167 OFFCURVE",
"432 164 CURVE SMOOTH",
"380 159 OFFCURVE",
"315 138 OFFCURVE",
"284 122 CURVE",
"260 111 LINE",
"205 256 LINE",
"213 261 OFFCURVE",
"230 273 OFFCURVE",
"237 277 CURVE SMOOTH",
"244 281 OFFCURVE",
"257 291 OFFCURVE",
"265 299 CURVE",
"273 306 OFFCURVE",
"285 318 OFFCURVE",
"297 331 CURVE SMOOTH",
"361 404 OFFCURVE",
"369 505 OFFCURVE",
"321 600 CURVE"
);
}
);
width = 1200;
}
);
unicode = E149;
},
{
glyphname = uniE150;
layers = (
{
layerId = "9ECC7D36-9140-4F4B-A408-CD21EECD2CFD";
name = Regular;
paths = (
{
closed = 1;
nodes = (
"2 300 LINE",
"300 0 LINE",
"598 300 LINE",
"400 300 LINE",
"400 1200 LINE",
"200 1200 LINE",
"200 300 LINE"
);
},
{
closed = 1;
nodes = (
"602 900 LINE",
"900 1200 LINE",
"1198 900 LINE",
"1000 900 LINE",
"1000 0 LINE",
"800 0 LINE",
"800 900 LINE"
);
}
);
width = 1200;
}
);
unicode = E150;
},
{
glyphname = uniE151;
layers = (
{
layerId = "9ECC7D36-9140-4F4B-A408-CD21EECD2CFD";
name = Regular;
paths = (
{
closed = 1;
nodes = (
"2 300 LINE",
"200 300 LINE",
"200 1200 LINE",
"400 1200 LINE",
"400 300 LINE",
"598 300 LINE",
"300 0 LINE"
);
},
{
closed = 1;
nodes = (
"700 0 LINE",
"700 200 LINE",
"800 200 LINE",
"800 100 LINE",
"1000 100 LINE",
"1000 0 LINE"
);
},
{
closed = 1;
nodes = (
"700 400 LINE",
"700 500 LINE",
"1000 500 LINE",
"1000 300 LINE",
"901 300 LINE",
"901 200 LINE",
"801 200 LINE",
"801 300 LINE",
"900 300 LINE",
"900 400 LINE"
);
},
{
closed = 1;
nodes = (
"700 700 LINE",
"700 1200 LINE",
"1000 1200 LINE",
"1000 700 LINE",
"900 700 LINE",
"900 800 LINE",
"800 800 LINE",
"800 700 LINE"
);
},
{
closed = 1;
nodes = (
"801 900 LINE",
"901 900 LINE",
"901 1100 LINE",
"801 1100 LINE"
);
}
);
width = 1200;
}
);
unicode = E151;
},
{
glyphname = uniE152;
layers = (
{
layerId = "9ECC7D36-9140-4F4B-A408-CD21EECD2CFD";
name = Regular;
paths = (
{
closed = 1;
nodes = (
"2 300 LINE",
"200 300 LINE",
"200 1200 LINE",
"400 1200 LINE",
"400 300 LINE",
"598 300 LINE",
"300 0 LINE"
);
},
{
closed = 1;
nodes = (
"700 0 LINE",
"700 500 LINE",
"1000 500 LINE",
"1000 0 LINE",
"900 0 LINE",
"900 100 LINE",
"800 100 LINE",
"800 0 LINE"
);
},
{
closed = 1;
nodes = (
"700 700 LINE",
"700 900 LINE",
"800 900 LINE",
"800 800 LINE",
"1000 800 LINE",
"1000 700 LINE"
);
},
{
closed = 1;
nodes = (
"700 1100 LINE",
"700 1200 LINE",
"1000 1200 LINE",
"1000 1000 LINE",
"901 1000 LINE",
"901 900 LINE",
"801 900 LINE",
"801 1000 LINE",
"900 1000 LINE",
"900 1100 LINE"
);
},
{
closed = 1;
nodes = (
"801 200 LINE",
"901 200 LINE",
"901 400 LINE",
"801 400 LINE"
);
}
);
width = 1200;
}
);
unicode = E152;
},
{
glyphname = uniE153;
layers = (
{
layerId = "9ECC7D36-9140-4F4B-A408-CD21EECD2CFD";
name = Regular;
paths = (
{
closed = 1;
nodes = (
"2 300 LINE",
"300 0 LINE",
"598 300 LINE",
"400 300 LINE",
"400 1200 LINE",
"200 1200 LINE",
"200 300 LINE"
);
},
{
closed = 1;
nodes = (
"800 100 LINE",
"800 500 LINE",
"1100 500 LINE",
"1100 0 LINE",
"1000 0 LINE",
"1000 100 LINE"
);
},
{
closed = 1;
nodes = (
"800 1100 LINE",
"800 1200 LINE",
"1000 1200 LINE",
"1000 700 LINE",
"900 700 LINE",
"900 1100 LINE"
);
},
{
closed = 1;
nodes = (
"901 200 LINE",
"1001 200 LINE",
"1001 400 LINE",
"901 400 LINE"
);
}
);
width = 1200;
}
);
unicode = E153;
},
{
glyphname = uniE154;
layers = (
{
layerId = "9ECC7D36-9140-4F4B-A408-CD21EECD2CFD";
name = Regular;
paths = (
{
closed = 1;
nodes = (
"2 300 LINE",
"300 0 LINE",
"598 300 LINE",
"400 300 LINE",
"400 1200 LINE",
"200 1200 LINE",
"200 300 LINE"
);
},
{
closed = 1;
nodes = (
"800 400 LINE",
"800 500 LINE",
"1000 500 LINE",
"1000 0 LINE",
"900 0 LINE",
"900 400 LINE"
);
},
{
closed = 1;
nodes = (
"800 800 LINE",
"800 1200 LINE",
"1100 1200 LINE",
"1100 700 LINE",
"1000 700 LINE",
"1000 800 LINE"
);
},
{
closed = 1;
nodes = (
"901 900 LINE",
"1001 900 LINE",
"1001 1100 LINE",
"901 1100 LINE"
);
}
);
width = 1200;
}
);
unicode = E154;
},
{
glyphname = uniE155;
layers = (
{
layerId = "9ECC7D36-9140-4F4B-A408-CD21EECD2CFD";
name = Regular;
paths = (
{
closed = 1;
nodes = (
"2 300 LINE",
"300 0 LINE",
"598 300 LINE",
"400 300 LINE",
"400 1200 LINE",
"200 1200 LINE",
"200 300 LINE"
);
},
{
closed = 1;
nodes = (
"700 100 LINE",
"700 300 LINE",
"1200 300 LINE",
"1200 100 LINE"
);
},
{
closed = 1;
nodes = (
"700 400 LINE",
"700 600 LINE",
"1100 600 LINE",
"1100 400 LINE"
);
},
{
closed = 1;
nodes = (
"700 700 LINE",
"700 900 LINE",
"1000 900 LINE",
"1000 700 LINE"
);
},
{
closed = 1;
nodes = (
"700 1000 LINE",
"700 1200 LINE",
"900 1200 LINE",
"900 1000 LINE"
);
}
);
width = 1200;
}
);
unicode = E155;
},
{
glyphname = uniE156;
layers = (
{
layerId = "9ECC7D36-9140-4F4B-A408-CD21EECD2CFD";
name = Regular;
paths = (
{
closed = 1;
nodes = (
"2 300 LINE",
"300 0 LINE",
"598 300 LINE",
"400 300 LINE",
"400 1200 LINE",
"200 1200 LINE",
"200 300 LINE"
);
},
{
closed = 1;
nodes = (
"700 100 LINE",
"700 300 LINE",
"900 300 LINE",
"900 100 LINE"
);
},
{
closed = 1;
nodes = (
"700 400 LINE",
"700 600 LINE",
"1000 600 LINE",
"1000 400 LINE"
);
},
{
closed = 1;
nodes = (
"700 700 LINE",
"700 900 LINE",
"1100 900 LINE",
"1100 700 LINE"
);
},
{
closed = 1;
nodes = (
"700 1000 LINE",
"700 1200 LINE",
"1200 1200 LINE",
"1200 1000 LINE"
);
}
);
width = 1200;
}
);
unicode = E156;
},
{
glyphname = uniE157;
layers = (
{
layerId = "9ECC7D36-9140-4F4B-A408-CD21EECD2CFD";
name = Regular;
paths = (
{
closed = 1;
nodes = (
"0 700 LINE SMOOTH",
"0 920 OFFCURVE",
"180 1100 OFFCURVE",
"400 1100 CURVE SMOOTH",
"700 1100 LINE SMOOTH",
"916 1100 OFFCURVE",
"1100 917 OFFCURVE",
"1100 700 CURVE SMOOTH",
"1100 400 LINE SMOOTH",
"1100 180 OFFCURVE",
"917 0 OFFCURVE",
"700 0 CURVE SMOOTH",
"400 0 LINE SMOOTH",
"180 0 OFFCURVE",
"0 180 OFFCURVE",
"0 400 CURVE SMOOTH"
);
},
{
closed = 1;
nodes = (
"200 300 LINE SMOOTH",
"200 245 OFFCURVE",
"245 200 OFFCURVE",
"300 200 CURVE SMOOTH",
"800 200 LINE SMOOTH",
"855 200 OFFCURVE",
"900 245 OFFCURVE",
"900 300 CURVE SMOOTH",
"900 800 LINE SMOOTH",
"900 855 OFFCURVE",
"855 900 OFFCURVE",
"800 900 CURVE SMOOTH",
"300 900 LINE SMOOTH",
"245 900 OFFCURVE",
"200 855 OFFCURVE",
"200 800 CURVE SMOOTH"
);
}
);
width = 1200;
}
);
unicode = E157;
},
{
glyphname = uniE158;
layers = (
{
layerId = "9ECC7D36-9140-4F4B-A408-CD21EECD2CFD";
name = Regular;
paths = (
{
closed = 1;
nodes = (
"0 700 LINE SMOOTH",
"0 917 OFFCURVE",
"184 1100 OFFCURVE",
"400 1100 CURVE SMOOTH",
"700 1100 LINE SMOOTH",
"920 1100 OFFCURVE",
"1100 920 OFFCURVE",
"1100 700 CURVE SMOOTH",
"1100 400 LINE SMOOTH",
"1100 180 OFFCURVE",
"920 0 OFFCURVE",
"700 0 CURVE SMOOTH",
"400 0 LINE SMOOTH",
"183 0 OFFCURVE",
"0 180 OFFCURVE",
"0 400 CURVE SMOOTH"
);
},
{
closed = 1;
nodes = (
"200 300 LINE SMOOTH",
"200 245 OFFCURVE",
"245 200 OFFCURVE",
"300 200 CURVE SMOOTH",
"800 200 LINE SMOOTH",
"855 200 OFFCURVE",
"900 245 OFFCURVE",
"900 300 CURVE SMOOTH",
"900 800 LINE SMOOTH",
"900 855 OFFCURVE",
"855 900 OFFCURVE",
"800 900 CURVE SMOOTH",
"300 900 LINE SMOOTH",
"245 900 OFFCURVE",
"200 855 OFFCURVE",
"200 800 CURVE SMOOTH"
);
},
{
closed = 1;
nodes = (
"400 300 LINE",
"733 550 LINE",
"400 800 LINE"
);
}
);
width = 1200;
}
);
unicode = E158;
},
{
glyphname = uniE159;
layers = (
{
layerId = "9ECC7D36-9140-4F4B-A408-CD21EECD2CFD";
name = Regular;
paths = (
{
closed = 1;
nodes = (
"0 700 LINE SMOOTH",
"0 917 OFFCURVE",
"180 1100 OFFCURVE",
"400 1100 CURVE SMOOTH",
"700 1100 LINE SMOOTH",
"917 1100 OFFCURVE",
"1100 916 OFFCURVE",
"1100 700 CURVE SMOOTH",
"1100 400 LINE SMOOTH",
"1100 180 OFFCURVE",
"920 0 OFFCURVE",
"700 0 CURVE SMOOTH",
"400 0 LINE SMOOTH",
"180 0 OFFCURVE",
"0 180 OFFCURVE",
"0 400 CURVE SMOOTH"
);
},
{
closed = 1;
nodes = (
"200 300 LINE SMOOTH",
"200 245 OFFCURVE",
"245 200 OFFCURVE",
"300 200 CURVE SMOOTH",
"800 200 LINE SMOOTH",
"855 200 OFFCURVE",
"900 245 OFFCURVE",
"900 300 CURVE SMOOTH",
"900 800 LINE SMOOTH",
"900 855 OFFCURVE",
"855 900 OFFCURVE",
"800 900 CURVE SMOOTH",
"300 900 LINE SMOOTH",
"245 900 OFFCURVE",
"200 855 OFFCURVE",
"200 800 CURVE SMOOTH"
);
},
{
closed = 1;
nodes = (
"300 700 LINE",
"550 367 LINE",
"800 700 LINE"
);
}
);
width = 1200;
}
);
unicode = E159;
},
{
glyphname = uniE160;
layers = (
{
layerId = "9ECC7D36-9140-4F4B-A408-CD21EECD2CFD";
name = Regular;
paths = (
{
closed = 1;
nodes = (
"0 700 LINE SMOOTH",
"0 920 OFFCURVE",
"180 1100 OFFCURVE",
"400 1100 CURVE SMOOTH",
"700 1100 LINE SMOOTH",
"920 1100 OFFCURVE",
"1100 920 OFFCURVE",
"1100 700 CURVE SMOOTH",
"1100 400 LINE SMOOTH",
"1100 184 OFFCURVE",
"917 0 OFFCURVE",
"700 0 CURVE SMOOTH",
"400 0 LINE SMOOTH",
"180 0 OFFCURVE",
"0 183 OFFCURVE",
"0 400 CURVE SMOOTH"
);
},
{
closed = 1;
nodes = (
"200 300 LINE SMOOTH",
"200 245 OFFCURVE",
"245 200 OFFCURVE",
"300 200 CURVE SMOOTH",
"800 200 LINE SMOOTH",
"855 200 OFFCURVE",
"900 245 OFFCURVE",
"900 300 CURVE SMOOTH",
"900 800 LINE SMOOTH",
"900 855 OFFCURVE",
"855 900 OFFCURVE",
"800 900 CURVE SMOOTH",
"300 900 LINE SMOOTH",
"245 900 OFFCURVE",
"200 855 OFFCURVE",
"200 800 CURVE SMOOTH"
);
},
{
closed = 1;
nodes = (
"300 400 LINE",
"800 400 LINE",
"550 733 LINE"
);
}
);
width = 1200;
}
);
unicode = E160;
},
{
glyphname = uniE161;
layers = (
{
layerId = "9ECC7D36-9140-4F4B-A408-CD21EECD2CFD";
name = Regular;
paths = (
{
closed = 1;
nodes = (
"0 400 LINE",
"0 700 LINE",
"300 700 LINE",
"300 900 LINE",
"700 550 LINE",
"300 200 LINE",
"300 400 LINE"
);
},
{
closed = 1;
nodes = (
"500 0 LINE",
"500 200 LINE",
"1000 200 LINE SMOOTH",
"1055 200 OFFCURVE",
"1100 245 OFFCURVE",
"1100 300 CURVE SMOOTH",
"1100 800 LINE SMOOTH",
"1100 855 OFFCURVE",
"1055 900 OFFCURVE",
"1000 900 CURVE SMOOTH",
"500 900 LINE",
"500 1100 LINE",
"900 1100 LINE SMOOTH",
"1120 1100 OFFCURVE",
"1300 920 OFFCURVE",
"1300 700 CURVE SMOOTH",
"1300 400 LINE SMOOTH",
"1300 180 OFFCURVE",
"1120 0 OFFCURVE",
"900 0 CURVE SMOOTH"
);
}
);
width = 1200;
}
);
unicode = E161;
},
{
glyphname = uniE162;
layers = (
{
layerId = "9ECC7D36-9140-4F4B-A408-CD21EECD2CFD";
name = Regular;
paths = (
{
closed = 1;
nodes = (
"222 506 OFFCURVE",
"233 500 OFFCURVE",
"248 500 CURVE SMOOTH",
"550 500 LINE",
"447 208 OFFCURVE",
"393 55 OFFCURVE",
"390 42 CURVE SMOOTH",
"387 28 OFFCURVE",
"388 17 OFFCURVE",
"394 10 CURVE",
"403 2 LINE",
"412 2 LINE SMOOTH",
"421 2 OFFCURVE",
"430 7 OFFCURVE",
"438 17 CURVE",
"453 34 OFFCURVE",
"976 647 OFFCURVE",
"977 647 CURVE",
"996 672 OFFCURVE",
"982 700 OFFCURVE",
"951 700 CURVE SMOOTH",
"650 699 LINE",
"651 702 OFFCURVE",
"677 775 OFFCURVE",
"728 919 CURVE SMOOTH",
"779 1062 OFFCURVE",
"806 1138 OFFCURVE",
"807 1146 CURVE SMOOTH",
"808 1156 OFFCURVE",
"807 1165 OFFCURVE",
"802 1173 CURVE",
"793 1182 LINE",
"784 1182 LINE SMOOTH",
"774 1182 OFFCURVE",
"766 1177 OFFCURVE",
"759 1166 CURVE",
"756 1162 OFFCURVE",
"724 1125 OFFCURVE",
"661 1055 CURVE SMOOTH",
"536 914 OFFCURVE",
"323 675 OFFCURVE",
"223 560 CURVE SMOOTH",
"212 547 OFFCURVE",
"210 534 OFFCURVE",
"217 519 CURVE"
);
}
);
width = 1200;
}
);
unicode = E162;
},
{
glyphname = uniE163;
layers = (
{
layerId = "9ECC7D36-9140-4F4B-A408-CD21EECD2CFD";
name = Regular;
paths = (
{
closed = 1;
nodes = (
"0 400 LINE SMOOTH",
"0 180 OFFCURVE",
"180 0 OFFCURVE",
"400 0 CURVE SMOOTH",
"700 0 LINE SMOOTH",
"731 0 OFFCURVE",
"765 5 OFFCURVE",
"800 15 CURVE",
"800 200 LINE",
"300 200 LINE SMOOTH",
"245 200 OFFCURVE",
"200 245 OFFCURVE",
"200 300 CURVE SMOOTH",
"200 800 LINE SMOOTH",
"200 855 OFFCURVE",
"245 900 OFFCURVE",
"300 900 CURVE SMOOTH",
"800 900 LINE",
"800 1085 LINE",
"781 1090 OFFCURVE",
"617 1095 OFFCURVE",
"493 1098 CURVE SMOOTH",
"400 1100 LINE SMOOTH",
"180 1100 OFFCURVE",
"0 920 OFFCURVE",
"0 700 CURVE SMOOTH"
);
},
{
closed = 1;
nodes = (
"600 400 LINE",
"600 700 LINE",
"900 700 LINE",
"900 900 LINE",
"1300 550 LINE",
"900 200 LINE",
"900 400 LINE"
);
}
);
width = 1200;
}
);
unicode = E163;
},
{
glyphname = uniE164;
layers = (
{
layerId = "9ECC7D36-9140-4F4B-A408-CD21EECD2CFD";
name = Regular;
paths = (
{
closed = 1;
nodes = (
"0 400 LINE SMOOTH",
"0 180 OFFCURVE",
"180 0 OFFCURVE",
"400 0 CURVE SMOOTH",
"700 0 LINE SMOOTH",
"917 0 OFFCURVE",
"1100 180 OFFCURVE",
"1100 400 CURVE SMOOTH",
"1100 498 LINE",
"1022 571 LINE",
"900 448 LINE",
"900 300 LINE SMOOTH",
"900 245 OFFCURVE",
"855 200 OFFCURVE",
"800 200 CURVE SMOOTH",
"300 200 LINE SMOOTH",
"245 200 OFFCURVE",
"200 245 OFFCURVE",
"200 300 CURVE SMOOTH",
"200 800 LINE SMOOTH",
"200 855 OFFCURVE",
"245 900 OFFCURVE",
"300 900 CURVE SMOOTH",
"456 900 LINE",
"574 1022 LINE",
"500 1100 LINE",
"400 1100 LINE SMOOTH",
"180 1100 OFFCURVE",
"0 920 OFFCURVE",
"0 700 CURVE SMOOTH"
);
},
{
closed = 1;
nodes = (
"496 709 LINE",
"849 1051 LINE",
"700 1200 LINE",
"1200 1200 LINE",
"1200 700 LINE",
"1051 849 LINE",
"709 496 LINE"
);
}
);
width = 1200;
}
);
unicode = E164;
},
